<mxfile host="app.diagrams.net" modified="2021-01-27T22:17:49.645Z" agent="5.0 (Windows)" etag="JCBQGZYkn39Jxz4QaR5s" version="14.2.2" type="github">
  <diagram id="E_3tKPUa0NtoQE2HXZXB" name="Page-1">
    <mxGraphModel dx="6070" dy="689" grid="1" gridSize="10" guides="1" tooltips="1" connect="1" arrows="1" fold="1" page="1" pageScale="1" pageWidth="827" pageHeight="1169" math="0" shadow="0">
      <root>
        <mxCell id="0" />
        <mxCell id="1" parent="0" />
        <mxCell id="eKRL8oK7qd-l2Jsr5qjg-1" style="edgeStyle=orthogonalEdgeStyle;rounded=0;orthogonalLoop=1;jettySize=auto;html=1;entryX=0;entryY=0.75;entryDx=0;entryDy=0;" edge="1" parent="1" source="eKRL8oK7qd-l2Jsr5qjg-188" target="eKRL8oK7qd-l2Jsr5qjg-121">
          <mxGeometry relative="1" as="geometry">
            <Array as="points">
              <mxPoint x="-1120" y="3630" />
              <mxPoint x="-1120" y="2785" />
            </Array>
          </mxGeometry>
        </mxCell>
        <mxCell id="eKRL8oK7qd-l2Jsr5qjg-2" style="edgeStyle=orthogonalEdgeStyle;rounded=0;orthogonalLoop=1;jettySize=auto;html=1;entryX=0;entryY=0.5;entryDx=0;entryDy=0;" edge="1" parent="1" source="eKRL8oK7qd-l2Jsr5qjg-3" target="eKRL8oK7qd-l2Jsr5qjg-5">
          <mxGeometry relative="1" as="geometry" />
        </mxCell>
        <mxCell id="eKRL8oK7qd-l2Jsr5qjg-3" value="RS" style="rounded=0;whiteSpace=wrap;html=1;fillColor=#dae8fc;strokeColor=#6c8ebf;" vertex="1" parent="1">
          <mxGeometry x="-530" y="900" width="50" height="180" as="geometry" />
        </mxCell>
        <mxCell id="eKRL8oK7qd-l2Jsr5qjg-4" style="edgeStyle=orthogonalEdgeStyle;rounded=0;orthogonalLoop=1;jettySize=auto;html=1;" edge="1" parent="1" source="eKRL8oK7qd-l2Jsr5qjg-5">
          <mxGeometry relative="1" as="geometry">
            <mxPoint x="-270" y="830" as="targetPoint" />
          </mxGeometry>
        </mxCell>
        <mxCell id="eKRL8oK7qd-l2Jsr5qjg-5" value="S3CP32020000 005505&lt;br&gt;CIP EGG STEP3" style="rounded=1;whiteSpace=wrap;html=1;fillColor=#d5e8d4;strokeColor=#82b366;" vertex="1" parent="1">
          <mxGeometry x="-440" y="960" width="120" height="60" as="geometry" />
        </mxCell>
        <mxCell id="eKRL8oK7qd-l2Jsr5qjg-6" value="SET" style="edgeStyle=orthogonalEdgeStyle;rounded=0;orthogonalLoop=1;jettySize=auto;html=1;entryX=-0.022;entryY=0.164;entryDx=0;entryDy=0;entryPerimeter=0;" edge="1" parent="1" source="eKRL8oK7qd-l2Jsr5qjg-7" target="eKRL8oK7qd-l2Jsr5qjg-3">
          <mxGeometry relative="1" as="geometry" />
        </mxCell>
        <mxCell id="eKRL8oK7qd-l2Jsr5qjg-7" value="S2CP32020000 005504&lt;br&gt;CIP EGG STEP2" style="rounded=0;whiteSpace=wrap;html=1;fillColor=#d5e8d4;strokeColor=#82b366;" vertex="1" parent="1">
          <mxGeometry x="-740" y="900" width="120" height="60" as="geometry" />
        </mxCell>
        <mxCell id="eKRL8oK7qd-l2Jsr5qjg-8" style="edgeStyle=orthogonalEdgeStyle;rounded=0;orthogonalLoop=1;jettySize=auto;html=1;entryX=0;entryY=0.5;entryDx=0;entryDy=0;" edge="1" parent="1" source="eKRL8oK7qd-l2Jsr5qjg-9" target="eKRL8oK7qd-l2Jsr5qjg-7">
          <mxGeometry relative="1" as="geometry" />
        </mxCell>
        <mxCell id="eKRL8oK7qd-l2Jsr5qjg-9" value="S8CP32020001" style="rounded=0;whiteSpace=wrap;html=1;fillColor=#d5e8d4;strokeColor=#82b366;" vertex="1" parent="1">
          <mxGeometry x="-910" y="900" width="120" height="60" as="geometry" />
        </mxCell>
        <mxCell id="eKRL8oK7qd-l2Jsr5qjg-10" value="RES" style="edgeStyle=orthogonalEdgeStyle;rounded=0;orthogonalLoop=1;jettySize=auto;html=1;entryX=-0.081;entryY=0.798;entryDx=0;entryDy=0;entryPerimeter=0;" edge="1" parent="1" source="eKRL8oK7qd-l2Jsr5qjg-11" target="eKRL8oK7qd-l2Jsr5qjg-3">
          <mxGeometry x="0.8326" relative="1" as="geometry">
            <mxPoint as="offset" />
          </mxGeometry>
        </mxCell>
        <mxCell id="eKRL8oK7qd-l2Jsr5qjg-11" value="AcFCP32020000&lt;br&gt;002292&lt;br&gt;Button Egg Full CIP" style="rounded=0;whiteSpace=wrap;html=1;fillColor=#f8cecc;strokeColor=#b85450;" vertex="1" parent="1">
          <mxGeometry x="-910" y="1010" width="120" height="60" as="geometry" />
        </mxCell>
        <mxCell id="eKRL8oK7qd-l2Jsr5qjg-12" style="edgeStyle=orthogonalEdgeStyle;rounded=0;orthogonalLoop=1;jettySize=auto;html=1;entryX=0;entryY=0.5;entryDx=0;entryDy=0;" edge="1" parent="1" source="eKRL8oK7qd-l2Jsr5qjg-13" target="eKRL8oK7qd-l2Jsr5qjg-15">
          <mxGeometry relative="1" as="geometry" />
        </mxCell>
        <mxCell id="eKRL8oK7qd-l2Jsr5qjg-13" value="RS" style="rounded=0;whiteSpace=wrap;html=1;fillColor=#dae8fc;strokeColor=#6c8ebf;" vertex="1" parent="1">
          <mxGeometry x="-850" y="1120" width="50" height="180" as="geometry" />
        </mxCell>
        <mxCell id="eKRL8oK7qd-l2Jsr5qjg-14" style="edgeStyle=orthogonalEdgeStyle;rounded=0;orthogonalLoop=1;jettySize=auto;html=1;" edge="1" parent="1" source="eKRL8oK7qd-l2Jsr5qjg-15">
          <mxGeometry relative="1" as="geometry">
            <mxPoint x="-600" y="1050" as="targetPoint" />
          </mxGeometry>
        </mxCell>
        <mxCell id="eKRL8oK7qd-l2Jsr5qjg-15" value="S4CP32020000 005506&lt;br&gt;CIP EGG STEP4" style="rounded=1;whiteSpace=wrap;html=1;fillColor=#d5e8d4;strokeColor=#82b366;" vertex="1" parent="1">
          <mxGeometry x="-760" y="1180" width="120" height="60" as="geometry" />
        </mxCell>
        <mxCell id="eKRL8oK7qd-l2Jsr5qjg-16" value="SET" style="edgeStyle=orthogonalEdgeStyle;rounded=0;orthogonalLoop=1;jettySize=auto;html=1;entryX=-0.022;entryY=0.164;entryDx=0;entryDy=0;entryPerimeter=0;" edge="1" parent="1" source="eKRL8oK7qd-l2Jsr5qjg-17" target="eKRL8oK7qd-l2Jsr5qjg-13">
          <mxGeometry relative="1" as="geometry" />
        </mxCell>
        <mxCell id="eKRL8oK7qd-l2Jsr5qjg-17" value="S3CP32020000 005505&lt;br&gt;CIP EGG STEP3" style="rounded=0;whiteSpace=wrap;html=1;fillColor=#d5e8d4;strokeColor=#82b366;" vertex="1" parent="1">
          <mxGeometry x="-1060" y="1120" width="120" height="60" as="geometry" />
        </mxCell>
        <mxCell id="eKRL8oK7qd-l2Jsr5qjg-18" style="edgeStyle=orthogonalEdgeStyle;rounded=0;orthogonalLoop=1;jettySize=auto;html=1;entryX=0;entryY=0.5;entryDx=0;entryDy=0;" edge="1" parent="1" source="eKRL8oK7qd-l2Jsr5qjg-19" target="eKRL8oK7qd-l2Jsr5qjg-17">
          <mxGeometry relative="1" as="geometry" />
        </mxCell>
        <mxCell id="eKRL8oK7qd-l2Jsr5qjg-1016" style="edgeStyle=orthogonalEdgeStyle;rounded=0;orthogonalLoop=1;jettySize=auto;html=1;exitX=0.5;exitY=1;exitDx=0;exitDy=0;entryX=0.5;entryY=0;entryDx=0;entryDy=0;fillColor=#ffe6cc;strokeColor=#d79b00;" edge="1" parent="1" source="eKRL8oK7qd-l2Jsr5qjg-19" target="eKRL8oK7qd-l2Jsr5qjg-25">
          <mxGeometry relative="1" as="geometry" />
        </mxCell>
        <mxCell id="eKRL8oK7qd-l2Jsr5qjg-19" value="S8CP32020001" style="rounded=0;whiteSpace=wrap;html=1;fillColor=#d5e8d4;strokeColor=#82b366;" vertex="1" parent="1">
          <mxGeometry x="-1230" y="1120" width="120" height="60" as="geometry" />
        </mxCell>
        <mxCell id="eKRL8oK7qd-l2Jsr5qjg-20" value="RES" style="edgeStyle=orthogonalEdgeStyle;rounded=0;orthogonalLoop=1;jettySize=auto;html=1;entryX=-0.081;entryY=0.798;entryDx=0;entryDy=0;entryPerimeter=0;" edge="1" parent="1" source="eKRL8oK7qd-l2Jsr5qjg-21" target="eKRL8oK7qd-l2Jsr5qjg-13">
          <mxGeometry x="0.8326" relative="1" as="geometry">
            <mxPoint as="offset" />
          </mxGeometry>
        </mxCell>
        <mxCell id="eKRL8oK7qd-l2Jsr5qjg-21" value="AcFCP32020000&lt;br&gt;002292&lt;br&gt;Button Egg Full CIP" style="rounded=0;whiteSpace=wrap;html=1;fillColor=#f8cecc;strokeColor=#b85450;" vertex="1" parent="1">
          <mxGeometry x="-1230" y="1230" width="120" height="60" as="geometry" />
        </mxCell>
        <mxCell id="eKRL8oK7qd-l2Jsr5qjg-22" style="edgeStyle=orthogonalEdgeStyle;rounded=0;orthogonalLoop=1;jettySize=auto;html=1;entryX=0;entryY=0.5;entryDx=0;entryDy=0;" edge="1" parent="1" source="eKRL8oK7qd-l2Jsr5qjg-23" target="eKRL8oK7qd-l2Jsr5qjg-25">
          <mxGeometry relative="1" as="geometry" />
        </mxCell>
        <mxCell id="eKRL8oK7qd-l2Jsr5qjg-23" value="S4CP32020000 005506&lt;br&gt;CIP EGG STEP4" style="rounded=0;whiteSpace=wrap;html=1;fillColor=#d5e8d4;strokeColor=#82b366;" vertex="1" parent="1">
          <mxGeometry x="-1460" y="1330" width="120" height="60" as="geometry" />
        </mxCell>
        <mxCell id="eKRL8oK7qd-l2Jsr5qjg-24" style="edgeStyle=orthogonalEdgeStyle;rounded=0;orthogonalLoop=1;jettySize=auto;html=1;entryX=0;entryY=0.5;entryDx=0;entryDy=0;" edge="1" parent="1" source="eKRL8oK7qd-l2Jsr5qjg-25" target="eKRL8oK7qd-l2Jsr5qjg-27">
          <mxGeometry relative="1" as="geometry" />
        </mxCell>
        <mxCell id="eKRL8oK7qd-l2Jsr5qjg-25" value="S8CP32020001" style="rounded=0;whiteSpace=wrap;html=1;fillColor=#d5e8d4;strokeColor=#82b366;" vertex="1" parent="1">
          <mxGeometry x="-1290" y="1330" width="120" height="60" as="geometry" />
        </mxCell>
        <mxCell id="eKRL8oK7qd-l2Jsr5qjg-26" style="edgeStyle=orthogonalEdgeStyle;rounded=0;orthogonalLoop=1;jettySize=auto;html=1;" edge="1" parent="1" source="eKRL8oK7qd-l2Jsr5qjg-27">
          <mxGeometry relative="1" as="geometry">
            <mxPoint x="-930" y="1270" as="targetPoint" />
          </mxGeometry>
        </mxCell>
        <mxCell id="eKRL8oK7qd-l2Jsr5qjg-27" value="S6CP32020002" style="rounded=0;whiteSpace=wrap;html=1;fillColor=#d5e8d4;strokeColor=#82b366;" vertex="1" parent="1">
          <mxGeometry x="-1120" y="1330" width="120" height="60" as="geometry" />
        </mxCell>
        <mxCell id="eKRL8oK7qd-l2Jsr5qjg-28" style="edgeStyle=orthogonalEdgeStyle;rounded=0;orthogonalLoop=1;jettySize=auto;html=1;entryX=0;entryY=0.5;entryDx=0;entryDy=0;" edge="1" parent="1" source="eKRL8oK7qd-l2Jsr5qjg-29" target="eKRL8oK7qd-l2Jsr5qjg-31">
          <mxGeometry relative="1" as="geometry" />
        </mxCell>
        <mxCell id="eKRL8oK7qd-l2Jsr5qjg-29" value="RS" style="rounded=0;whiteSpace=wrap;html=1;fillColor=#dae8fc;strokeColor=#6c8ebf;" vertex="1" parent="1">
          <mxGeometry x="270" y="1520" width="50" height="180" as="geometry" />
        </mxCell>
        <mxCell id="eKRL8oK7qd-l2Jsr5qjg-30" style="edgeStyle=orthogonalEdgeStyle;rounded=0;orthogonalLoop=1;jettySize=auto;html=1;exitX=0.5;exitY=1;exitDx=0;exitDy=0;entryX=0.5;entryY=0;entryDx=0;entryDy=0;fillColor=#fff2cc;strokeColor=#d6b656;" edge="1" parent="1" source="eKRL8oK7qd-l2Jsr5qjg-31" target="eKRL8oK7qd-l2Jsr5qjg-71">
          <mxGeometry relative="1" as="geometry" />
        </mxCell>
        <mxCell id="eKRL8oK7qd-l2Jsr5qjg-31" value="S1CP32020001&lt;br&gt;CIP Egg Mix T Step1" style="rounded=1;whiteSpace=wrap;html=1;fillColor=#d5e8d4;strokeColor=#82b366;" vertex="1" parent="1">
          <mxGeometry x="360" y="1580" width="120" height="60" as="geometry" />
        </mxCell>
        <mxCell id="eKRL8oK7qd-l2Jsr5qjg-32" value="SET" style="edgeStyle=orthogonalEdgeStyle;rounded=0;orthogonalLoop=1;jettySize=auto;html=1;entryX=-0.022;entryY=0.164;entryDx=0;entryDy=0;entryPerimeter=0;" edge="1" parent="1" source="eKRL8oK7qd-l2Jsr5qjg-33" target="eKRL8oK7qd-l2Jsr5qjg-29">
          <mxGeometry relative="1" as="geometry" />
        </mxCell>
        <mxCell id="eKRL8oK7qd-l2Jsr5qjg-33" value="S1CP32020001&lt;br&gt;CIP Egg Mix T Step1" style="rounded=0;whiteSpace=wrap;html=1;fillColor=#f8cecc;strokeColor=#b85450;" vertex="1" parent="1">
          <mxGeometry x="60" y="1520" width="120" height="60" as="geometry" />
        </mxCell>
        <mxCell id="eKRL8oK7qd-l2Jsr5qjg-34" style="edgeStyle=orthogonalEdgeStyle;rounded=0;orthogonalLoop=1;jettySize=auto;html=1;entryX=0;entryY=0.5;entryDx=0;entryDy=0;" edge="1" parent="1" source="eKRL8oK7qd-l2Jsr5qjg-35" target="eKRL8oK7qd-l2Jsr5qjg-33">
          <mxGeometry relative="1" as="geometry" />
        </mxCell>
        <mxCell id="eKRL8oK7qd-l2Jsr5qjg-35" value="S2CP32020001&lt;br&gt;CIP Egg Mix T Step2" style="rounded=0;whiteSpace=wrap;html=1;fillColor=#f8cecc;strokeColor=#b85450;" vertex="1" parent="1">
          <mxGeometry x="-110" y="1520" width="120" height="60" as="geometry" />
        </mxCell>
        <mxCell id="eKRL8oK7qd-l2Jsr5qjg-36" value="RES" style="edgeStyle=orthogonalEdgeStyle;rounded=0;orthogonalLoop=1;jettySize=auto;html=1;entryX=-0.081;entryY=0.798;entryDx=0;entryDy=0;entryPerimeter=0;exitX=1;exitY=0.5;exitDx=0;exitDy=0;" edge="1" parent="1" source="eKRL8oK7qd-l2Jsr5qjg-63" target="eKRL8oK7qd-l2Jsr5qjg-29">
          <mxGeometry x="0.9407" relative="1" as="geometry">
            <mxPoint x="180" y="1850" as="sourcePoint" />
            <Array as="points">
              <mxPoint x="-660" y="1890" />
              <mxPoint x="-660" y="1664" />
            </Array>
            <mxPoint as="offset" />
          </mxGeometry>
        </mxCell>
        <mxCell id="eKRL8oK7qd-l2Jsr5qjg-37" style="edgeStyle=orthogonalEdgeStyle;rounded=0;orthogonalLoop=1;jettySize=auto;html=1;entryX=0;entryY=0.5;entryDx=0;entryDy=0;" edge="1" parent="1" source="eKRL8oK7qd-l2Jsr5qjg-38" target="eKRL8oK7qd-l2Jsr5qjg-35">
          <mxGeometry relative="1" as="geometry" />
        </mxCell>
        <mxCell id="eKRL8oK7qd-l2Jsr5qjg-38" value="S3CP32020001&lt;br&gt;005511&lt;br&gt;CIP Egg Mix T Step3" style="rounded=0;whiteSpace=wrap;html=1;fillColor=#f8cecc;strokeColor=#b85450;" vertex="1" parent="1">
          <mxGeometry x="-280" y="1520" width="120" height="60" as="geometry" />
        </mxCell>
        <mxCell id="eKRL8oK7qd-l2Jsr5qjg-39" style="edgeStyle=orthogonalEdgeStyle;rounded=0;orthogonalLoop=1;jettySize=auto;html=1;entryX=0;entryY=0.5;entryDx=0;entryDy=0;" edge="1" parent="1" source="eKRL8oK7qd-l2Jsr5qjg-40" target="eKRL8oK7qd-l2Jsr5qjg-38">
          <mxGeometry relative="1" as="geometry" />
        </mxCell>
        <mxCell id="eKRL8oK7qd-l2Jsr5qjg-40" value="S4CP32020001&lt;br&gt;CIP Egg Mix T Step4" style="rounded=0;whiteSpace=wrap;html=1;fillColor=#f8cecc;strokeColor=#b85450;" vertex="1" parent="1">
          <mxGeometry x="-450" y="1520" width="120" height="60" as="geometry" />
        </mxCell>
        <mxCell id="eKRL8oK7qd-l2Jsr5qjg-41" style="edgeStyle=orthogonalEdgeStyle;rounded=0;orthogonalLoop=1;jettySize=auto;html=1;entryX=0;entryY=0.5;entryDx=0;entryDy=0;" edge="1" parent="1" source="eKRL8oK7qd-l2Jsr5qjg-42" target="eKRL8oK7qd-l2Jsr5qjg-40">
          <mxGeometry relative="1" as="geometry" />
        </mxCell>
        <mxCell id="eKRL8oK7qd-l2Jsr5qjg-42" value="S5CP32020001&lt;br&gt;CIP Egg Mix T Step5" style="rounded=0;whiteSpace=wrap;html=1;fillColor=#f8cecc;strokeColor=#b85450;" vertex="1" parent="1">
          <mxGeometry x="-620" y="1520" width="120" height="60" as="geometry" />
        </mxCell>
        <mxCell id="eKRL8oK7qd-l2Jsr5qjg-43" style="edgeStyle=orthogonalEdgeStyle;rounded=0;orthogonalLoop=1;jettySize=auto;html=1;entryX=0;entryY=0.5;entryDx=0;entryDy=0;" edge="1" parent="1" source="eKRL8oK7qd-l2Jsr5qjg-44" target="eKRL8oK7qd-l2Jsr5qjg-42">
          <mxGeometry relative="1" as="geometry" />
        </mxCell>
        <mxCell id="eKRL8oK7qd-l2Jsr5qjg-44" value="S6CP32020001&lt;br&gt;CIP Egg Mix T Step6" style="rounded=0;whiteSpace=wrap;html=1;fillColor=#f8cecc;strokeColor=#b85450;" vertex="1" parent="1">
          <mxGeometry x="-790" y="1520" width="120" height="60" as="geometry" />
        </mxCell>
        <mxCell id="eKRL8oK7qd-l2Jsr5qjg-45" style="edgeStyle=orthogonalEdgeStyle;rounded=0;orthogonalLoop=1;jettySize=auto;html=1;entryX=0;entryY=0.5;entryDx=0;entryDy=0;" edge="1" parent="1" source="eKRL8oK7qd-l2Jsr5qjg-46" target="eKRL8oK7qd-l2Jsr5qjg-44">
          <mxGeometry relative="1" as="geometry" />
        </mxCell>
        <mxCell id="eKRL8oK7qd-l2Jsr5qjg-46" value="S7CP32020001&lt;br&gt;CIP Egg Mix T Step7" style="rounded=0;whiteSpace=wrap;html=1;fillColor=#f8cecc;strokeColor=#b85450;" vertex="1" parent="1">
          <mxGeometry x="-960" y="1520" width="120" height="60" as="geometry" />
        </mxCell>
        <mxCell id="eKRL8oK7qd-l2Jsr5qjg-47" style="edgeStyle=orthogonalEdgeStyle;rounded=0;orthogonalLoop=1;jettySize=auto;html=1;" edge="1" parent="1" source="eKRL8oK7qd-l2Jsr5qjg-48" target="eKRL8oK7qd-l2Jsr5qjg-46">
          <mxGeometry relative="1" as="geometry" />
        </mxCell>
        <mxCell id="eKRL8oK7qd-l2Jsr5qjg-48" value="S8CP32020001" style="rounded=0;whiteSpace=wrap;html=1;fillColor=#f8cecc;strokeColor=#b85450;" vertex="1" parent="1">
          <mxGeometry x="-1130" y="1520" width="120" height="60" as="geometry" />
        </mxCell>
        <mxCell id="eKRL8oK7qd-l2Jsr5qjg-49" style="edgeStyle=orthogonalEdgeStyle;rounded=0;orthogonalLoop=1;jettySize=auto;html=1;entryX=0;entryY=0.5;entryDx=0;entryDy=0;" edge="1" parent="1" source="eKRL8oK7qd-l2Jsr5qjg-50" target="eKRL8oK7qd-l2Jsr5qjg-48">
          <mxGeometry relative="1" as="geometry" />
        </mxCell>
        <mxCell id="eKRL8oK7qd-l2Jsr5qjg-50" value="S1CP32020000&lt;br&gt;005503&lt;br&gt;CIP EGG STEP1" style="rounded=0;whiteSpace=wrap;html=1;fillColor=#d5e8d4;strokeColor=#82b366;" vertex="1" parent="1">
          <mxGeometry x="-1330" y="1520" width="120" height="60" as="geometry" />
        </mxCell>
        <mxCell id="eKRL8oK7qd-l2Jsr5qjg-51" style="edgeStyle=orthogonalEdgeStyle;rounded=0;orthogonalLoop=1;jettySize=auto;html=1;" edge="1" parent="1" source="eKRL8oK7qd-l2Jsr5qjg-52">
          <mxGeometry relative="1" as="geometry">
            <mxPoint x="-1170" y="1550" as="targetPoint" />
          </mxGeometry>
        </mxCell>
        <mxCell id="eKRL8oK7qd-l2Jsr5qjg-52" value="S2CP32020000 005504&lt;br&gt;CIP EGG STEP2" style="rounded=0;whiteSpace=wrap;html=1;fillColor=#d5e8d4;strokeColor=#82b366;" vertex="1" parent="1">
          <mxGeometry x="-1329.5" y="1600" width="120" height="60" as="geometry" />
        </mxCell>
        <mxCell id="eKRL8oK7qd-l2Jsr5qjg-53" style="edgeStyle=orthogonalEdgeStyle;rounded=0;orthogonalLoop=1;jettySize=auto;html=1;" edge="1" parent="1" source="eKRL8oK7qd-l2Jsr5qjg-54">
          <mxGeometry relative="1" as="geometry">
            <mxPoint x="-1170" y="1550" as="targetPoint" />
          </mxGeometry>
        </mxCell>
        <mxCell id="eKRL8oK7qd-l2Jsr5qjg-54" value="S3CP32020000 005505&lt;br&gt;CIP EGG STEP3" style="rounded=0;whiteSpace=wrap;html=1;fillColor=#d5e8d4;strokeColor=#82b366;" vertex="1" parent="1">
          <mxGeometry x="-1329.5" y="1680" width="120" height="60" as="geometry" />
        </mxCell>
        <mxCell id="eKRL8oK7qd-l2Jsr5qjg-55" style="edgeStyle=orthogonalEdgeStyle;rounded=0;orthogonalLoop=1;jettySize=auto;html=1;" edge="1" parent="1" source="eKRL8oK7qd-l2Jsr5qjg-56">
          <mxGeometry relative="1" as="geometry">
            <mxPoint x="-1170" y="1550" as="targetPoint" />
          </mxGeometry>
        </mxCell>
        <mxCell id="eKRL8oK7qd-l2Jsr5qjg-56" value="S4CP32020000 005506&lt;br&gt;CIP EGG STEP4" style="rounded=0;whiteSpace=wrap;html=1;fillColor=#d5e8d4;strokeColor=#82b366;" vertex="1" parent="1">
          <mxGeometry x="-1329.5" y="1760" width="120" height="60" as="geometry" />
        </mxCell>
        <mxCell id="eKRL8oK7qd-l2Jsr5qjg-57" style="edgeStyle=orthogonalEdgeStyle;rounded=0;orthogonalLoop=1;jettySize=auto;html=1;entryX=0;entryY=0.5;entryDx=0;entryDy=0;" edge="1" parent="1" source="eKRL8oK7qd-l2Jsr5qjg-58" target="eKRL8oK7qd-l2Jsr5qjg-60">
          <mxGeometry relative="1" as="geometry" />
        </mxCell>
        <mxCell id="eKRL8oK7qd-l2Jsr5qjg-58" value="S1CP32020000&lt;br&gt;005503&lt;br&gt;CIP EGG STEP1" style="rounded=0;whiteSpace=wrap;html=1;fillColor=#f8cecc;strokeColor=#b85450;" vertex="1" parent="1">
          <mxGeometry x="-1320" y="1860" width="120" height="60" as="geometry" />
        </mxCell>
        <mxCell id="eKRL8oK7qd-l2Jsr5qjg-59" style="edgeStyle=orthogonalEdgeStyle;rounded=0;orthogonalLoop=1;jettySize=auto;html=1;entryX=0;entryY=0.5;entryDx=0;entryDy=0;" edge="1" parent="1" source="eKRL8oK7qd-l2Jsr5qjg-60" target="eKRL8oK7qd-l2Jsr5qjg-62">
          <mxGeometry relative="1" as="geometry" />
        </mxCell>
        <mxCell id="eKRL8oK7qd-l2Jsr5qjg-60" value="S2CP32020000 005504&lt;br&gt;CIP EGG STEP2" style="rounded=0;whiteSpace=wrap;html=1;fillColor=#f8cecc;strokeColor=#b85450;" vertex="1" parent="1">
          <mxGeometry x="-1160" y="1860" width="120" height="60" as="geometry" />
        </mxCell>
        <mxCell id="eKRL8oK7qd-l2Jsr5qjg-61" style="edgeStyle=orthogonalEdgeStyle;rounded=0;orthogonalLoop=1;jettySize=auto;html=1;entryX=0;entryY=0.5;entryDx=0;entryDy=0;" edge="1" parent="1" source="eKRL8oK7qd-l2Jsr5qjg-62" target="eKRL8oK7qd-l2Jsr5qjg-63">
          <mxGeometry relative="1" as="geometry" />
        </mxCell>
        <mxCell id="eKRL8oK7qd-l2Jsr5qjg-62" value="S3CP32020000 005505&lt;br&gt;CIP EGG STEP3" style="rounded=0;whiteSpace=wrap;html=1;fillColor=#f8cecc;strokeColor=#b85450;" vertex="1" parent="1">
          <mxGeometry x="-1000" y="1860" width="120" height="60" as="geometry" />
        </mxCell>
        <mxCell id="eKRL8oK7qd-l2Jsr5qjg-63" value="S4CP32020000 005506&lt;br&gt;CIP EGG STEP4" style="rounded=0;whiteSpace=wrap;html=1;fillColor=#f8cecc;strokeColor=#b85450;" vertex="1" parent="1">
          <mxGeometry x="-840" y="1860" width="120" height="60" as="geometry" />
        </mxCell>
        <mxCell id="eKRL8oK7qd-l2Jsr5qjg-64" style="edgeStyle=orthogonalEdgeStyle;rounded=0;orthogonalLoop=1;jettySize=auto;html=1;entryX=0;entryY=0.5;entryDx=0;entryDy=0;" edge="1" parent="1" source="eKRL8oK7qd-l2Jsr5qjg-65" target="eKRL8oK7qd-l2Jsr5qjg-67">
          <mxGeometry relative="1" as="geometry" />
        </mxCell>
        <mxCell id="eKRL8oK7qd-l2Jsr5qjg-65" value="RS" style="rounded=0;whiteSpace=wrap;html=1;fillColor=#dae8fc;strokeColor=#6c8ebf;" vertex="1" parent="1">
          <mxGeometry x="-135" y="1960" width="50" height="180" as="geometry" />
        </mxCell>
        <mxCell id="eKRL8oK7qd-l2Jsr5qjg-66" style="edgeStyle=orthogonalEdgeStyle;rounded=0;orthogonalLoop=1;jettySize=auto;html=1;" edge="1" parent="1" source="eKRL8oK7qd-l2Jsr5qjg-67">
          <mxGeometry relative="1" as="geometry">
            <mxPoint x="180" y="1660" as="targetPoint" />
          </mxGeometry>
        </mxCell>
        <mxCell id="eKRL8oK7qd-l2Jsr5qjg-67" value="S2CP32020001&lt;br&gt;CIP Egg Mix T Step2" style="rounded=1;whiteSpace=wrap;html=1;fillColor=#d5e8d4;strokeColor=#82b366;" vertex="1" parent="1">
          <mxGeometry x="-45" y="2020" width="120" height="60" as="geometry" />
        </mxCell>
        <mxCell id="eKRL8oK7qd-l2Jsr5qjg-68" value="SET" style="edgeStyle=orthogonalEdgeStyle;rounded=0;orthogonalLoop=1;jettySize=auto;html=1;entryX=-0.022;entryY=0.164;entryDx=0;entryDy=0;entryPerimeter=0;" edge="1" parent="1" source="eKRL8oK7qd-l2Jsr5qjg-69" target="eKRL8oK7qd-l2Jsr5qjg-65">
          <mxGeometry relative="1" as="geometry" />
        </mxCell>
        <mxCell id="eKRL8oK7qd-l2Jsr5qjg-69" value="VCOp32020117&lt;br&gt;000099&lt;br&gt;cmd open egg syr mix T flush water 90C" style="rounded=0;whiteSpace=wrap;html=1;fillColor=#d5e8d4;strokeColor=#82b366;" vertex="1" parent="1">
          <mxGeometry x="-345" y="1960" width="120" height="60" as="geometry" />
        </mxCell>
        <mxCell id="eKRL8oK7qd-l2Jsr5qjg-70" style="edgeStyle=orthogonalEdgeStyle;rounded=0;orthogonalLoop=1;jettySize=auto;html=1;entryX=0;entryY=0.5;entryDx=0;entryDy=0;" edge="1" parent="1" source="eKRL8oK7qd-l2Jsr5qjg-71" target="eKRL8oK7qd-l2Jsr5qjg-69">
          <mxGeometry relative="1" as="geometry" />
        </mxCell>
        <mxCell id="eKRL8oK7qd-l2Jsr5qjg-71" value="S1CP32020001&lt;br&gt;CIP Egg Mix T Step1" style="rounded=0;whiteSpace=wrap;html=1;fillColor=#d5e8d4;strokeColor=#82b366;" vertex="1" parent="1">
          <mxGeometry x="-515" y="1960" width="120" height="60" as="geometry" />
        </mxCell>
        <mxCell id="eKRL8oK7qd-l2Jsr5qjg-72" value="RES" style="edgeStyle=orthogonalEdgeStyle;rounded=0;orthogonalLoop=1;jettySize=auto;html=1;entryX=-0.081;entryY=0.798;entryDx=0;entryDy=0;entryPerimeter=0;exitX=1;exitY=0.5;exitDx=0;exitDy=0;" edge="1" parent="1" source="eKRL8oK7qd-l2Jsr5qjg-79" target="eKRL8oK7qd-l2Jsr5qjg-65">
          <mxGeometry x="0.3091" relative="1" as="geometry">
            <mxPoint x="-395" y="2100" as="sourcePoint" />
            <mxPoint as="offset" />
          </mxGeometry>
        </mxCell>
        <mxCell id="eKRL8oK7qd-l2Jsr5qjg-73" style="edgeStyle=orthogonalEdgeStyle;rounded=0;orthogonalLoop=1;jettySize=auto;html=1;entryX=0;entryY=0.5;entryDx=0;entryDy=0;" edge="1" parent="1" source="eKRL8oK7qd-l2Jsr5qjg-74" target="eKRL8oK7qd-l2Jsr5qjg-76">
          <mxGeometry relative="1" as="geometry" />
        </mxCell>
        <mxCell id="eKRL8oK7qd-l2Jsr5qjg-74" value="S1CP32020000&lt;br&gt;005503&lt;br&gt;CIP EGG STEP1" style="rounded=0;whiteSpace=wrap;html=1;fillColor=#f8cecc;strokeColor=#b85450;" vertex="1" parent="1">
          <mxGeometry x="-825" y="2070" width="120" height="60" as="geometry" />
        </mxCell>
        <mxCell id="eKRL8oK7qd-l2Jsr5qjg-75" style="edgeStyle=orthogonalEdgeStyle;rounded=0;orthogonalLoop=1;jettySize=auto;html=1;entryX=0;entryY=0.5;entryDx=0;entryDy=0;" edge="1" parent="1" source="eKRL8oK7qd-l2Jsr5qjg-76" target="eKRL8oK7qd-l2Jsr5qjg-78">
          <mxGeometry relative="1" as="geometry" />
        </mxCell>
        <mxCell id="eKRL8oK7qd-l2Jsr5qjg-76" value="S2CP32020000 005504&lt;br&gt;CIP EGG STEP2" style="rounded=0;whiteSpace=wrap;html=1;fillColor=#f8cecc;strokeColor=#b85450;" vertex="1" parent="1">
          <mxGeometry x="-665" y="2070" width="120" height="60" as="geometry" />
        </mxCell>
        <mxCell id="eKRL8oK7qd-l2Jsr5qjg-77" style="edgeStyle=orthogonalEdgeStyle;rounded=0;orthogonalLoop=1;jettySize=auto;html=1;entryX=0;entryY=0.5;entryDx=0;entryDy=0;" edge="1" parent="1" source="eKRL8oK7qd-l2Jsr5qjg-78" target="eKRL8oK7qd-l2Jsr5qjg-79">
          <mxGeometry relative="1" as="geometry" />
        </mxCell>
        <mxCell id="eKRL8oK7qd-l2Jsr5qjg-78" value="S3CP32020000 005505&lt;br&gt;CIP EGG STEP3" style="rounded=0;whiteSpace=wrap;html=1;fillColor=#f8cecc;strokeColor=#b85450;" vertex="1" parent="1">
          <mxGeometry x="-505" y="2070" width="120" height="60" as="geometry" />
        </mxCell>
        <mxCell id="eKRL8oK7qd-l2Jsr5qjg-79" value="S4CP32020000 005506&lt;br&gt;CIP EGG STEP4" style="rounded=0;whiteSpace=wrap;html=1;fillColor=#f8cecc;strokeColor=#b85450;" vertex="1" parent="1">
          <mxGeometry x="-345" y="2070" width="120" height="60" as="geometry" />
        </mxCell>
        <mxCell id="eKRL8oK7qd-l2Jsr5qjg-80" style="edgeStyle=orthogonalEdgeStyle;rounded=0;orthogonalLoop=1;jettySize=auto;html=1;entryX=0;entryY=0.5;entryDx=0;entryDy=0;" edge="1" parent="1" source="eKRL8oK7qd-l2Jsr5qjg-81" target="eKRL8oK7qd-l2Jsr5qjg-83">
          <mxGeometry relative="1" as="geometry" />
        </mxCell>
        <mxCell id="eKRL8oK7qd-l2Jsr5qjg-81" value="RS" style="rounded=0;whiteSpace=wrap;html=1;fillColor=#dae8fc;strokeColor=#6c8ebf;" vertex="1" parent="1">
          <mxGeometry x="-435" y="2180" width="50" height="180" as="geometry" />
        </mxCell>
        <mxCell id="eKRL8oK7qd-l2Jsr5qjg-82" style="edgeStyle=orthogonalEdgeStyle;rounded=0;orthogonalLoop=1;jettySize=auto;html=1;" edge="1" parent="1" source="eKRL8oK7qd-l2Jsr5qjg-83">
          <mxGeometry relative="1" as="geometry">
            <mxPoint x="-190" y="2100" as="targetPoint" />
          </mxGeometry>
        </mxCell>
        <mxCell id="eKRL8oK7qd-l2Jsr5qjg-83" value="S3CP32020001&lt;br&gt;005511&lt;br&gt;CIP Egg Mix T Step3" style="rounded=1;whiteSpace=wrap;html=1;fillColor=#d5e8d4;strokeColor=#82b366;" vertex="1" parent="1">
          <mxGeometry x="-345" y="2240" width="120" height="60" as="geometry" />
        </mxCell>
        <mxCell id="eKRL8oK7qd-l2Jsr5qjg-84" value="SET" style="edgeStyle=orthogonalEdgeStyle;rounded=0;orthogonalLoop=1;jettySize=auto;html=1;entryX=-0.022;entryY=0.164;entryDx=0;entryDy=0;entryPerimeter=0;" edge="1" parent="1" source="eKRL8oK7qd-l2Jsr5qjg-85" target="eKRL8oK7qd-l2Jsr5qjg-81">
          <mxGeometry relative="1" as="geometry" />
        </mxCell>
        <mxCell id="eKRL8oK7qd-l2Jsr5qjg-85" value="S2CP32020001&lt;br&gt;CIP Egg Mix T Step2" style="rounded=0;whiteSpace=wrap;html=1;fillColor=#d5e8d4;strokeColor=#82b366;" vertex="1" parent="1">
          <mxGeometry x="-645" y="2180" width="120" height="60" as="geometry" />
        </mxCell>
        <mxCell id="eKRL8oK7qd-l2Jsr5qjg-86" style="edgeStyle=orthogonalEdgeStyle;rounded=0;orthogonalLoop=1;jettySize=auto;html=1;entryX=0;entryY=0.5;entryDx=0;entryDy=0;" edge="1" parent="1" source="eKRL8oK7qd-l2Jsr5qjg-87" target="eKRL8oK7qd-l2Jsr5qjg-85">
          <mxGeometry relative="1" as="geometry" />
        </mxCell>
        <mxCell id="eKRL8oK7qd-l2Jsr5qjg-87" value="S2CP32020000 005504&lt;br&gt;CIP EGG STEP2" style="rounded=0;whiteSpace=wrap;html=1;fillColor=#d5e8d4;strokeColor=#82b366;" vertex="1" parent="1">
          <mxGeometry x="-815" y="2180" width="120" height="60" as="geometry" />
        </mxCell>
        <mxCell id="eKRL8oK7qd-l2Jsr5qjg-88" value="RES" style="edgeStyle=orthogonalEdgeStyle;rounded=0;orthogonalLoop=1;jettySize=auto;html=1;entryX=-0.081;entryY=0.798;entryDx=0;entryDy=0;entryPerimeter=0;exitX=1;exitY=0.5;exitDx=0;exitDy=0;" edge="1" parent="1" source="eKRL8oK7qd-l2Jsr5qjg-95" target="eKRL8oK7qd-l2Jsr5qjg-81">
          <mxGeometry x="0.6973" relative="1" as="geometry">
            <mxPoint x="-695" y="2320" as="sourcePoint" />
            <Array as="points">
              <mxPoint x="-600" y="2324" />
            </Array>
            <mxPoint x="-1" as="offset" />
          </mxGeometry>
        </mxCell>
        <mxCell id="eKRL8oK7qd-l2Jsr5qjg-89" style="edgeStyle=orthogonalEdgeStyle;rounded=0;orthogonalLoop=1;jettySize=auto;html=1;entryX=0;entryY=0.5;entryDx=0;entryDy=0;" edge="1" parent="1" source="eKRL8oK7qd-l2Jsr5qjg-90" target="eKRL8oK7qd-l2Jsr5qjg-92">
          <mxGeometry relative="1" as="geometry" />
        </mxCell>
        <mxCell id="eKRL8oK7qd-l2Jsr5qjg-90" value="S1CP32020000&lt;br&gt;005503&lt;br&gt;CIP EGG STEP1" style="rounded=0;whiteSpace=wrap;html=1;fillColor=#f8cecc;strokeColor=#b85450;" vertex="1" parent="1">
          <mxGeometry x="-1160" y="2290" width="120" height="60" as="geometry" />
        </mxCell>
        <mxCell id="eKRL8oK7qd-l2Jsr5qjg-91" style="edgeStyle=orthogonalEdgeStyle;rounded=0;orthogonalLoop=1;jettySize=auto;html=1;entryX=0;entryY=0.5;entryDx=0;entryDy=0;" edge="1" parent="1" source="eKRL8oK7qd-l2Jsr5qjg-92" target="eKRL8oK7qd-l2Jsr5qjg-94">
          <mxGeometry relative="1" as="geometry" />
        </mxCell>
        <mxCell id="eKRL8oK7qd-l2Jsr5qjg-92" value="S2CP32020000 005504&lt;br&gt;CIP EGG STEP2" style="rounded=0;whiteSpace=wrap;html=1;fillColor=#f8cecc;strokeColor=#b85450;" vertex="1" parent="1">
          <mxGeometry x="-1000" y="2290" width="120" height="60" as="geometry" />
        </mxCell>
        <mxCell id="eKRL8oK7qd-l2Jsr5qjg-93" style="edgeStyle=orthogonalEdgeStyle;rounded=0;orthogonalLoop=1;jettySize=auto;html=1;entryX=0;entryY=0.5;entryDx=0;entryDy=0;" edge="1" parent="1" source="eKRL8oK7qd-l2Jsr5qjg-94" target="eKRL8oK7qd-l2Jsr5qjg-95">
          <mxGeometry relative="1" as="geometry" />
        </mxCell>
        <mxCell id="eKRL8oK7qd-l2Jsr5qjg-94" value="S3CP32020000 005505&lt;br&gt;CIP EGG STEP3" style="rounded=0;whiteSpace=wrap;html=1;fillColor=#f8cecc;strokeColor=#b85450;" vertex="1" parent="1">
          <mxGeometry x="-840" y="2290" width="120" height="60" as="geometry" />
        </mxCell>
        <mxCell id="eKRL8oK7qd-l2Jsr5qjg-95" value="S4CP32020000 005506&lt;br&gt;CIP EGG STEP4" style="rounded=0;whiteSpace=wrap;html=1;fillColor=#f8cecc;strokeColor=#b85450;" vertex="1" parent="1">
          <mxGeometry x="-680" y="2290" width="120" height="60" as="geometry" />
        </mxCell>
        <mxCell id="eKRL8oK7qd-l2Jsr5qjg-96" style="edgeStyle=orthogonalEdgeStyle;rounded=0;orthogonalLoop=1;jettySize=auto;html=1;entryX=0;entryY=0.5;entryDx=0;entryDy=0;" edge="1" parent="1" source="eKRL8oK7qd-l2Jsr5qjg-97" target="eKRL8oK7qd-l2Jsr5qjg-87">
          <mxGeometry relative="1" as="geometry" />
        </mxCell>
        <mxCell id="eKRL8oK7qd-l2Jsr5qjg-97" value="GE_INT&lt;br&gt;&lt;br&gt;1 IF IN1&amp;gt;=IN2" style="rounded=0;whiteSpace=wrap;html=1;fillColor=#dae8fc;strokeColor=#6c8ebf;" vertex="1" parent="1">
          <mxGeometry x="-980" y="2161" width="110" height="98" as="geometry" />
        </mxCell>
        <mxCell id="eKRL8oK7qd-l2Jsr5qjg-98" value="IN1" style="edgeStyle=orthogonalEdgeStyle;rounded=0;orthogonalLoop=1;jettySize=auto;html=1;entryX=0.001;entryY=0.087;entryDx=0;entryDy=0;entryPerimeter=0;" edge="1" parent="1" source="eKRL8oK7qd-l2Jsr5qjg-99" target="eKRL8oK7qd-l2Jsr5qjg-97">
          <mxGeometry relative="1" as="geometry" />
        </mxCell>
        <mxCell id="eKRL8oK7qd-l2Jsr5qjg-99" value="WEPm32020106&lt;br&gt;400610&lt;br&gt;Mixing tank weight" style="rounded=0;whiteSpace=wrap;html=1;fillColor=#d5e8d4;strokeColor=#82b366;" vertex="1" parent="1">
          <mxGeometry x="-1160" y="2140" width="120" height="60" as="geometry" />
        </mxCell>
        <mxCell id="eKRL8oK7qd-l2Jsr5qjg-100" value="IN2" style="edgeStyle=orthogonalEdgeStyle;rounded=0;orthogonalLoop=1;jettySize=auto;html=1;entryX=0.001;entryY=0.855;entryDx=0;entryDy=0;entryPerimeter=0;" edge="1" parent="1" source="eKRL8oK7qd-l2Jsr5qjg-101" target="eKRL8oK7qd-l2Jsr5qjg-97">
          <mxGeometry relative="1" as="geometry" />
        </mxCell>
        <mxCell id="eKRL8oK7qd-l2Jsr5qjg-101" value="S2LSP32020005 x 0.7&lt;br&gt;CIP egg syr Step2: Filling level SP" style="rounded=0;whiteSpace=wrap;html=1;fillColor=#dae8fc;strokeColor=#6c8ebf;" vertex="1" parent="1">
          <mxGeometry x="-1170" y="2210" width="140" height="69" as="geometry" />
        </mxCell>
        <mxCell id="eKRL8oK7qd-l2Jsr5qjg-102" style="edgeStyle=orthogonalEdgeStyle;rounded=0;orthogonalLoop=1;jettySize=auto;html=1;entryX=0;entryY=0.5;entryDx=0;entryDy=0;" edge="1" parent="1" source="eKRL8oK7qd-l2Jsr5qjg-103" target="eKRL8oK7qd-l2Jsr5qjg-105">
          <mxGeometry relative="1" as="geometry" />
        </mxCell>
        <mxCell id="eKRL8oK7qd-l2Jsr5qjg-103" value="RS" style="rounded=0;whiteSpace=wrap;html=1;fillColor=#dae8fc;strokeColor=#6c8ebf;" vertex="1" parent="1">
          <mxGeometry x="-740" y="2400" width="50" height="180" as="geometry" />
        </mxCell>
        <mxCell id="eKRL8oK7qd-l2Jsr5qjg-104" style="edgeStyle=orthogonalEdgeStyle;rounded=0;orthogonalLoop=1;jettySize=auto;html=1;" edge="1" parent="1" source="eKRL8oK7qd-l2Jsr5qjg-105">
          <mxGeometry relative="1" as="geometry">
            <mxPoint x="-510" y="2320" as="targetPoint" />
          </mxGeometry>
        </mxCell>
        <mxCell id="eKRL8oK7qd-l2Jsr5qjg-105" value="S4CP32020001&lt;br&gt;CIP Egg Mix T Step4" style="rounded=1;whiteSpace=wrap;html=1;fillColor=#d5e8d4;strokeColor=#82b366;" vertex="1" parent="1">
          <mxGeometry x="-650" y="2460" width="120" height="60" as="geometry" />
        </mxCell>
        <mxCell id="eKRL8oK7qd-l2Jsr5qjg-106" value="SET" style="edgeStyle=orthogonalEdgeStyle;rounded=0;orthogonalLoop=1;jettySize=auto;html=1;entryX=-0.022;entryY=0.164;entryDx=0;entryDy=0;entryPerimeter=0;" edge="1" parent="1" source="eKRL8oK7qd-l2Jsr5qjg-107" target="eKRL8oK7qd-l2Jsr5qjg-103">
          <mxGeometry relative="1" as="geometry" />
        </mxCell>
        <mxCell id="eKRL8oK7qd-l2Jsr5qjg-107" value="ChSCP32020002&lt;br&gt;CIP egg syr mix T Step3: Alkali was dosed" style="rounded=0;whiteSpace=wrap;html=1;fillColor=#d5e8d4;strokeColor=#82b366;" vertex="1" parent="1">
          <mxGeometry x="-950" y="2400" width="120" height="60" as="geometry" />
        </mxCell>
        <mxCell id="eKRL8oK7qd-l2Jsr5qjg-108" value="RES" style="edgeStyle=orthogonalEdgeStyle;rounded=0;orthogonalLoop=1;jettySize=auto;html=1;entryX=-0.081;entryY=0.798;entryDx=0;entryDy=0;entryPerimeter=0;exitX=1;exitY=0.5;exitDx=0;exitDy=0;" edge="1" parent="1" source="eKRL8oK7qd-l2Jsr5qjg-109" target="eKRL8oK7qd-l2Jsr5qjg-103">
          <mxGeometry x="0.6973" relative="1" as="geometry">
            <mxPoint x="-1000" y="2540" as="sourcePoint" />
            <Array as="points">
              <mxPoint x="-905" y="2544" />
            </Array>
            <mxPoint x="-1" as="offset" />
          </mxGeometry>
        </mxCell>
        <mxCell id="eKRL8oK7qd-l2Jsr5qjg-109" value="S4CP32020000 005506&lt;br&gt;CIP EGG STEP4" style="rounded=0;whiteSpace=wrap;html=1;fillColor=#f8cecc;strokeColor=#b85450;" vertex="1" parent="1">
          <mxGeometry x="-985" y="2510" width="120" height="60" as="geometry" />
        </mxCell>
        <mxCell id="eKRL8oK7qd-l2Jsr5qjg-110" style="edgeStyle=orthogonalEdgeStyle;rounded=0;orthogonalLoop=1;jettySize=auto;html=1;entryX=0;entryY=0.5;entryDx=0;entryDy=0;" edge="1" parent="1" source="eKRL8oK7qd-l2Jsr5qjg-111" target="eKRL8oK7qd-l2Jsr5qjg-107">
          <mxGeometry relative="1" as="geometry" />
        </mxCell>
        <mxCell id="eKRL8oK7qd-l2Jsr5qjg-111" value="S3CP32020001&lt;br&gt;005511&lt;br&gt;CIP Egg Mix T Step3" style="rounded=0;whiteSpace=wrap;html=1;fillColor=#d5e8d4;strokeColor=#82b366;" vertex="1" parent="1">
          <mxGeometry x="-1120" y="2400" width="120" height="60" as="geometry" />
        </mxCell>
        <mxCell id="eKRL8oK7qd-l2Jsr5qjg-112" style="edgeStyle=orthogonalEdgeStyle;rounded=0;orthogonalLoop=1;jettySize=auto;html=1;" edge="1" parent="1" source="eKRL8oK7qd-l2Jsr5qjg-113" target="eKRL8oK7qd-l2Jsr5qjg-111">
          <mxGeometry relative="1" as="geometry" />
        </mxCell>
        <mxCell id="eKRL8oK7qd-l2Jsr5qjg-113" value="S2CP32020000 005504&lt;br&gt;CIP EGG STEP2" style="rounded=0;whiteSpace=wrap;html=1;fillColor=#d5e8d4;strokeColor=#82b366;" vertex="1" parent="1">
          <mxGeometry x="-1290" y="2400" width="120" height="60" as="geometry" />
        </mxCell>
        <mxCell id="eKRL8oK7qd-l2Jsr5qjg-114" style="edgeStyle=orthogonalEdgeStyle;rounded=0;orthogonalLoop=1;jettySize=auto;html=1;entryX=0;entryY=0.5;entryDx=0;entryDy=0;" edge="1" parent="1" source="eKRL8oK7qd-l2Jsr5qjg-115" target="eKRL8oK7qd-l2Jsr5qjg-117">
          <mxGeometry relative="1" as="geometry" />
        </mxCell>
        <mxCell id="eKRL8oK7qd-l2Jsr5qjg-115" value="S1CP32020000&lt;br&gt;005503&lt;br&gt;CIP EGG STEP1" style="rounded=0;whiteSpace=wrap;html=1;fillColor=#f8cecc;strokeColor=#b85450;" vertex="1" parent="1">
          <mxGeometry x="-1460" y="2510" width="120" height="60" as="geometry" />
        </mxCell>
        <mxCell id="eKRL8oK7qd-l2Jsr5qjg-116" style="edgeStyle=orthogonalEdgeStyle;rounded=0;orthogonalLoop=1;jettySize=auto;html=1;entryX=0;entryY=0.5;entryDx=0;entryDy=0;" edge="1" parent="1" source="eKRL8oK7qd-l2Jsr5qjg-117" target="eKRL8oK7qd-l2Jsr5qjg-119">
          <mxGeometry relative="1" as="geometry" />
        </mxCell>
        <mxCell id="eKRL8oK7qd-l2Jsr5qjg-117" value="S2CP32020000 005504&lt;br&gt;CIP EGG STEP2" style="rounded=0;whiteSpace=wrap;html=1;fillColor=#f8cecc;strokeColor=#b85450;" vertex="1" parent="1">
          <mxGeometry x="-1300" y="2510" width="120" height="60" as="geometry" />
        </mxCell>
        <mxCell id="eKRL8oK7qd-l2Jsr5qjg-118" style="edgeStyle=orthogonalEdgeStyle;rounded=0;orthogonalLoop=1;jettySize=auto;html=1;" edge="1" parent="1" source="eKRL8oK7qd-l2Jsr5qjg-119" target="eKRL8oK7qd-l2Jsr5qjg-109">
          <mxGeometry relative="1" as="geometry" />
        </mxCell>
        <mxCell id="eKRL8oK7qd-l2Jsr5qjg-119" value="S3CP32020000 005505&lt;br&gt;CIP EGG STEP3" style="rounded=0;whiteSpace=wrap;html=1;fillColor=#f8cecc;strokeColor=#b85450;" vertex="1" parent="1">
          <mxGeometry x="-1140" y="2510" width="120" height="60" as="geometry" />
        </mxCell>
        <mxCell id="eKRL8oK7qd-l2Jsr5qjg-120" style="edgeStyle=orthogonalEdgeStyle;rounded=0;orthogonalLoop=1;jettySize=auto;html=1;entryX=0;entryY=0.5;entryDx=0;entryDy=0;" edge="1" parent="1" source="eKRL8oK7qd-l2Jsr5qjg-121" target="eKRL8oK7qd-l2Jsr5qjg-124">
          <mxGeometry relative="1" as="geometry" />
        </mxCell>
        <mxCell id="eKRL8oK7qd-l2Jsr5qjg-121" value="RS" style="rounded=0;whiteSpace=wrap;html=1;fillColor=#dae8fc;strokeColor=#6c8ebf;" vertex="1" parent="1">
          <mxGeometry x="-1075" y="2650" width="50" height="180" as="geometry" />
        </mxCell>
        <mxCell id="eKRL8oK7qd-l2Jsr5qjg-122" value="AND" style="edgeStyle=orthogonalEdgeStyle;rounded=0;orthogonalLoop=1;jettySize=auto;html=1;entryX=0.5;entryY=1;entryDx=0;entryDy=0;exitX=1;exitY=0.5;exitDx=0;exitDy=0;" edge="1" parent="1" source="eKRL8oK7qd-l2Jsr5qjg-124" target="eKRL8oK7qd-l2Jsr5qjg-130">
          <mxGeometry x="0.2731" relative="1" as="geometry">
            <mxPoint y="1" as="offset" />
          </mxGeometry>
        </mxCell>
        <mxCell id="eKRL8oK7qd-l2Jsr5qjg-123" value="AND" style="edgeStyle=orthogonalEdgeStyle;rounded=0;orthogonalLoop=1;jettySize=auto;html=1;entryX=0;entryY=0.5;entryDx=0;entryDy=0;" edge="1" parent="1" source="eKRL8oK7qd-l2Jsr5qjg-124" target="eKRL8oK7qd-l2Jsr5qjg-132">
          <mxGeometry relative="1" as="geometry" />
        </mxCell>
        <mxCell id="eKRL8oK7qd-l2Jsr5qjg-124" value="S5CP32020001&lt;br&gt;CIP Egg Mix T Step5" style="rounded=1;whiteSpace=wrap;html=1;fillColor=#d5e8d4;strokeColor=#82b366;" vertex="1" parent="1">
          <mxGeometry x="-985" y="2710" width="120" height="60" as="geometry" />
        </mxCell>
        <mxCell id="eKRL8oK7qd-l2Jsr5qjg-125" value="SET" style="edgeStyle=orthogonalEdgeStyle;rounded=0;orthogonalLoop=1;jettySize=auto;html=1;entryX=-0.022;entryY=0.164;entryDx=0;entryDy=0;entryPerimeter=0;" edge="1" parent="1" source="eKRL8oK7qd-l2Jsr5qjg-126" target="eKRL8oK7qd-l2Jsr5qjg-121">
          <mxGeometry x="0.5119" relative="1" as="geometry">
            <mxPoint as="offset" />
          </mxGeometry>
        </mxCell>
        <mxCell id="eKRL8oK7qd-l2Jsr5qjg-126" value="S2CP32020001&lt;br&gt;CIP Egg Mix T Step2" style="rounded=0;whiteSpace=wrap;html=1;fillColor=#d5e8d4;strokeColor=#82b366;" vertex="1" parent="1">
          <mxGeometry x="-1335" y="2649.5" width="120" height="60" as="geometry" />
        </mxCell>
        <mxCell id="eKRL8oK7qd-l2Jsr5qjg-127" style="edgeStyle=orthogonalEdgeStyle;rounded=0;orthogonalLoop=1;jettySize=auto;html=1;entryX=0;entryY=0.5;entryDx=0;entryDy=0;" edge="1" parent="1" source="eKRL8oK7qd-l2Jsr5qjg-128" target="eKRL8oK7qd-l2Jsr5qjg-126">
          <mxGeometry relative="1" as="geometry" />
        </mxCell>
        <mxCell id="eKRL8oK7qd-l2Jsr5qjg-128" value="S1CP32020000&lt;br&gt;005503&lt;br&gt;CIP EGG STEP1" style="rounded=0;whiteSpace=wrap;html=1;fillColor=#d5e8d4;strokeColor=#82b366;" vertex="1" parent="1">
          <mxGeometry x="-1505" y="2649.5" width="120" height="60" as="geometry" />
        </mxCell>
        <mxCell id="eKRL8oK7qd-l2Jsr5qjg-129" style="edgeStyle=orthogonalEdgeStyle;rounded=0;orthogonalLoop=1;jettySize=auto;html=1;" edge="1" parent="1" source="eKRL8oK7qd-l2Jsr5qjg-130">
          <mxGeometry relative="1" as="geometry">
            <mxPoint x="-825" y="2540" as="targetPoint" />
          </mxGeometry>
        </mxCell>
        <mxCell id="eKRL8oK7qd-l2Jsr5qjg-130" value="S4CP32020001&lt;br&gt;CIP Egg Mix T Step4" style="rounded=0;whiteSpace=wrap;html=1;fillColor=#d5e8d4;strokeColor=#82b366;" vertex="1" parent="1">
          <mxGeometry x="-885" y="2610" width="120" height="60" as="geometry" />
        </mxCell>
        <mxCell id="eKRL8oK7qd-l2Jsr5qjg-131" style="edgeStyle=orthogonalEdgeStyle;rounded=0;orthogonalLoop=1;jettySize=auto;html=1;" edge="1" parent="1" source="eKRL8oK7qd-l2Jsr5qjg-132">
          <mxGeometry relative="1" as="geometry">
            <mxPoint x="-190" y="2100" as="targetPoint" />
          </mxGeometry>
        </mxCell>
        <mxCell id="eKRL8oK7qd-l2Jsr5qjg-132" value="S2CP32020001&lt;br&gt;CIP Egg Mix T Step2" style="rounded=0;whiteSpace=wrap;html=1;fillColor=#d5e8d4;strokeColor=#82b366;" vertex="1" parent="1">
          <mxGeometry x="-650" y="2710" width="120" height="60" as="geometry" />
        </mxCell>
        <mxCell id="eKRL8oK7qd-l2Jsr5qjg-133" style="edgeStyle=orthogonalEdgeStyle;rounded=0;orthogonalLoop=1;jettySize=auto;html=1;entryX=0;entryY=0.5;entryDx=0;entryDy=0;" edge="1" parent="1" source="eKRL8oK7qd-l2Jsr5qjg-134" target="eKRL8oK7qd-l2Jsr5qjg-128">
          <mxGeometry relative="1" as="geometry" />
        </mxCell>
        <mxCell id="eKRL8oK7qd-l2Jsr5qjg-134" value="GE_INT&lt;br&gt;&lt;br&gt;1 IF IN1&amp;gt;=IN2" style="rounded=0;whiteSpace=wrap;html=1;fillColor=#dae8fc;strokeColor=#6c8ebf;" vertex="1" parent="1">
          <mxGeometry x="-1670" y="2631" width="110" height="98" as="geometry" />
        </mxCell>
        <mxCell id="eKRL8oK7qd-l2Jsr5qjg-135" value="IN1" style="edgeStyle=orthogonalEdgeStyle;rounded=0;orthogonalLoop=1;jettySize=auto;html=1;entryX=0.001;entryY=0.087;entryDx=0;entryDy=0;entryPerimeter=0;" edge="1" parent="1" source="eKRL8oK7qd-l2Jsr5qjg-136" target="eKRL8oK7qd-l2Jsr5qjg-134">
          <mxGeometry relative="1" as="geometry" />
        </mxCell>
        <mxCell id="eKRL8oK7qd-l2Jsr5qjg-136" value="WEPm32020106&lt;br&gt;400610&lt;br&gt;Mixing tank weight" style="rounded=0;whiteSpace=wrap;html=1;fillColor=#d5e8d4;strokeColor=#82b366;" vertex="1" parent="1">
          <mxGeometry x="-1850" y="2610" width="120" height="60" as="geometry" />
        </mxCell>
        <mxCell id="eKRL8oK7qd-l2Jsr5qjg-137" value="IN2" style="edgeStyle=orthogonalEdgeStyle;rounded=0;orthogonalLoop=1;jettySize=auto;html=1;entryX=-0.027;entryY=0.821;entryDx=0;entryDy=0;entryPerimeter=0;" edge="1" parent="1" source="eKRL8oK7qd-l2Jsr5qjg-138" target="eKRL8oK7qd-l2Jsr5qjg-134">
          <mxGeometry relative="1" as="geometry" />
        </mxCell>
        <mxCell id="eKRL8oK7qd-l2Jsr5qjg-138" value="S2LSP32020001&lt;br&gt;404512&lt;br&gt;CIP egg syr mix T Step2: Filling level SP" style="rounded=0;whiteSpace=wrap;html=1;fillColor=#d5e8d4;strokeColor=#82b366;" vertex="1" parent="1">
          <mxGeometry x="-1850" y="2679.5" width="120" height="59.5" as="geometry" />
        </mxCell>
        <mxCell id="eKRL8oK7qd-l2Jsr5qjg-139" style="edgeStyle=orthogonalEdgeStyle;rounded=0;orthogonalLoop=1;jettySize=auto;html=1;" edge="1" parent="1" source="eKRL8oK7qd-l2Jsr5qjg-140">
          <mxGeometry relative="1" as="geometry">
            <mxPoint x="-1160" y="2680" as="targetPoint" />
          </mxGeometry>
        </mxCell>
        <mxCell id="eKRL8oK7qd-l2Jsr5qjg-140" value="S2CP32020001&lt;br&gt;CIP Egg Mix T Step2" style="rounded=0;whiteSpace=wrap;html=1;fillColor=#d5e8d4;strokeColor=#82b366;" vertex="1" parent="1">
          <mxGeometry x="-1335" y="2799.5" width="120" height="60" as="geometry" />
        </mxCell>
        <mxCell id="eKRL8oK7qd-l2Jsr5qjg-141" style="edgeStyle=orthogonalEdgeStyle;rounded=0;orthogonalLoop=1;jettySize=auto;html=1;entryX=0;entryY=0.5;entryDx=0;entryDy=0;" edge="1" parent="1" source="eKRL8oK7qd-l2Jsr5qjg-142" target="eKRL8oK7qd-l2Jsr5qjg-140">
          <mxGeometry relative="1" as="geometry" />
        </mxCell>
        <mxCell id="eKRL8oK7qd-l2Jsr5qjg-142" value="S3CP32020000 005505&lt;br&gt;CIP EGG STEP3" style="rounded=0;whiteSpace=wrap;html=1;fillColor=#d5e8d4;strokeColor=#82b366;" vertex="1" parent="1">
          <mxGeometry x="-1505" y="2799.5" width="120" height="60" as="geometry" />
        </mxCell>
        <mxCell id="eKRL8oK7qd-l2Jsr5qjg-143" style="edgeStyle=orthogonalEdgeStyle;rounded=0;orthogonalLoop=1;jettySize=auto;html=1;entryX=0;entryY=0.5;entryDx=0;entryDy=0;" edge="1" parent="1" source="eKRL8oK7qd-l2Jsr5qjg-144" target="eKRL8oK7qd-l2Jsr5qjg-142">
          <mxGeometry relative="1" as="geometry" />
        </mxCell>
        <mxCell id="eKRL8oK7qd-l2Jsr5qjg-144" value="GE_INT&lt;br&gt;&lt;br&gt;1 IF IN1&amp;gt;=IN2" style="rounded=0;whiteSpace=wrap;html=1;fillColor=#dae8fc;strokeColor=#6c8ebf;" vertex="1" parent="1">
          <mxGeometry x="-1670" y="2781" width="110" height="98" as="geometry" />
        </mxCell>
        <mxCell id="eKRL8oK7qd-l2Jsr5qjg-145" value="IN1" style="edgeStyle=orthogonalEdgeStyle;rounded=0;orthogonalLoop=1;jettySize=auto;html=1;entryX=0.001;entryY=0.087;entryDx=0;entryDy=0;entryPerimeter=0;" edge="1" parent="1" source="eKRL8oK7qd-l2Jsr5qjg-146" target="eKRL8oK7qd-l2Jsr5qjg-144">
          <mxGeometry relative="1" as="geometry" />
        </mxCell>
        <mxCell id="eKRL8oK7qd-l2Jsr5qjg-146" value="WEPm32020106&lt;br&gt;400610&lt;br&gt;Mixing tank weight" style="rounded=0;whiteSpace=wrap;html=1;fillColor=#d5e8d4;strokeColor=#82b366;" vertex="1" parent="1">
          <mxGeometry x="-1850" y="2760" width="120" height="60" as="geometry" />
        </mxCell>
        <mxCell id="eKRL8oK7qd-l2Jsr5qjg-147" value="IN2" style="edgeStyle=orthogonalEdgeStyle;rounded=0;orthogonalLoop=1;jettySize=auto;html=1;entryX=-0.027;entryY=0.821;entryDx=0;entryDy=0;entryPerimeter=0;" edge="1" parent="1" source="eKRL8oK7qd-l2Jsr5qjg-148" target="eKRL8oK7qd-l2Jsr5qjg-144">
          <mxGeometry relative="1" as="geometry" />
        </mxCell>
        <mxCell id="eKRL8oK7qd-l2Jsr5qjg-148" value="S2LSP32020003&lt;br&gt;404515&lt;br&gt;CIP egg syr mix T Step2: Filling level SP" style="rounded=0;whiteSpace=wrap;html=1;fillColor=#d5e8d4;strokeColor=#82b366;" vertex="1" parent="1">
          <mxGeometry x="-1850" y="2829.5" width="120" height="59.5" as="geometry" />
        </mxCell>
        <mxCell id="eKRL8oK7qd-l2Jsr5qjg-149" style="edgeStyle=orthogonalEdgeStyle;rounded=0;orthogonalLoop=1;jettySize=auto;html=1;" edge="1" parent="1" source="eKRL8oK7qd-l2Jsr5qjg-150">
          <mxGeometry relative="1" as="geometry">
            <mxPoint x="-1160" y="2680" as="targetPoint" />
          </mxGeometry>
        </mxCell>
        <mxCell id="eKRL8oK7qd-l2Jsr5qjg-150" value="S2CP32020001&lt;br&gt;CIP Egg Mix T Step2" style="rounded=0;whiteSpace=wrap;html=1;fillColor=#d5e8d4;strokeColor=#82b366;" vertex="1" parent="1">
          <mxGeometry x="-1335" y="2949.5" width="120" height="60" as="geometry" />
        </mxCell>
        <mxCell id="eKRL8oK7qd-l2Jsr5qjg-151" style="edgeStyle=orthogonalEdgeStyle;rounded=0;orthogonalLoop=1;jettySize=auto;html=1;entryX=0;entryY=0.5;entryDx=0;entryDy=0;" edge="1" parent="1" source="eKRL8oK7qd-l2Jsr5qjg-152" target="eKRL8oK7qd-l2Jsr5qjg-150">
          <mxGeometry relative="1" as="geometry" />
        </mxCell>
        <mxCell id="eKRL8oK7qd-l2Jsr5qjg-152" value="S4CP32020000 005506&lt;br&gt;CIP EGG STEP4" style="rounded=0;whiteSpace=wrap;html=1;fillColor=#d5e8d4;strokeColor=#82b366;" vertex="1" parent="1">
          <mxGeometry x="-1505" y="2949.5" width="120" height="60" as="geometry" />
        </mxCell>
        <mxCell id="eKRL8oK7qd-l2Jsr5qjg-153" style="edgeStyle=orthogonalEdgeStyle;rounded=0;orthogonalLoop=1;jettySize=auto;html=1;entryX=0;entryY=0.5;entryDx=0;entryDy=0;" edge="1" parent="1" source="eKRL8oK7qd-l2Jsr5qjg-154" target="eKRL8oK7qd-l2Jsr5qjg-152">
          <mxGeometry relative="1" as="geometry" />
        </mxCell>
        <mxCell id="eKRL8oK7qd-l2Jsr5qjg-154" value="GE_INT&lt;br&gt;&lt;br&gt;1 IF IN1&amp;gt;=IN2" style="rounded=0;whiteSpace=wrap;html=1;fillColor=#dae8fc;strokeColor=#6c8ebf;" vertex="1" parent="1">
          <mxGeometry x="-1670" y="2931" width="110" height="98" as="geometry" />
        </mxCell>
        <mxCell id="eKRL8oK7qd-l2Jsr5qjg-155" value="IN1" style="edgeStyle=orthogonalEdgeStyle;rounded=0;orthogonalLoop=1;jettySize=auto;html=1;entryX=0.001;entryY=0.087;entryDx=0;entryDy=0;entryPerimeter=0;" edge="1" parent="1" source="eKRL8oK7qd-l2Jsr5qjg-156" target="eKRL8oK7qd-l2Jsr5qjg-154">
          <mxGeometry relative="1" as="geometry" />
        </mxCell>
        <mxCell id="eKRL8oK7qd-l2Jsr5qjg-156" value="WEPm32020106&lt;br&gt;400610&lt;br&gt;Mixing tank weight" style="rounded=0;whiteSpace=wrap;html=1;fillColor=#d5e8d4;strokeColor=#82b366;" vertex="1" parent="1">
          <mxGeometry x="-1850" y="2910" width="120" height="60" as="geometry" />
        </mxCell>
        <mxCell id="eKRL8oK7qd-l2Jsr5qjg-157" value="IN2" style="edgeStyle=orthogonalEdgeStyle;rounded=0;orthogonalLoop=1;jettySize=auto;html=1;entryX=-0.027;entryY=0.821;entryDx=0;entryDy=0;entryPerimeter=0;" edge="1" parent="1" source="eKRL8oK7qd-l2Jsr5qjg-158" target="eKRL8oK7qd-l2Jsr5qjg-154">
          <mxGeometry relative="1" as="geometry" />
        </mxCell>
        <mxCell id="eKRL8oK7qd-l2Jsr5qjg-158" value="S2LSP32020004&lt;br&gt;404516&lt;br&gt;CIP egg syr mix T Step2: Filling level SP" style="rounded=0;whiteSpace=wrap;html=1;fillColor=#d5e8d4;strokeColor=#82b366;" vertex="1" parent="1">
          <mxGeometry x="-1850" y="2979.5" width="120" height="59.5" as="geometry" />
        </mxCell>
        <mxCell id="eKRL8oK7qd-l2Jsr5qjg-159" style="edgeStyle=orthogonalEdgeStyle;rounded=0;orthogonalLoop=1;jettySize=auto;html=1;" edge="1" parent="1" source="eKRL8oK7qd-l2Jsr5qjg-160">
          <mxGeometry relative="1" as="geometry">
            <mxPoint x="-1160" y="2680" as="targetPoint" />
          </mxGeometry>
        </mxCell>
        <mxCell id="eKRL8oK7qd-l2Jsr5qjg-160" value="S4CP32020001&lt;br&gt;CIP Egg Mix T Step4" style="rounded=0;whiteSpace=wrap;html=1;fillColor=#d5e8d4;strokeColor=#82b366;" vertex="1" parent="1">
          <mxGeometry x="-1335" y="3159" width="120" height="60" as="geometry" />
        </mxCell>
        <mxCell id="eKRL8oK7qd-l2Jsr5qjg-161" style="edgeStyle=orthogonalEdgeStyle;rounded=0;orthogonalLoop=1;jettySize=auto;html=1;entryX=0;entryY=0.5;entryDx=0;entryDy=0;" edge="1" parent="1" source="eKRL8oK7qd-l2Jsr5qjg-162" target="eKRL8oK7qd-l2Jsr5qjg-160">
          <mxGeometry relative="1" as="geometry" />
        </mxCell>
        <mxCell id="eKRL8oK7qd-l2Jsr5qjg-162" value="S2CP32020000 005504&lt;br&gt;CIP EGG STEP2" style="rounded=0;whiteSpace=wrap;html=1;fillColor=#d5e8d4;strokeColor=#82b366;" vertex="1" parent="1">
          <mxGeometry x="-1505" y="3159" width="120" height="60" as="geometry" />
        </mxCell>
        <mxCell id="eKRL8oK7qd-l2Jsr5qjg-163" value="IN2" style="edgeStyle=orthogonalEdgeStyle;rounded=0;orthogonalLoop=1;jettySize=auto;html=1;entryX=-0.007;entryY=0.914;entryDx=0;entryDy=0;entryPerimeter=0;" edge="1" parent="1" source="eKRL8oK7qd-l2Jsr5qjg-164" target="eKRL8oK7qd-l2Jsr5qjg-170">
          <mxGeometry relative="1" as="geometry" />
        </mxCell>
        <mxCell id="eKRL8oK7qd-l2Jsr5qjg-164" value="S2LSP32020005 X 0.7&lt;br&gt;CIP Egg Syr Step 2: Filling level SP" style="rounded=0;whiteSpace=wrap;html=1;fillColor=#dae8fc;strokeColor=#6c8ebf;" vertex="1" parent="1">
          <mxGeometry x="-2397.5" y="3119" width="204" height="60" as="geometry" />
        </mxCell>
        <mxCell id="eKRL8oK7qd-l2Jsr5qjg-165" value="IN2" style="edgeStyle=orthogonalEdgeStyle;rounded=0;orthogonalLoop=1;jettySize=auto;html=1;entryX=0;entryY=0.75;entryDx=0;entryDy=0;" edge="1" parent="1" source="eKRL8oK7qd-l2Jsr5qjg-166" target="eKRL8oK7qd-l2Jsr5qjg-174">
          <mxGeometry x="0.7007" relative="1" as="geometry">
            <mxPoint as="offset" />
          </mxGeometry>
        </mxCell>
        <mxCell id="eKRL8oK7qd-l2Jsr5qjg-166" value="S3LSP32020003 X 1.54&lt;br&gt;CIP Egg Syr Mix T Step 3: Alkali volume for C32BSTW2" style="rounded=0;whiteSpace=wrap;html=1;fillColor=#dae8fc;strokeColor=#6c8ebf;" vertex="1" parent="1">
          <mxGeometry x="-2232.5" y="3219" width="204" height="60" as="geometry" />
        </mxCell>
        <mxCell id="eKRL8oK7qd-l2Jsr5qjg-167" value="IN2" style="edgeStyle=orthogonalEdgeStyle;rounded=0;orthogonalLoop=1;jettySize=auto;html=1;entryX=0;entryY=0.75;entryDx=0;entryDy=0;" edge="1" parent="1" source="eKRL8oK7qd-l2Jsr5qjg-168" target="eKRL8oK7qd-l2Jsr5qjg-176">
          <mxGeometry x="0.7326" relative="1" as="geometry">
            <mxPoint as="offset" />
          </mxGeometry>
        </mxCell>
        <mxCell id="eKRL8oK7qd-l2Jsr5qjg-168" value="S2LSP32020005 X 0.3&lt;br&gt;CIP Egg Syr Step 2: Filling level SP" style="rounded=0;whiteSpace=wrap;html=1;fillColor=#dae8fc;strokeColor=#6c8ebf;" vertex="1" parent="1">
          <mxGeometry x="-1998.5" y="3316" width="204" height="60" as="geometry" />
        </mxCell>
        <mxCell id="eKRL8oK7qd-l2Jsr5qjg-169" value="IN1" style="edgeStyle=orthogonalEdgeStyle;rounded=0;orthogonalLoop=1;jettySize=auto;html=1;entryX=0.017;entryY=0.103;entryDx=0;entryDy=0;entryPerimeter=0;" edge="1" parent="1" source="eKRL8oK7qd-l2Jsr5qjg-170" target="eKRL8oK7qd-l2Jsr5qjg-174">
          <mxGeometry x="0.4978" relative="1" as="geometry">
            <mxPoint as="offset" />
          </mxGeometry>
        </mxCell>
        <mxCell id="eKRL8oK7qd-l2Jsr5qjg-170" value="SUB_INT&lt;br&gt;&lt;br&gt;OUT=IN1-IN2" style="rounded=0;whiteSpace=wrap;html=1;fillColor=#dae8fc;strokeColor=#6c8ebf;" vertex="1" parent="1">
          <mxGeometry x="-2138.5" y="3059" width="110" height="98" as="geometry" />
        </mxCell>
        <mxCell id="eKRL8oK7qd-l2Jsr5qjg-171" value="IN1" style="edgeStyle=orthogonalEdgeStyle;rounded=0;orthogonalLoop=1;jettySize=auto;html=1;entryX=0.004;entryY=0.109;entryDx=0;entryDy=0;entryPerimeter=0;" edge="1" parent="1" source="eKRL8oK7qd-l2Jsr5qjg-172" target="eKRL8oK7qd-l2Jsr5qjg-170">
          <mxGeometry relative="1" as="geometry" />
        </mxCell>
        <mxCell id="eKRL8oK7qd-l2Jsr5qjg-172" value="WEPm32020106&lt;br&gt;400610&lt;br&gt;Mixing tank weight" style="rounded=0;whiteSpace=wrap;html=1;fillColor=#d5e8d4;strokeColor=#82b366;" vertex="1" parent="1">
          <mxGeometry x="-2313.5" y="3039" width="120" height="60" as="geometry" />
        </mxCell>
        <mxCell id="eKRL8oK7qd-l2Jsr5qjg-173" value="IN1" style="edgeStyle=orthogonalEdgeStyle;rounded=0;orthogonalLoop=1;jettySize=auto;html=1;entryX=0.014;entryY=0.103;entryDx=0;entryDy=0;entryPerimeter=0;" edge="1" parent="1" source="eKRL8oK7qd-l2Jsr5qjg-174" target="eKRL8oK7qd-l2Jsr5qjg-176">
          <mxGeometry x="0.5902" relative="1" as="geometry">
            <mxPoint as="offset" />
          </mxGeometry>
        </mxCell>
        <mxCell id="eKRL8oK7qd-l2Jsr5qjg-174" value="SUB_INT&lt;br&gt;&lt;br&gt;OUT=IN1-IN2" style="rounded=0;whiteSpace=wrap;html=1;fillColor=#dae8fc;strokeColor=#6c8ebf;" vertex="1" parent="1">
          <mxGeometry x="-1904.5" y="3099" width="110" height="98" as="geometry" />
        </mxCell>
        <mxCell id="eKRL8oK7qd-l2Jsr5qjg-175" style="edgeStyle=orthogonalEdgeStyle;rounded=0;orthogonalLoop=1;jettySize=auto;html=1;entryX=0;entryY=0.5;entryDx=0;entryDy=0;" edge="1" parent="1" source="eKRL8oK7qd-l2Jsr5qjg-176" target="eKRL8oK7qd-l2Jsr5qjg-162">
          <mxGeometry relative="1" as="geometry" />
        </mxCell>
        <mxCell id="eKRL8oK7qd-l2Jsr5qjg-176" value="GE_INT&lt;br&gt;&lt;br&gt;1 IF IN1&amp;gt;=IN2" style="rounded=0;whiteSpace=wrap;html=1;fillColor=#dae8fc;strokeColor=#6c8ebf;" vertex="1" parent="1">
          <mxGeometry x="-1670" y="3139" width="110" height="98" as="geometry" />
        </mxCell>
        <mxCell id="eKRL8oK7qd-l2Jsr5qjg-177" value="RES" style="edgeStyle=orthogonalEdgeStyle;rounded=0;orthogonalLoop=1;jettySize=auto;html=1;entryX=0;entryY=0.75;entryDx=0;entryDy=0;" edge="1" parent="1" source="eKRL8oK7qd-l2Jsr5qjg-178" target="eKRL8oK7qd-l2Jsr5qjg-121">
          <mxGeometry x="0.9386" relative="1" as="geometry">
            <Array as="points">
              <mxPoint x="-1120" y="3450" />
              <mxPoint x="-1120" y="2785" />
            </Array>
            <mxPoint x="1" as="offset" />
          </mxGeometry>
        </mxCell>
        <mxCell id="eKRL8oK7qd-l2Jsr5qjg-178" value="S4CP32020000 005506&lt;br&gt;CIP EGG STEP4" style="rounded=0;whiteSpace=wrap;html=1;fillColor=#f8cecc;strokeColor=#b85450;" vertex="1" parent="1">
          <mxGeometry x="-1345" y="3420" width="120" height="60" as="geometry" />
        </mxCell>
        <mxCell id="eKRL8oK7qd-l2Jsr5qjg-179" style="edgeStyle=orthogonalEdgeStyle;rounded=0;orthogonalLoop=1;jettySize=auto;html=1;entryX=0;entryY=0.5;entryDx=0;entryDy=0;" edge="1" parent="1" source="eKRL8oK7qd-l2Jsr5qjg-180" target="eKRL8oK7qd-l2Jsr5qjg-182">
          <mxGeometry relative="1" as="geometry" />
        </mxCell>
        <mxCell id="eKRL8oK7qd-l2Jsr5qjg-180" value="S1CP32020000&lt;br&gt;005503&lt;br&gt;CIP EGG STEP1" style="rounded=0;whiteSpace=wrap;html=1;fillColor=#f8cecc;strokeColor=#b85450;" vertex="1" parent="1">
          <mxGeometry x="-1820" y="3420" width="120" height="60" as="geometry" />
        </mxCell>
        <mxCell id="eKRL8oK7qd-l2Jsr5qjg-181" style="edgeStyle=orthogonalEdgeStyle;rounded=0;orthogonalLoop=1;jettySize=auto;html=1;entryX=0;entryY=0.5;entryDx=0;entryDy=0;" edge="1" parent="1" source="eKRL8oK7qd-l2Jsr5qjg-182" target="eKRL8oK7qd-l2Jsr5qjg-184">
          <mxGeometry relative="1" as="geometry" />
        </mxCell>
        <mxCell id="eKRL8oK7qd-l2Jsr5qjg-182" value="S2CP32020000 005504&lt;br&gt;CIP EGG STEP2" style="rounded=0;whiteSpace=wrap;html=1;fillColor=#f8cecc;strokeColor=#b85450;" vertex="1" parent="1">
          <mxGeometry x="-1660" y="3420" width="120" height="60" as="geometry" />
        </mxCell>
        <mxCell id="eKRL8oK7qd-l2Jsr5qjg-183" style="edgeStyle=orthogonalEdgeStyle;rounded=0;orthogonalLoop=1;jettySize=auto;html=1;" edge="1" parent="1" source="eKRL8oK7qd-l2Jsr5qjg-184" target="eKRL8oK7qd-l2Jsr5qjg-178">
          <mxGeometry relative="1" as="geometry" />
        </mxCell>
        <mxCell id="eKRL8oK7qd-l2Jsr5qjg-184" value="S3CP32020000 005505&lt;br&gt;CIP EGG STEP3" style="rounded=0;whiteSpace=wrap;html=1;fillColor=#f8cecc;strokeColor=#b85450;" vertex="1" parent="1">
          <mxGeometry x="-1500" y="3420" width="120" height="60" as="geometry" />
        </mxCell>
        <mxCell id="eKRL8oK7qd-l2Jsr5qjg-185" style="edgeStyle=orthogonalEdgeStyle;rounded=0;orthogonalLoop=1;jettySize=auto;html=1;entryX=0;entryY=0.5;entryDx=0;entryDy=0;" edge="1" parent="1" source="eKRL8oK7qd-l2Jsr5qjg-186" target="eKRL8oK7qd-l2Jsr5qjg-188">
          <mxGeometry relative="1" as="geometry" />
        </mxCell>
        <mxCell id="eKRL8oK7qd-l2Jsr5qjg-186" value="RS" style="rounded=0;whiteSpace=wrap;html=1;fillColor=#dae8fc;strokeColor=#6c8ebf;" vertex="1" parent="1">
          <mxGeometry x="-1390" y="3540" width="50" height="180" as="geometry" />
        </mxCell>
        <mxCell id="eKRL8oK7qd-l2Jsr5qjg-187" style="edgeStyle=orthogonalEdgeStyle;rounded=0;orthogonalLoop=1;jettySize=auto;html=1;entryX=0.5;entryY=0;entryDx=0;entryDy=0;fillColor=#fff2cc;strokeColor=#d6b656;exitX=0.25;exitY=1;exitDx=0;exitDy=0;" edge="1" parent="1" source="eKRL8oK7qd-l2Jsr5qjg-188" target="eKRL8oK7qd-l2Jsr5qjg-338">
          <mxGeometry relative="1" as="geometry">
            <Array as="points">
              <mxPoint x="-1270" y="4820" />
              <mxPoint x="-1760" y="4820" />
            </Array>
          </mxGeometry>
        </mxCell>
        <mxCell id="eKRL8oK7qd-l2Jsr5qjg-188" value="S6CP32020001&lt;br&gt;CIP Egg Mix T Step6" style="rounded=1;whiteSpace=wrap;html=1;fillColor=#d5e8d4;strokeColor=#82b366;" vertex="1" parent="1">
          <mxGeometry x="-1300" y="3600" width="120" height="60" as="geometry" />
        </mxCell>
        <mxCell id="eKRL8oK7qd-l2Jsr5qjg-189" value="SET" style="edgeStyle=orthogonalEdgeStyle;rounded=0;orthogonalLoop=1;jettySize=auto;html=1;" edge="1" parent="1" source="eKRL8oK7qd-l2Jsr5qjg-190">
          <mxGeometry x="0.3514" relative="1" as="geometry">
            <mxPoint x="-1390" y="3580" as="targetPoint" />
            <mxPoint as="offset" />
          </mxGeometry>
        </mxCell>
        <mxCell id="eKRL8oK7qd-l2Jsr5qjg-190" value="S6CP32020002" style="rounded=0;whiteSpace=wrap;html=1;fillColor=#f8cecc;strokeColor=#b85450;" vertex="1" parent="1">
          <mxGeometry x="-1602.5" y="3550" width="120" height="60" as="geometry" />
        </mxCell>
        <mxCell id="eKRL8oK7qd-l2Jsr5qjg-191" style="edgeStyle=orthogonalEdgeStyle;rounded=0;orthogonalLoop=1;jettySize=auto;html=1;" edge="1" parent="1" source="eKRL8oK7qd-l2Jsr5qjg-192" target="eKRL8oK7qd-l2Jsr5qjg-190">
          <mxGeometry relative="1" as="geometry" />
        </mxCell>
        <mxCell id="eKRL8oK7qd-l2Jsr5qjg-192" value="S5CP32020002&lt;br&gt;CIP Egg Syr HoldingT Step 5" style="rounded=0;whiteSpace=wrap;html=1;fillColor=#f8cecc;strokeColor=#b85450;" vertex="1" parent="1">
          <mxGeometry x="-1762.5" y="3550" width="120" height="60" as="geometry" />
        </mxCell>
        <mxCell id="eKRL8oK7qd-l2Jsr5qjg-193" style="edgeStyle=orthogonalEdgeStyle;rounded=0;orthogonalLoop=1;jettySize=auto;html=1;" edge="1" parent="1" source="eKRL8oK7qd-l2Jsr5qjg-194" target="eKRL8oK7qd-l2Jsr5qjg-192">
          <mxGeometry relative="1" as="geometry" />
        </mxCell>
        <mxCell id="eKRL8oK7qd-l2Jsr5qjg-194" value="S4CP32020002&lt;br&gt;CIP Egg syr Hold T Step 4" style="rounded=0;whiteSpace=wrap;html=1;fillColor=#f8cecc;strokeColor=#b85450;" vertex="1" parent="1">
          <mxGeometry x="-1922.5" y="3550" width="120" height="60" as="geometry" />
        </mxCell>
        <mxCell id="eKRL8oK7qd-l2Jsr5qjg-195" style="edgeStyle=orthogonalEdgeStyle;rounded=0;orthogonalLoop=1;jettySize=auto;html=1;entryX=0;entryY=0.5;entryDx=0;entryDy=0;" edge="1" parent="1" source="eKRL8oK7qd-l2Jsr5qjg-196" target="eKRL8oK7qd-l2Jsr5qjg-194">
          <mxGeometry relative="1" as="geometry" />
        </mxCell>
        <mxCell id="eKRL8oK7qd-l2Jsr5qjg-196" value="S3CP32020002&lt;br&gt;CIP Egg syr Hold T Step 3" style="rounded=0;whiteSpace=wrap;html=1;fillColor=#f8cecc;strokeColor=#b85450;" vertex="1" parent="1">
          <mxGeometry x="-2089.5" y="3550" width="120" height="60" as="geometry" />
        </mxCell>
        <mxCell id="eKRL8oK7qd-l2Jsr5qjg-197" style="edgeStyle=orthogonalEdgeStyle;rounded=0;orthogonalLoop=1;jettySize=auto;html=1;entryX=0;entryY=0.5;entryDx=0;entryDy=0;" edge="1" parent="1" source="eKRL8oK7qd-l2Jsr5qjg-198" target="eKRL8oK7qd-l2Jsr5qjg-196">
          <mxGeometry relative="1" as="geometry" />
        </mxCell>
        <mxCell id="eKRL8oK7qd-l2Jsr5qjg-198" value="S2CP32020002&lt;br&gt;CIP Egg syr Hold T Step 2" style="rounded=0;whiteSpace=wrap;html=1;fillColor=#f8cecc;strokeColor=#b85450;" vertex="1" parent="1">
          <mxGeometry x="-2255" y="3550" width="120" height="60" as="geometry" />
        </mxCell>
        <mxCell id="eKRL8oK7qd-l2Jsr5qjg-199" style="edgeStyle=orthogonalEdgeStyle;rounded=0;orthogonalLoop=1;jettySize=auto;html=1;" edge="1" parent="1" source="eKRL8oK7qd-l2Jsr5qjg-200" target="eKRL8oK7qd-l2Jsr5qjg-198">
          <mxGeometry relative="1" as="geometry" />
        </mxCell>
        <mxCell id="eKRL8oK7qd-l2Jsr5qjg-200" value="S1CP32020002&lt;br&gt;CIP Egg syr Hold T Step 1" style="rounded=0;whiteSpace=wrap;html=1;fillColor=#f8cecc;strokeColor=#b85450;" vertex="1" parent="1">
          <mxGeometry x="-2420" y="3550" width="120" height="60" as="geometry" />
        </mxCell>
        <mxCell id="eKRL8oK7qd-l2Jsr5qjg-201" style="edgeStyle=orthogonalEdgeStyle;rounded=0;orthogonalLoop=1;jettySize=auto;html=1;entryX=0;entryY=0.5;entryDx=0;entryDy=0;" edge="1" parent="1" source="eKRL8oK7qd-l2Jsr5qjg-203" target="eKRL8oK7qd-l2Jsr5qjg-200">
          <mxGeometry relative="1" as="geometry">
            <mxPoint x="-2430" y="3580" as="targetPoint" />
          </mxGeometry>
        </mxCell>
        <mxCell id="eKRL8oK7qd-l2Jsr5qjg-202" style="edgeStyle=orthogonalEdgeStyle;rounded=0;orthogonalLoop=1;jettySize=auto;html=1;entryX=0;entryY=1;entryDx=0;entryDy=0;fillColor=#fff2cc;strokeColor=#d6b656;" edge="1" parent="1" source="eKRL8oK7qd-l2Jsr5qjg-203" target="eKRL8oK7qd-l2Jsr5qjg-448">
          <mxGeometry relative="1" as="geometry">
            <Array as="points">
              <mxPoint x="-2541" y="3490" />
              <mxPoint x="-3920" y="3490" />
              <mxPoint x="-3920" y="6560" />
              <mxPoint x="-2440" y="6560" />
            </Array>
          </mxGeometry>
        </mxCell>
        <mxCell id="eKRL8oK7qd-l2Jsr5qjg-203" value="HBCP32020002" style="rounded=1;whiteSpace=wrap;html=1;fillColor=#d5e8d4;strokeColor=#82b366;" vertex="1" parent="1">
          <mxGeometry x="-2601" y="3550" width="120" height="60" as="geometry" />
        </mxCell>
        <mxCell id="eKRL8oK7qd-l2Jsr5qjg-204" value="Q" style="edgeStyle=orthogonalEdgeStyle;rounded=0;orthogonalLoop=1;jettySize=auto;html=1;entryX=0;entryY=0.5;entryDx=0;entryDy=0;exitX=1.007;exitY=0.375;exitDx=0;exitDy=0;exitPerimeter=0;" edge="1" parent="1" source="eKRL8oK7qd-l2Jsr5qjg-206" target="eKRL8oK7qd-l2Jsr5qjg-203">
          <mxGeometry x="0.0026" y="95" relative="1" as="geometry">
            <mxPoint x="-2761" y="3580" as="targetPoint" />
            <mxPoint x="-95" y="95" as="offset" />
          </mxGeometry>
        </mxCell>
        <mxCell id="eKRL8oK7qd-l2Jsr5qjg-205" value="ET" style="edgeStyle=orthogonalEdgeStyle;rounded=0;orthogonalLoop=1;jettySize=auto;html=1;exitX=0.997;exitY=0.835;exitDx=0;exitDy=0;exitPerimeter=0;" edge="1" parent="1" source="eKRL8oK7qd-l2Jsr5qjg-206" target="eKRL8oK7qd-l2Jsr5qjg-216">
          <mxGeometry x="-0.5403" relative="1" as="geometry">
            <Array as="points">
              <mxPoint x="-2820" y="3632" />
              <mxPoint x="-2820" y="3670" />
            </Array>
            <mxPoint as="offset" />
          </mxGeometry>
        </mxCell>
        <mxCell id="eKRL8oK7qd-l2Jsr5qjg-206" value="TON" style="rounded=0;whiteSpace=wrap;html=1;fillColor=#dae8fc;strokeColor=#6c8ebf;" vertex="1" parent="1">
          <mxGeometry x="-2960" y="3540" width="110" height="110" as="geometry" />
        </mxCell>
        <mxCell id="eKRL8oK7qd-l2Jsr5qjg-207" value="IN" style="edgeStyle=orthogonalEdgeStyle;rounded=0;orthogonalLoop=1;jettySize=auto;html=1;" edge="1" parent="1" source="eKRL8oK7qd-l2Jsr5qjg-208">
          <mxGeometry relative="1" as="geometry">
            <mxPoint x="-2963" y="3550" as="targetPoint" />
          </mxGeometry>
        </mxCell>
        <mxCell id="eKRL8oK7qd-l2Jsr5qjg-208" value="MCSt32020111&lt;br&gt;004907&lt;br&gt;Egg syr Mixer" style="rounded=0;whiteSpace=wrap;html=1;fillColor=#d5e8d4;strokeColor=#82b366;" vertex="1" parent="1">
          <mxGeometry x="-3140" y="3520" width="120" height="60" as="geometry" />
        </mxCell>
        <mxCell id="eKRL8oK7qd-l2Jsr5qjg-209" style="edgeStyle=orthogonalEdgeStyle;rounded=0;orthogonalLoop=1;jettySize=auto;html=1;entryX=0;entryY=0.5;entryDx=0;entryDy=0;" edge="1" parent="1" source="eKRL8oK7qd-l2Jsr5qjg-210" target="eKRL8oK7qd-l2Jsr5qjg-208">
          <mxGeometry relative="1" as="geometry" />
        </mxCell>
        <mxCell id="eKRL8oK7qd-l2Jsr5qjg-210" value="S5CP32020001&lt;br&gt;CIP Egg syr Mix T Step 5" style="rounded=0;whiteSpace=wrap;html=1;fillColor=#d5e8d4;strokeColor=#82b366;" vertex="1" parent="1">
          <mxGeometry x="-3310" y="3520" width="120" height="60" as="geometry" />
        </mxCell>
        <mxCell id="eKRL8oK7qd-l2Jsr5qjg-211" style="edgeStyle=orthogonalEdgeStyle;rounded=0;orthogonalLoop=1;jettySize=auto;html=1;entryX=0;entryY=0.5;entryDx=0;entryDy=0;" edge="1" parent="1" source="eKRL8oK7qd-l2Jsr5qjg-212" target="eKRL8oK7qd-l2Jsr5qjg-210">
          <mxGeometry relative="1" as="geometry" />
        </mxCell>
        <mxCell id="eKRL8oK7qd-l2Jsr5qjg-212" value="S1CP32020000&lt;br&gt;005503&lt;br&gt;CIP EGG STEP1" style="rounded=0;whiteSpace=wrap;html=1;fillColor=#d5e8d4;strokeColor=#82b366;" vertex="1" parent="1">
          <mxGeometry x="-3480" y="3520" width="120" height="60" as="geometry" />
        </mxCell>
        <mxCell id="eKRL8oK7qd-l2Jsr5qjg-213" value="PT" style="edgeStyle=orthogonalEdgeStyle;rounded=0;orthogonalLoop=1;jettySize=auto;html=1;" edge="1" parent="1" source="eKRL8oK7qd-l2Jsr5qjg-215">
          <mxGeometry relative="1" as="geometry">
            <mxPoint x="-2961" y="3640" as="targetPoint" />
          </mxGeometry>
        </mxCell>
        <mxCell id="eKRL8oK7qd-l2Jsr5qjg-214" style="edgeStyle=orthogonalEdgeStyle;rounded=0;orthogonalLoop=1;jettySize=auto;html=1;entryX=0;entryY=0.5;entryDx=0;entryDy=0;fillColor=#fff2cc;strokeColor=#d6b656;" edge="1" parent="1" source="eKRL8oK7qd-l2Jsr5qjg-215" target="eKRL8oK7qd-l2Jsr5qjg-382">
          <mxGeometry relative="1" as="geometry">
            <Array as="points">
              <mxPoint x="-3700" y="3640" />
              <mxPoint x="-3700" y="5390" />
            </Array>
          </mxGeometry>
        </mxCell>
        <mxCell id="eKRL8oK7qd-l2Jsr5qjg-215" value="S5TSP32020001 X 1m&lt;br&gt;404518&lt;br&gt;CIP egg syr Mix T Step 5: Time SP" style="rounded=0;whiteSpace=wrap;html=1;fillColor=#dae8fc;strokeColor=#6c8ebf;" vertex="1" parent="1">
          <mxGeometry x="-3224" y="3610" width="204" height="60" as="geometry" />
        </mxCell>
        <mxCell id="eKRL8oK7qd-l2Jsr5qjg-216" value="S5TSP32020011" style="rounded=1;whiteSpace=wrap;html=1;fillColor=#d5e8d4;strokeColor=#82b366;" vertex="1" parent="1">
          <mxGeometry x="-2800" y="3640" width="120" height="60" as="geometry" />
        </mxCell>
        <mxCell id="eKRL8oK7qd-l2Jsr5qjg-217" value="ET" style="edgeStyle=orthogonalEdgeStyle;rounded=0;orthogonalLoop=1;jettySize=auto;html=1;exitX=0.997;exitY=0.835;exitDx=0;exitDy=0;exitPerimeter=0;" edge="1" parent="1" source="eKRL8oK7qd-l2Jsr5qjg-219" target="eKRL8oK7qd-l2Jsr5qjg-229">
          <mxGeometry x="-0.5403" relative="1" as="geometry">
            <Array as="points">
              <mxPoint x="-2820" y="3832" />
              <mxPoint x="-2820" y="3870" />
            </Array>
            <mxPoint as="offset" />
          </mxGeometry>
        </mxCell>
        <mxCell id="eKRL8oK7qd-l2Jsr5qjg-218" style="edgeStyle=orthogonalEdgeStyle;rounded=0;orthogonalLoop=1;jettySize=auto;html=1;entryX=0;entryY=0.5;entryDx=0;entryDy=0;" edge="1" parent="1" source="eKRL8oK7qd-l2Jsr5qjg-219" target="eKRL8oK7qd-l2Jsr5qjg-203">
          <mxGeometry relative="1" as="geometry">
            <Array as="points">
              <mxPoint x="-2650" y="3795" />
              <mxPoint x="-2650" y="3580" />
            </Array>
          </mxGeometry>
        </mxCell>
        <mxCell id="eKRL8oK7qd-l2Jsr5qjg-219" value="TON" style="rounded=0;whiteSpace=wrap;html=1;fillColor=#dae8fc;strokeColor=#6c8ebf;" vertex="1" parent="1">
          <mxGeometry x="-2960" y="3740" width="110" height="110" as="geometry" />
        </mxCell>
        <mxCell id="eKRL8oK7qd-l2Jsr5qjg-220" value="IN" style="edgeStyle=orthogonalEdgeStyle;rounded=0;orthogonalLoop=1;jettySize=auto;html=1;" edge="1" parent="1" source="eKRL8oK7qd-l2Jsr5qjg-221">
          <mxGeometry relative="1" as="geometry">
            <mxPoint x="-2963" y="3750" as="targetPoint" />
          </mxGeometry>
        </mxCell>
        <mxCell id="eKRL8oK7qd-l2Jsr5qjg-221" value="MCSt32020111&lt;br&gt;004907&lt;br&gt;Egg syr Mixer" style="rounded=0;whiteSpace=wrap;html=1;fillColor=#d5e8d4;strokeColor=#82b366;" vertex="1" parent="1">
          <mxGeometry x="-3140" y="3720" width="120" height="60" as="geometry" />
        </mxCell>
        <mxCell id="eKRL8oK7qd-l2Jsr5qjg-222" style="edgeStyle=orthogonalEdgeStyle;rounded=0;orthogonalLoop=1;jettySize=auto;html=1;entryX=0;entryY=0.5;entryDx=0;entryDy=0;" edge="1" parent="1" source="eKRL8oK7qd-l2Jsr5qjg-223" target="eKRL8oK7qd-l2Jsr5qjg-221">
          <mxGeometry relative="1" as="geometry" />
        </mxCell>
        <mxCell id="eKRL8oK7qd-l2Jsr5qjg-223" value="S5CP32020001&lt;br&gt;CIP Egg syr Mix T Step 5" style="rounded=0;whiteSpace=wrap;html=1;fillColor=#d5e8d4;strokeColor=#82b366;" vertex="1" parent="1">
          <mxGeometry x="-3310" y="3720" width="120" height="60" as="geometry" />
        </mxCell>
        <mxCell id="eKRL8oK7qd-l2Jsr5qjg-224" style="edgeStyle=orthogonalEdgeStyle;rounded=0;orthogonalLoop=1;jettySize=auto;html=1;entryX=0;entryY=0.5;entryDx=0;entryDy=0;" edge="1" parent="1" source="eKRL8oK7qd-l2Jsr5qjg-225" target="eKRL8oK7qd-l2Jsr5qjg-223">
          <mxGeometry relative="1" as="geometry" />
        </mxCell>
        <mxCell id="eKRL8oK7qd-l2Jsr5qjg-225" value="S2CP32020000 005504&lt;br&gt;CIP EGG STEP2" style="rounded=0;whiteSpace=wrap;html=1;fillColor=#d5e8d4;strokeColor=#82b366;" vertex="1" parent="1">
          <mxGeometry x="-3480" y="3720" width="120" height="60" as="geometry" />
        </mxCell>
        <mxCell id="eKRL8oK7qd-l2Jsr5qjg-226" value="PT" style="edgeStyle=orthogonalEdgeStyle;rounded=0;orthogonalLoop=1;jettySize=auto;html=1;" edge="1" parent="1" source="eKRL8oK7qd-l2Jsr5qjg-228">
          <mxGeometry relative="1" as="geometry">
            <mxPoint x="-2961" y="3840" as="targetPoint" />
          </mxGeometry>
        </mxCell>
        <mxCell id="eKRL8oK7qd-l2Jsr5qjg-227" style="edgeStyle=orthogonalEdgeStyle;rounded=0;orthogonalLoop=1;jettySize=auto;html=1;entryX=0;entryY=0.5;entryDx=0;entryDy=0;fillColor=#fff2cc;strokeColor=#d6b656;" edge="1" parent="1" source="eKRL8oK7qd-l2Jsr5qjg-228" target="eKRL8oK7qd-l2Jsr5qjg-392">
          <mxGeometry relative="1" as="geometry">
            <Array as="points">
              <mxPoint x="-3610" y="3840" />
              <mxPoint x="-3610" y="5575" />
            </Array>
          </mxGeometry>
        </mxCell>
        <mxCell id="eKRL8oK7qd-l2Jsr5qjg-228" value="S5TSP32020002 X 1m&lt;br&gt;404519&lt;br&gt;CIP egg syr Mix T Step 5: Time SP" style="rounded=0;whiteSpace=wrap;html=1;fillColor=#dae8fc;strokeColor=#6c8ebf;" vertex="1" parent="1">
          <mxGeometry x="-3224" y="3810" width="204" height="60" as="geometry" />
        </mxCell>
        <mxCell id="eKRL8oK7qd-l2Jsr5qjg-229" value="S5TSP32020012" style="rounded=1;whiteSpace=wrap;html=1;fillColor=#d5e8d4;strokeColor=#82b366;" vertex="1" parent="1">
          <mxGeometry x="-2800" y="3840" width="120" height="60" as="geometry" />
        </mxCell>
        <mxCell id="eKRL8oK7qd-l2Jsr5qjg-230" value="ET" style="edgeStyle=orthogonalEdgeStyle;rounded=0;orthogonalLoop=1;jettySize=auto;html=1;exitX=0.997;exitY=0.835;exitDx=0;exitDy=0;exitPerimeter=0;" edge="1" parent="1" source="eKRL8oK7qd-l2Jsr5qjg-232" target="eKRL8oK7qd-l2Jsr5qjg-242">
          <mxGeometry x="-0.5403" relative="1" as="geometry">
            <Array as="points">
              <mxPoint x="-2820" y="4024" />
              <mxPoint x="-2820" y="4062" />
            </Array>
            <mxPoint as="offset" />
          </mxGeometry>
        </mxCell>
        <mxCell id="eKRL8oK7qd-l2Jsr5qjg-231" style="edgeStyle=orthogonalEdgeStyle;rounded=0;orthogonalLoop=1;jettySize=auto;html=1;entryX=0;entryY=0.5;entryDx=0;entryDy=0;" edge="1" parent="1" source="eKRL8oK7qd-l2Jsr5qjg-232" target="eKRL8oK7qd-l2Jsr5qjg-203">
          <mxGeometry relative="1" as="geometry">
            <Array as="points">
              <mxPoint x="-2650" y="3987" />
              <mxPoint x="-2650" y="3580" />
            </Array>
          </mxGeometry>
        </mxCell>
        <mxCell id="eKRL8oK7qd-l2Jsr5qjg-232" value="TON" style="rounded=0;whiteSpace=wrap;html=1;fillColor=#dae8fc;strokeColor=#6c8ebf;" vertex="1" parent="1">
          <mxGeometry x="-2960" y="3932" width="110" height="110" as="geometry" />
        </mxCell>
        <mxCell id="eKRL8oK7qd-l2Jsr5qjg-233" value="IN" style="edgeStyle=orthogonalEdgeStyle;rounded=0;orthogonalLoop=1;jettySize=auto;html=1;" edge="1" parent="1" source="eKRL8oK7qd-l2Jsr5qjg-234">
          <mxGeometry relative="1" as="geometry">
            <mxPoint x="-2963" y="3942" as="targetPoint" />
          </mxGeometry>
        </mxCell>
        <mxCell id="eKRL8oK7qd-l2Jsr5qjg-234" value="MCSt32020111&lt;br&gt;004907&lt;br&gt;Egg syr Mixer" style="rounded=0;whiteSpace=wrap;html=1;fillColor=#d5e8d4;strokeColor=#82b366;" vertex="1" parent="1">
          <mxGeometry x="-3140" y="3912" width="120" height="60" as="geometry" />
        </mxCell>
        <mxCell id="eKRL8oK7qd-l2Jsr5qjg-235" style="edgeStyle=orthogonalEdgeStyle;rounded=0;orthogonalLoop=1;jettySize=auto;html=1;entryX=0;entryY=0.5;entryDx=0;entryDy=0;" edge="1" parent="1" source="eKRL8oK7qd-l2Jsr5qjg-236" target="eKRL8oK7qd-l2Jsr5qjg-234">
          <mxGeometry relative="1" as="geometry" />
        </mxCell>
        <mxCell id="eKRL8oK7qd-l2Jsr5qjg-236" value="S5CP32020001&lt;br&gt;CIP Egg syr Mix T Step 5" style="rounded=0;whiteSpace=wrap;html=1;fillColor=#d5e8d4;strokeColor=#82b366;" vertex="1" parent="1">
          <mxGeometry x="-3310" y="3912" width="120" height="60" as="geometry" />
        </mxCell>
        <mxCell id="eKRL8oK7qd-l2Jsr5qjg-237" style="edgeStyle=orthogonalEdgeStyle;rounded=0;orthogonalLoop=1;jettySize=auto;html=1;entryX=0;entryY=0.5;entryDx=0;entryDy=0;" edge="1" parent="1" source="eKRL8oK7qd-l2Jsr5qjg-238" target="eKRL8oK7qd-l2Jsr5qjg-236">
          <mxGeometry relative="1" as="geometry" />
        </mxCell>
        <mxCell id="eKRL8oK7qd-l2Jsr5qjg-238" value="S3CP32020000 005505&lt;br&gt;CIP EGG STEP3" style="rounded=0;whiteSpace=wrap;html=1;fillColor=#d5e8d4;strokeColor=#82b366;" vertex="1" parent="1">
          <mxGeometry x="-3480" y="3912" width="120" height="60" as="geometry" />
        </mxCell>
        <mxCell id="eKRL8oK7qd-l2Jsr5qjg-239" value="PT" style="edgeStyle=orthogonalEdgeStyle;rounded=0;orthogonalLoop=1;jettySize=auto;html=1;" edge="1" parent="1" source="eKRL8oK7qd-l2Jsr5qjg-241">
          <mxGeometry relative="1" as="geometry">
            <mxPoint x="-2961" y="4032" as="targetPoint" />
          </mxGeometry>
        </mxCell>
        <mxCell id="eKRL8oK7qd-l2Jsr5qjg-240" style="edgeStyle=orthogonalEdgeStyle;rounded=0;orthogonalLoop=1;jettySize=auto;html=1;entryX=0;entryY=0.5;entryDx=0;entryDy=0;fillColor=#fff2cc;strokeColor=#d6b656;" edge="1" parent="1" source="eKRL8oK7qd-l2Jsr5qjg-241" target="eKRL8oK7qd-l2Jsr5qjg-402">
          <mxGeometry relative="1" as="geometry">
            <Array as="points">
              <mxPoint x="-3520" y="4032" />
              <mxPoint x="-3520" y="5770" />
            </Array>
          </mxGeometry>
        </mxCell>
        <mxCell id="eKRL8oK7qd-l2Jsr5qjg-241" value="S5TSP32020003 X 1m&lt;br&gt;404520&lt;br&gt;CIP egg syr Mix T Step 5: Time SP" style="rounded=0;whiteSpace=wrap;html=1;fillColor=#dae8fc;strokeColor=#6c8ebf;" vertex="1" parent="1">
          <mxGeometry x="-3224" y="4002" width="204" height="60" as="geometry" />
        </mxCell>
        <mxCell id="eKRL8oK7qd-l2Jsr5qjg-242" value="S5TSP32020013" style="rounded=1;whiteSpace=wrap;html=1;fillColor=#d5e8d4;strokeColor=#82b366;" vertex="1" parent="1">
          <mxGeometry x="-2800" y="4032" width="120" height="60" as="geometry" />
        </mxCell>
        <mxCell id="eKRL8oK7qd-l2Jsr5qjg-243" value="ET" style="edgeStyle=orthogonalEdgeStyle;rounded=0;orthogonalLoop=1;jettySize=auto;html=1;exitX=0.997;exitY=0.835;exitDx=0;exitDy=0;exitPerimeter=0;" edge="1" parent="1" source="eKRL8oK7qd-l2Jsr5qjg-245" target="eKRL8oK7qd-l2Jsr5qjg-255">
          <mxGeometry x="-0.5403" relative="1" as="geometry">
            <Array as="points">
              <mxPoint x="-2820" y="4212" />
              <mxPoint x="-2820" y="4250" />
            </Array>
            <mxPoint as="offset" />
          </mxGeometry>
        </mxCell>
        <mxCell id="eKRL8oK7qd-l2Jsr5qjg-244" style="edgeStyle=orthogonalEdgeStyle;rounded=0;orthogonalLoop=1;jettySize=auto;html=1;entryX=0;entryY=0.5;entryDx=0;entryDy=0;" edge="1" parent="1" source="eKRL8oK7qd-l2Jsr5qjg-245" target="eKRL8oK7qd-l2Jsr5qjg-203">
          <mxGeometry relative="1" as="geometry">
            <Array as="points">
              <mxPoint x="-2650" y="4175" />
              <mxPoint x="-2650" y="3580" />
            </Array>
          </mxGeometry>
        </mxCell>
        <mxCell id="eKRL8oK7qd-l2Jsr5qjg-245" value="TON" style="rounded=0;whiteSpace=wrap;html=1;fillColor=#dae8fc;strokeColor=#6c8ebf;" vertex="1" parent="1">
          <mxGeometry x="-2960" y="4120" width="110" height="110" as="geometry" />
        </mxCell>
        <mxCell id="eKRL8oK7qd-l2Jsr5qjg-246" value="IN" style="edgeStyle=orthogonalEdgeStyle;rounded=0;orthogonalLoop=1;jettySize=auto;html=1;" edge="1" parent="1" source="eKRL8oK7qd-l2Jsr5qjg-247">
          <mxGeometry relative="1" as="geometry">
            <mxPoint x="-2963" y="4130" as="targetPoint" />
          </mxGeometry>
        </mxCell>
        <mxCell id="eKRL8oK7qd-l2Jsr5qjg-247" value="MCSt32020111&lt;br&gt;004907&lt;br&gt;Egg syr Mixer" style="rounded=0;whiteSpace=wrap;html=1;fillColor=#d5e8d4;strokeColor=#82b366;" vertex="1" parent="1">
          <mxGeometry x="-3140" y="4100" width="120" height="60" as="geometry" />
        </mxCell>
        <mxCell id="eKRL8oK7qd-l2Jsr5qjg-248" style="edgeStyle=orthogonalEdgeStyle;rounded=0;orthogonalLoop=1;jettySize=auto;html=1;entryX=0;entryY=0.5;entryDx=0;entryDy=0;" edge="1" parent="1" source="eKRL8oK7qd-l2Jsr5qjg-249" target="eKRL8oK7qd-l2Jsr5qjg-247">
          <mxGeometry relative="1" as="geometry" />
        </mxCell>
        <mxCell id="eKRL8oK7qd-l2Jsr5qjg-249" value="S5CP32020001&lt;br&gt;CIP Egg syr Mix T Step 5" style="rounded=0;whiteSpace=wrap;html=1;fillColor=#d5e8d4;strokeColor=#82b366;" vertex="1" parent="1">
          <mxGeometry x="-3310" y="4100" width="120" height="60" as="geometry" />
        </mxCell>
        <mxCell id="eKRL8oK7qd-l2Jsr5qjg-250" style="edgeStyle=orthogonalEdgeStyle;rounded=0;orthogonalLoop=1;jettySize=auto;html=1;entryX=0;entryY=0.5;entryDx=0;entryDy=0;" edge="1" parent="1" source="eKRL8oK7qd-l2Jsr5qjg-251" target="eKRL8oK7qd-l2Jsr5qjg-249">
          <mxGeometry relative="1" as="geometry" />
        </mxCell>
        <mxCell id="eKRL8oK7qd-l2Jsr5qjg-251" value="S4CP32020000 005506&lt;br&gt;CIP EGG STEP4" style="rounded=0;whiteSpace=wrap;html=1;fillColor=#d5e8d4;strokeColor=#82b366;" vertex="1" parent="1">
          <mxGeometry x="-3480" y="4100" width="120" height="60" as="geometry" />
        </mxCell>
        <mxCell id="eKRL8oK7qd-l2Jsr5qjg-252" value="PT" style="edgeStyle=orthogonalEdgeStyle;rounded=0;orthogonalLoop=1;jettySize=auto;html=1;" edge="1" parent="1" source="eKRL8oK7qd-l2Jsr5qjg-254">
          <mxGeometry relative="1" as="geometry">
            <mxPoint x="-2961" y="4220" as="targetPoint" />
          </mxGeometry>
        </mxCell>
        <mxCell id="eKRL8oK7qd-l2Jsr5qjg-253" style="edgeStyle=orthogonalEdgeStyle;rounded=0;orthogonalLoop=1;jettySize=auto;html=1;entryX=0;entryY=0.5;entryDx=0;entryDy=0;fillColor=#fff2cc;strokeColor=#d6b656;" edge="1" parent="1" source="eKRL8oK7qd-l2Jsr5qjg-254" target="eKRL8oK7qd-l2Jsr5qjg-412">
          <mxGeometry relative="1" as="geometry">
            <Array as="points">
              <mxPoint x="-3410" y="4220" />
              <mxPoint x="-3410" y="5980" />
            </Array>
          </mxGeometry>
        </mxCell>
        <mxCell id="eKRL8oK7qd-l2Jsr5qjg-254" value="S5TSP32020004 X 1m&lt;br&gt;404521&lt;br&gt;CIP egg syr Mix T Step 5: Time SP" style="rounded=0;whiteSpace=wrap;html=1;fillColor=#dae8fc;strokeColor=#6c8ebf;" vertex="1" parent="1">
          <mxGeometry x="-3224" y="4190" width="204" height="60" as="geometry" />
        </mxCell>
        <mxCell id="eKRL8oK7qd-l2Jsr5qjg-255" value="S5TSP32020014" style="rounded=1;whiteSpace=wrap;html=1;fillColor=#d5e8d4;strokeColor=#82b366;" vertex="1" parent="1">
          <mxGeometry x="-2800" y="4220" width="120" height="60" as="geometry" />
        </mxCell>
        <mxCell id="eKRL8oK7qd-l2Jsr5qjg-256" value="RES" style="edgeStyle=orthogonalEdgeStyle;rounded=0;orthogonalLoop=1;jettySize=auto;html=1;" edge="1" parent="1" source="eKRL8oK7qd-l2Jsr5qjg-257">
          <mxGeometry x="0.3514" relative="1" as="geometry">
            <mxPoint x="-1390" y="3700" as="targetPoint" />
            <mxPoint as="offset" />
          </mxGeometry>
        </mxCell>
        <mxCell id="eKRL8oK7qd-l2Jsr5qjg-257" value="S4CP32020000 005506&lt;br&gt;CIP EGG STEP4" style="rounded=0;whiteSpace=wrap;html=1;fillColor=#f8cecc;strokeColor=#b85450;" vertex="1" parent="1">
          <mxGeometry x="-1602.5" y="3670" width="120" height="60" as="geometry" />
        </mxCell>
        <mxCell id="eKRL8oK7qd-l2Jsr5qjg-258" style="edgeStyle=orthogonalEdgeStyle;rounded=0;orthogonalLoop=1;jettySize=auto;html=1;entryX=0;entryY=0.5;entryDx=0;entryDy=0;" edge="1" parent="1" source="eKRL8oK7qd-l2Jsr5qjg-259" target="eKRL8oK7qd-l2Jsr5qjg-261">
          <mxGeometry relative="1" as="geometry" />
        </mxCell>
        <mxCell id="eKRL8oK7qd-l2Jsr5qjg-259" value="S1CP32020000&lt;br&gt;005503&lt;br&gt;CIP EGG STEP1" style="rounded=0;whiteSpace=wrap;html=1;fillColor=#f8cecc;strokeColor=#b85450;" vertex="1" parent="1">
          <mxGeometry x="-2077.5" y="3670" width="120" height="60" as="geometry" />
        </mxCell>
        <mxCell id="eKRL8oK7qd-l2Jsr5qjg-260" style="edgeStyle=orthogonalEdgeStyle;rounded=0;orthogonalLoop=1;jettySize=auto;html=1;entryX=0;entryY=0.5;entryDx=0;entryDy=0;" edge="1" parent="1" source="eKRL8oK7qd-l2Jsr5qjg-261" target="eKRL8oK7qd-l2Jsr5qjg-263">
          <mxGeometry relative="1" as="geometry" />
        </mxCell>
        <mxCell id="eKRL8oK7qd-l2Jsr5qjg-261" value="S2CP32020000 005504&lt;br&gt;CIP EGG STEP2" style="rounded=0;whiteSpace=wrap;html=1;fillColor=#f8cecc;strokeColor=#b85450;" vertex="1" parent="1">
          <mxGeometry x="-1917.5" y="3670" width="120" height="60" as="geometry" />
        </mxCell>
        <mxCell id="eKRL8oK7qd-l2Jsr5qjg-262" style="edgeStyle=orthogonalEdgeStyle;rounded=0;orthogonalLoop=1;jettySize=auto;html=1;" edge="1" parent="1" source="eKRL8oK7qd-l2Jsr5qjg-263" target="eKRL8oK7qd-l2Jsr5qjg-257">
          <mxGeometry relative="1" as="geometry" />
        </mxCell>
        <mxCell id="eKRL8oK7qd-l2Jsr5qjg-263" value="S3CP32020000 005505&lt;br&gt;CIP EGG STEP3" style="rounded=0;whiteSpace=wrap;html=1;fillColor=#f8cecc;strokeColor=#b85450;" vertex="1" parent="1">
          <mxGeometry x="-1757.5" y="3670" width="120" height="60" as="geometry" />
        </mxCell>
        <mxCell id="eKRL8oK7qd-l2Jsr5qjg-264" style="edgeStyle=orthogonalEdgeStyle;rounded=0;orthogonalLoop=1;jettySize=auto;html=1;entryX=0;entryY=0.5;entryDx=0;entryDy=0;" edge="1" parent="1" source="eKRL8oK7qd-l2Jsr5qjg-265" target="eKRL8oK7qd-l2Jsr5qjg-267">
          <mxGeometry relative="1" as="geometry" />
        </mxCell>
        <mxCell id="eKRL8oK7qd-l2Jsr5qjg-265" value="RS" style="rounded=0;whiteSpace=wrap;html=1;fillColor=#dae8fc;strokeColor=#6c8ebf;" vertex="1" parent="1">
          <mxGeometry x="-1700" y="3810" width="50" height="180" as="geometry" />
        </mxCell>
        <mxCell id="eKRL8oK7qd-l2Jsr5qjg-266" style="edgeStyle=orthogonalEdgeStyle;rounded=0;orthogonalLoop=1;jettySize=auto;html=1;" edge="1" parent="1" source="eKRL8oK7qd-l2Jsr5qjg-267">
          <mxGeometry relative="1" as="geometry">
            <mxPoint x="-1440" y="3700" as="targetPoint" />
          </mxGeometry>
        </mxCell>
        <mxCell id="eKRL8oK7qd-l2Jsr5qjg-267" value="S7CP32020001&lt;br&gt;CIP Egg Mix T Step7" style="rounded=1;whiteSpace=wrap;html=1;fillColor=#d5e8d4;strokeColor=#82b366;" vertex="1" parent="1">
          <mxGeometry x="-1610" y="3870" width="120" height="60" as="geometry" />
        </mxCell>
        <mxCell id="eKRL8oK7qd-l2Jsr5qjg-268" value="SET" style="edgeStyle=orthogonalEdgeStyle;rounded=0;orthogonalLoop=1;jettySize=auto;html=1;" edge="1" parent="1" source="eKRL8oK7qd-l2Jsr5qjg-269">
          <mxGeometry relative="1" as="geometry">
            <mxPoint x="-1700" y="3860" as="targetPoint" />
          </mxGeometry>
        </mxCell>
        <mxCell id="eKRL8oK7qd-l2Jsr5qjg-269" value="S6CP32020001&lt;br&gt;CIP egg syr Mix T Step 6" style="rounded=0;whiteSpace=wrap;html=1;fillColor=#d5e8d4;strokeColor=#82b366;" vertex="1" parent="1">
          <mxGeometry x="-1909.5" y="3830" width="120" height="60" as="geometry" />
        </mxCell>
        <mxCell id="eKRL8oK7qd-l2Jsr5qjg-270" style="edgeStyle=orthogonalEdgeStyle;rounded=0;orthogonalLoop=1;jettySize=auto;html=1;entryX=0;entryY=0.5;entryDx=0;entryDy=0;" edge="1" parent="1" source="eKRL8oK7qd-l2Jsr5qjg-271" target="eKRL8oK7qd-l2Jsr5qjg-269">
          <mxGeometry relative="1" as="geometry" />
        </mxCell>
        <mxCell id="eKRL8oK7qd-l2Jsr5qjg-271" value="GE_INT&lt;br&gt;&lt;br&gt;1 IF IN1&amp;gt;=IN2" style="rounded=0;whiteSpace=wrap;html=1;fillColor=#dae8fc;strokeColor=#6c8ebf;" vertex="1" parent="1">
          <mxGeometry x="-2067" y="3811" width="110" height="98" as="geometry" />
        </mxCell>
        <mxCell id="eKRL8oK7qd-l2Jsr5qjg-272" value="IN2" style="edgeStyle=orthogonalEdgeStyle;rounded=0;orthogonalLoop=1;jettySize=auto;html=1;entryX=0.012;entryY=0.933;entryDx=0;entryDy=0;entryPerimeter=0;" edge="1" parent="1" source="eKRL8oK7qd-l2Jsr5qjg-273" target="eKRL8oK7qd-l2Jsr5qjg-271">
          <mxGeometry relative="1" as="geometry" />
        </mxCell>
        <mxCell id="eKRL8oK7qd-l2Jsr5qjg-273" value="WEPm32020106&lt;br&gt;400610&lt;br&gt;Mixing tank weight" style="rounded=0;whiteSpace=wrap;html=1;fillColor=#d5e8d4;strokeColor=#82b366;" vertex="1" parent="1">
          <mxGeometry x="-2232.5" y="3872" width="120" height="60" as="geometry" />
        </mxCell>
        <mxCell id="eKRL8oK7qd-l2Jsr5qjg-274" value="IN1" style="edgeStyle=orthogonalEdgeStyle;rounded=0;orthogonalLoop=1;jettySize=auto;html=1;entryX=0.012;entryY=0.092;entryDx=0;entryDy=0;entryPerimeter=0;" edge="1" parent="1" source="eKRL8oK7qd-l2Jsr5qjg-275" target="eKRL8oK7qd-l2Jsr5qjg-271">
          <mxGeometry relative="1" as="geometry" />
        </mxCell>
        <mxCell id="eKRL8oK7qd-l2Jsr5qjg-275" value="WLLL32020106 + 800&lt;br&gt;400519&amp;nbsp;&lt;br&gt;LL_Lim Mix T weight" style="rounded=0;whiteSpace=wrap;html=1;fillColor=#dae8fc;strokeColor=#6c8ebf;" vertex="1" parent="1">
          <mxGeometry x="-2316.5" y="3790" width="204" height="60" as="geometry" />
        </mxCell>
        <mxCell id="eKRL8oK7qd-l2Jsr5qjg-276" value="RES" style="edgeStyle=orthogonalEdgeStyle;rounded=0;orthogonalLoop=1;jettySize=auto;html=1;entryX=-0.042;entryY=0.945;entryDx=0;entryDy=0;entryPerimeter=0;" edge="1" parent="1" source="eKRL8oK7qd-l2Jsr5qjg-277" target="eKRL8oK7qd-l2Jsr5qjg-265">
          <mxGeometry relative="1" as="geometry" />
        </mxCell>
        <mxCell id="eKRL8oK7qd-l2Jsr5qjg-277" value="S4CP32020000 005506&lt;br&gt;CIP EGG STEP4" style="rounded=0;whiteSpace=wrap;html=1;fillColor=#f8cecc;strokeColor=#b85450;" vertex="1" parent="1">
          <mxGeometry x="-1909.5" y="3950" width="120" height="60" as="geometry" />
        </mxCell>
        <mxCell id="eKRL8oK7qd-l2Jsr5qjg-278" style="edgeStyle=orthogonalEdgeStyle;rounded=0;orthogonalLoop=1;jettySize=auto;html=1;entryX=0;entryY=0.5;entryDx=0;entryDy=0;" edge="1" parent="1" source="eKRL8oK7qd-l2Jsr5qjg-279" target="eKRL8oK7qd-l2Jsr5qjg-281">
          <mxGeometry relative="1" as="geometry" />
        </mxCell>
        <mxCell id="eKRL8oK7qd-l2Jsr5qjg-279" value="S1CP32020000&lt;br&gt;005503&lt;br&gt;CIP EGG STEP1" style="rounded=0;whiteSpace=wrap;html=1;fillColor=#f8cecc;strokeColor=#b85450;" vertex="1" parent="1">
          <mxGeometry x="-2384.5" y="3950" width="120" height="60" as="geometry" />
        </mxCell>
        <mxCell id="eKRL8oK7qd-l2Jsr5qjg-280" style="edgeStyle=orthogonalEdgeStyle;rounded=0;orthogonalLoop=1;jettySize=auto;html=1;entryX=0;entryY=0.5;entryDx=0;entryDy=0;" edge="1" parent="1" source="eKRL8oK7qd-l2Jsr5qjg-281" target="eKRL8oK7qd-l2Jsr5qjg-283">
          <mxGeometry relative="1" as="geometry" />
        </mxCell>
        <mxCell id="eKRL8oK7qd-l2Jsr5qjg-281" value="S2CP32020000 005504&lt;br&gt;CIP EGG STEP2" style="rounded=0;whiteSpace=wrap;html=1;fillColor=#f8cecc;strokeColor=#b85450;" vertex="1" parent="1">
          <mxGeometry x="-2224.5" y="3950" width="120" height="60" as="geometry" />
        </mxCell>
        <mxCell id="eKRL8oK7qd-l2Jsr5qjg-282" style="edgeStyle=orthogonalEdgeStyle;rounded=0;orthogonalLoop=1;jettySize=auto;html=1;" edge="1" parent="1" source="eKRL8oK7qd-l2Jsr5qjg-283" target="eKRL8oK7qd-l2Jsr5qjg-277">
          <mxGeometry relative="1" as="geometry" />
        </mxCell>
        <mxCell id="eKRL8oK7qd-l2Jsr5qjg-283" value="S3CP32020000 005505&lt;br&gt;CIP EGG STEP3" style="rounded=0;whiteSpace=wrap;html=1;fillColor=#f8cecc;strokeColor=#b85450;" vertex="1" parent="1">
          <mxGeometry x="-2064.5" y="3950" width="120" height="60" as="geometry" />
        </mxCell>
        <mxCell id="eKRL8oK7qd-l2Jsr5qjg-284" style="edgeStyle=orthogonalEdgeStyle;rounded=0;orthogonalLoop=1;jettySize=auto;html=1;entryX=0;entryY=0.5;entryDx=0;entryDy=0;" edge="1" parent="1" source="eKRL8oK7qd-l2Jsr5qjg-285" target="eKRL8oK7qd-l2Jsr5qjg-287">
          <mxGeometry relative="1" as="geometry" />
        </mxCell>
        <mxCell id="eKRL8oK7qd-l2Jsr5qjg-285" value="RS" style="rounded=0;whiteSpace=wrap;html=1;fillColor=#dae8fc;strokeColor=#6c8ebf;" vertex="1" parent="1">
          <mxGeometry x="-2012.5" y="4310" width="50" height="180" as="geometry" />
        </mxCell>
        <mxCell id="eKRL8oK7qd-l2Jsr5qjg-286" style="edgeStyle=orthogonalEdgeStyle;rounded=0;orthogonalLoop=1;jettySize=auto;html=1;" edge="1" parent="1" source="eKRL8oK7qd-l2Jsr5qjg-287">
          <mxGeometry relative="1" as="geometry">
            <mxPoint x="-1770" y="3980" as="targetPoint" />
          </mxGeometry>
        </mxCell>
        <mxCell id="eKRL8oK7qd-l2Jsr5qjg-287" value="S8CP32020001&lt;br&gt;CIP Egg Mix T Step8" style="rounded=1;whiteSpace=wrap;html=1;fillColor=#d5e8d4;strokeColor=#82b366;" vertex="1" parent="1">
          <mxGeometry x="-1922.5" y="4370" width="120" height="60" as="geometry" />
        </mxCell>
        <mxCell id="eKRL8oK7qd-l2Jsr5qjg-288" value="SET" style="edgeStyle=orthogonalEdgeStyle;rounded=0;orthogonalLoop=1;jettySize=auto;html=1;entryX=-0.022;entryY=0.279;entryDx=0;entryDy=0;entryPerimeter=0;" edge="1" parent="1" source="eKRL8oK7qd-l2Jsr5qjg-289" target="eKRL8oK7qd-l2Jsr5qjg-285">
          <mxGeometry x="0.5958" relative="1" as="geometry">
            <mxPoint x="-2104" y="4360" as="targetPoint" />
            <mxPoint as="offset" />
          </mxGeometry>
        </mxCell>
        <mxCell id="eKRL8oK7qd-l2Jsr5qjg-289" value="AcCNF32020000&lt;br&gt;005502&lt;br&gt;Button Confirm CIP egg syr" style="rounded=0;whiteSpace=wrap;html=1;fillColor=#d5e8d4;strokeColor=#82b366;" vertex="1" parent="1">
          <mxGeometry x="-2313.5" y="4330" width="120" height="60" as="geometry" />
        </mxCell>
        <mxCell id="eKRL8oK7qd-l2Jsr5qjg-290" style="edgeStyle=orthogonalEdgeStyle;rounded=0;orthogonalLoop=1;jettySize=auto;html=1;" edge="1" parent="1" source="eKRL8oK7qd-l2Jsr5qjg-291" target="eKRL8oK7qd-l2Jsr5qjg-289">
          <mxGeometry relative="1" as="geometry">
            <mxPoint x="-2320.0000000000005" y="4360" as="targetPoint" />
          </mxGeometry>
        </mxCell>
        <mxCell id="eKRL8oK7qd-l2Jsr5qjg-291" value="S1CP32020000&lt;br&gt;005503&lt;br&gt;CIP EGG STEP1" style="rounded=0;whiteSpace=wrap;html=1;fillColor=#d5e8d4;strokeColor=#82b366;" vertex="1" parent="1">
          <mxGeometry x="-2481" y="4330" width="120" height="60" as="geometry" />
        </mxCell>
        <mxCell id="eKRL8oK7qd-l2Jsr5qjg-292" style="edgeStyle=orthogonalEdgeStyle;rounded=0;orthogonalLoop=1;jettySize=auto;html=1;" edge="1" parent="1" source="eKRL8oK7qd-l2Jsr5qjg-293">
          <mxGeometry relative="1" as="geometry">
            <mxPoint x="-2179.999999999998" y="4360" as="targetPoint" />
          </mxGeometry>
        </mxCell>
        <mxCell id="eKRL8oK7qd-l2Jsr5qjg-293" value="S1CP32020000&lt;br&gt;005503&lt;br&gt;CIP EGG STEP1" style="rounded=0;whiteSpace=wrap;html=1;fillColor=#f8cecc;strokeColor=#b85450;" vertex="1" parent="1">
          <mxGeometry x="-2481" y="4420" width="120" height="60" as="geometry" />
        </mxCell>
        <mxCell id="eKRL8oK7qd-l2Jsr5qjg-294" style="edgeStyle=orthogonalEdgeStyle;rounded=0;orthogonalLoop=1;jettySize=auto;html=1;" edge="1" parent="1" source="eKRL8oK7qd-l2Jsr5qjg-295">
          <mxGeometry relative="1" as="geometry">
            <mxPoint x="-2179.999999999998" y="4360" as="targetPoint" />
          </mxGeometry>
        </mxCell>
        <mxCell id="eKRL8oK7qd-l2Jsr5qjg-295" value="AcWCP3202000&lt;br&gt;002300&lt;br&gt;Button Water CIP egg syr" style="rounded=0;whiteSpace=wrap;html=1;fillColor=#d5e8d4;strokeColor=#82b366;" vertex="1" parent="1">
          <mxGeometry x="-2481" y="4510" width="120" height="60" as="geometry" />
        </mxCell>
        <mxCell id="eKRL8oK7qd-l2Jsr5qjg-296" style="edgeStyle=orthogonalEdgeStyle;rounded=0;orthogonalLoop=1;jettySize=auto;html=1;entryX=0;entryY=0.5;entryDx=0;entryDy=0;" edge="1" parent="1" source="eKRL8oK7qd-l2Jsr5qjg-300" target="eKRL8oK7qd-l2Jsr5qjg-291">
          <mxGeometry relative="1" as="geometry" />
        </mxCell>
        <mxCell id="eKRL8oK7qd-l2Jsr5qjg-297" style="edgeStyle=orthogonalEdgeStyle;rounded=0;orthogonalLoop=1;jettySize=auto;html=1;entryX=0;entryY=0.5;entryDx=0;entryDy=0;" edge="1" parent="1" source="eKRL8oK7qd-l2Jsr5qjg-300" target="eKRL8oK7qd-l2Jsr5qjg-293">
          <mxGeometry relative="1" as="geometry">
            <Array as="points">
              <mxPoint x="-2530" y="4360" />
              <mxPoint x="-2530" y="4450" />
            </Array>
          </mxGeometry>
        </mxCell>
        <mxCell id="eKRL8oK7qd-l2Jsr5qjg-298" style="edgeStyle=orthogonalEdgeStyle;rounded=0;orthogonalLoop=1;jettySize=auto;html=1;entryX=0;entryY=0.5;entryDx=0;entryDy=0;" edge="1" parent="1" source="eKRL8oK7qd-l2Jsr5qjg-300" target="eKRL8oK7qd-l2Jsr5qjg-295">
          <mxGeometry relative="1" as="geometry">
            <Array as="points">
              <mxPoint x="-2530" y="4360" />
              <mxPoint x="-2530" y="4540" />
            </Array>
          </mxGeometry>
        </mxCell>
        <mxCell id="eKRL8oK7qd-l2Jsr5qjg-299" value="ET" style="edgeStyle=orthogonalEdgeStyle;rounded=0;orthogonalLoop=1;jettySize=auto;html=1;exitX=1;exitY=0.75;exitDx=0;exitDy=0;" edge="1" parent="1" source="eKRL8oK7qd-l2Jsr5qjg-300" target="eKRL8oK7qd-l2Jsr5qjg-301">
          <mxGeometry relative="1" as="geometry" />
        </mxCell>
        <mxCell id="eKRL8oK7qd-l2Jsr5qjg-300" value="TON" style="rounded=0;whiteSpace=wrap;html=1;fillColor=#dae8fc;strokeColor=#6c8ebf;" vertex="1" parent="1">
          <mxGeometry x="-2830" y="4305" width="110" height="110" as="geometry" />
        </mxCell>
        <mxCell id="eKRL8oK7qd-l2Jsr5qjg-301" value="S5TSP32020019" style="rounded=1;whiteSpace=wrap;html=1;fillColor=#d5e8d4;strokeColor=#82b366;" vertex="1" parent="1">
          <mxGeometry x="-2670" y="4390" width="120" height="60" as="geometry" />
        </mxCell>
        <mxCell id="eKRL8oK7qd-l2Jsr5qjg-302" value="Text" style="text;html=1;strokeColor=none;fillColor=none;align=center;verticalAlign=middle;whiteSpace=wrap;rounded=0;" vertex="1" parent="1">
          <mxGeometry x="-2400" y="4440" width="40" height="20" as="geometry" />
        </mxCell>
        <mxCell id="eKRL8oK7qd-l2Jsr5qjg-303" value="Text" style="text;html=1;strokeColor=none;fillColor=none;align=center;verticalAlign=middle;whiteSpace=wrap;rounded=0;" vertex="1" parent="1">
          <mxGeometry x="-2400" y="4440" width="40" height="20" as="geometry" />
        </mxCell>
        <mxCell id="eKRL8oK7qd-l2Jsr5qjg-304" value="PT" style="edgeStyle=orthogonalEdgeStyle;rounded=0;orthogonalLoop=1;jettySize=auto;html=1;entryX=0.007;entryY=0.864;entryDx=0;entryDy=0;entryPerimeter=0;" edge="1" parent="1" source="eKRL8oK7qd-l2Jsr5qjg-305" target="eKRL8oK7qd-l2Jsr5qjg-300">
          <mxGeometry relative="1" as="geometry" />
        </mxCell>
        <mxCell id="eKRL8oK7qd-l2Jsr5qjg-305" value="180s" style="text;html=1;strokeColor=none;fillColor=none;align=center;verticalAlign=middle;whiteSpace=wrap;rounded=0;" vertex="1" parent="1">
          <mxGeometry x="-2900" y="4390" width="40" height="20" as="geometry" />
        </mxCell>
        <mxCell id="eKRL8oK7qd-l2Jsr5qjg-306" value="IN" style="edgeStyle=orthogonalEdgeStyle;rounded=0;orthogonalLoop=1;jettySize=auto;html=1;entryX=0.006;entryY=0.318;entryDx=0;entryDy=0;entryPerimeter=0;" edge="1" parent="1" source="eKRL8oK7qd-l2Jsr5qjg-307" target="eKRL8oK7qd-l2Jsr5qjg-300">
          <mxGeometry relative="1" as="geometry" />
        </mxCell>
        <mxCell id="eKRL8oK7qd-l2Jsr5qjg-307" value="VCOp32020112&lt;br&gt;000050&lt;br&gt;Egg syr to Mix Valve" style="rounded=0;whiteSpace=wrap;html=1;fillColor=#d5e8d4;strokeColor=#82b366;" vertex="1" parent="1">
          <mxGeometry x="-3000" y="4310" width="120" height="60" as="geometry" />
        </mxCell>
        <mxCell id="eKRL8oK7qd-l2Jsr5qjg-308" style="edgeStyle=orthogonalEdgeStyle;rounded=0;orthogonalLoop=1;jettySize=auto;html=1;entryX=0;entryY=0.5;entryDx=0;entryDy=0;" edge="1" parent="1" source="eKRL8oK7qd-l2Jsr5qjg-309" target="eKRL8oK7qd-l2Jsr5qjg-307">
          <mxGeometry relative="1" as="geometry" />
        </mxCell>
        <mxCell id="eKRL8oK7qd-l2Jsr5qjg-309" value="S7CP32020001&lt;br&gt;CIP Egg Mix T Step7" style="rounded=0;whiteSpace=wrap;html=1;fillColor=#d5e8d4;strokeColor=#82b366;" vertex="1" parent="1">
          <mxGeometry x="-3170" y="4310" width="120" height="60" as="geometry" />
        </mxCell>
        <mxCell id="eKRL8oK7qd-l2Jsr5qjg-310" value="RES" style="edgeStyle=orthogonalEdgeStyle;rounded=0;orthogonalLoop=1;jettySize=auto;html=1;entryX=0;entryY=0.75;entryDx=0;entryDy=0;" edge="1" parent="1" source="eKRL8oK7qd-l2Jsr5qjg-311" target="eKRL8oK7qd-l2Jsr5qjg-285">
          <mxGeometry x="0.7608" relative="1" as="geometry">
            <Array as="points">
              <mxPoint x="-2090" y="4646" />
              <mxPoint x="-2090" y="4445" />
            </Array>
            <mxPoint as="offset" />
          </mxGeometry>
        </mxCell>
        <mxCell id="eKRL8oK7qd-l2Jsr5qjg-311" value="S4CP32020000 005506&lt;br&gt;CIP EGG STEP4" style="rounded=0;whiteSpace=wrap;html=1;fillColor=#f8cecc;strokeColor=#b85450;" vertex="1" parent="1">
          <mxGeometry x="-2245" y="4616" width="120" height="60" as="geometry" />
        </mxCell>
        <mxCell id="eKRL8oK7qd-l2Jsr5qjg-312" style="edgeStyle=orthogonalEdgeStyle;rounded=0;orthogonalLoop=1;jettySize=auto;html=1;entryX=0;entryY=0.5;entryDx=0;entryDy=0;" edge="1" parent="1" source="eKRL8oK7qd-l2Jsr5qjg-313" target="eKRL8oK7qd-l2Jsr5qjg-315">
          <mxGeometry relative="1" as="geometry" />
        </mxCell>
        <mxCell id="eKRL8oK7qd-l2Jsr5qjg-313" value="S1CP32020000&lt;br&gt;005503&lt;br&gt;CIP EGG STEP1" style="rounded=0;whiteSpace=wrap;html=1;fillColor=#f8cecc;strokeColor=#b85450;" vertex="1" parent="1">
          <mxGeometry x="-2720" y="4616" width="120" height="60" as="geometry" />
        </mxCell>
        <mxCell id="eKRL8oK7qd-l2Jsr5qjg-314" style="edgeStyle=orthogonalEdgeStyle;rounded=0;orthogonalLoop=1;jettySize=auto;html=1;entryX=0;entryY=0.5;entryDx=0;entryDy=0;" edge="1" parent="1" source="eKRL8oK7qd-l2Jsr5qjg-315" target="eKRL8oK7qd-l2Jsr5qjg-317">
          <mxGeometry relative="1" as="geometry" />
        </mxCell>
        <mxCell id="eKRL8oK7qd-l2Jsr5qjg-315" value="S2CP32020000 005504&lt;br&gt;CIP EGG STEP2" style="rounded=0;whiteSpace=wrap;html=1;fillColor=#f8cecc;strokeColor=#b85450;" vertex="1" parent="1">
          <mxGeometry x="-2560" y="4616" width="120" height="60" as="geometry" />
        </mxCell>
        <mxCell id="eKRL8oK7qd-l2Jsr5qjg-316" style="edgeStyle=orthogonalEdgeStyle;rounded=0;orthogonalLoop=1;jettySize=auto;html=1;" edge="1" parent="1" source="eKRL8oK7qd-l2Jsr5qjg-317" target="eKRL8oK7qd-l2Jsr5qjg-311">
          <mxGeometry relative="1" as="geometry" />
        </mxCell>
        <mxCell id="eKRL8oK7qd-l2Jsr5qjg-317" value="S3CP32020000 005505&lt;br&gt;CIP EGG STEP3" style="rounded=0;whiteSpace=wrap;html=1;fillColor=#f8cecc;strokeColor=#b85450;" vertex="1" parent="1">
          <mxGeometry x="-2400" y="4616" width="120" height="60" as="geometry" />
        </mxCell>
        <mxCell id="eKRL8oK7qd-l2Jsr5qjg-318" style="edgeStyle=orthogonalEdgeStyle;rounded=0;orthogonalLoop=1;jettySize=auto;html=1;" edge="1" parent="1" source="eKRL8oK7qd-l2Jsr5qjg-319">
          <mxGeometry relative="1" as="geometry">
            <mxPoint x="-2090.000000000002" y="4640" as="targetPoint" />
          </mxGeometry>
        </mxCell>
        <mxCell id="eKRL8oK7qd-l2Jsr5qjg-319" value="P FRONT&lt;br&gt;S2CP32020000 005504&lt;br&gt;CIP EGG STEP2" style="rounded=0;whiteSpace=wrap;html=1;fillColor=#fff2cc;strokeColor=#d6b656;" vertex="1" parent="1">
          <mxGeometry x="-2721" y="4720" width="120" height="60" as="geometry" />
        </mxCell>
        <mxCell id="eKRL8oK7qd-l2Jsr5qjg-320" style="edgeStyle=orthogonalEdgeStyle;rounded=0;orthogonalLoop=1;jettySize=auto;html=1;" edge="1" parent="1" source="eKRL8oK7qd-l2Jsr5qjg-321">
          <mxGeometry relative="1" as="geometry">
            <mxPoint x="-2490.000000000002" y="4750" as="targetPoint" />
          </mxGeometry>
        </mxCell>
        <mxCell id="eKRL8oK7qd-l2Jsr5qjg-321" value="P FRONT&lt;br&gt;S3CP32020000 005505&lt;br&gt;CIP EGG STEP3" style="rounded=0;whiteSpace=wrap;html=1;fillColor=#fff2cc;strokeColor=#d6b656;" vertex="1" parent="1">
          <mxGeometry x="-2721" y="4800" width="120" height="60" as="geometry" />
        </mxCell>
        <mxCell id="eKRL8oK7qd-l2Jsr5qjg-322" style="edgeStyle=orthogonalEdgeStyle;rounded=0;orthogonalLoop=1;jettySize=auto;html=1;" edge="1" parent="1" source="eKRL8oK7qd-l2Jsr5qjg-323">
          <mxGeometry relative="1" as="geometry">
            <mxPoint x="-2490.000000000002" y="4750" as="targetPoint" />
          </mxGeometry>
        </mxCell>
        <mxCell id="eKRL8oK7qd-l2Jsr5qjg-323" value="P FRONT&lt;br&gt;S4CP32020000 005506&lt;br&gt;CIP EGG STEP4" style="rounded=0;whiteSpace=wrap;html=1;fillColor=#fff2cc;strokeColor=#d6b656;" vertex="1" parent="1">
          <mxGeometry x="-2721" y="4880" width="120" height="60" as="geometry" />
        </mxCell>
        <mxCell id="eKRL8oK7qd-l2Jsr5qjg-324" value="" style="endArrow=none;dashed=1;html=1;dashPattern=1 3;strokeWidth=2;" edge="1" parent="1">
          <mxGeometry width="50" height="50" relative="1" as="geometry">
            <mxPoint x="-1010" y="1660" as="sourcePoint" />
            <mxPoint x="-960" y="1610" as="targetPoint" />
          </mxGeometry>
        </mxCell>
        <mxCell id="eKRL8oK7qd-l2Jsr5qjg-325" style="edgeStyle=orthogonalEdgeStyle;rounded=0;orthogonalLoop=1;jettySize=auto;html=1;entryX=0;entryY=0.5;entryDx=0;entryDy=0;" edge="1" parent="1" source="eKRL8oK7qd-l2Jsr5qjg-326" target="eKRL8oK7qd-l2Jsr5qjg-327">
          <mxGeometry relative="1" as="geometry" />
        </mxCell>
        <mxCell id="eKRL8oK7qd-l2Jsr5qjg-326" value="RS" style="rounded=0;whiteSpace=wrap;html=1;fillColor=#dae8fc;strokeColor=#6c8ebf;" vertex="1" parent="1">
          <mxGeometry x="-875" y="4960" width="50" height="180" as="geometry" />
        </mxCell>
        <mxCell id="eKRL8oK7qd-l2Jsr5qjg-327" value="S1CP32020002&lt;br&gt;CIP egg syr hold T Step 1" style="rounded=1;whiteSpace=wrap;html=1;fillColor=#d5e8d4;strokeColor=#82b366;" vertex="1" parent="1">
          <mxGeometry x="-785" y="5020" width="120" height="60" as="geometry" />
        </mxCell>
        <mxCell id="eKRL8oK7qd-l2Jsr5qjg-328" style="edgeStyle=orthogonalEdgeStyle;rounded=0;orthogonalLoop=1;jettySize=auto;html=1;entryX=0;entryY=0.5;entryDx=0;entryDy=0;" edge="1" parent="1" source="eKRL8oK7qd-l2Jsr5qjg-332" target="eKRL8oK7qd-l2Jsr5qjg-340">
          <mxGeometry relative="1" as="geometry" />
        </mxCell>
        <mxCell id="eKRL8oK7qd-l2Jsr5qjg-329" style="edgeStyle=orthogonalEdgeStyle;rounded=0;orthogonalLoop=1;jettySize=auto;html=1;entryX=0;entryY=0.5;entryDx=0;entryDy=0;" edge="1" parent="1" source="eKRL8oK7qd-l2Jsr5qjg-332" target="eKRL8oK7qd-l2Jsr5qjg-342">
          <mxGeometry relative="1" as="geometry" />
        </mxCell>
        <mxCell id="eKRL8oK7qd-l2Jsr5qjg-330" style="edgeStyle=orthogonalEdgeStyle;rounded=0;orthogonalLoop=1;jettySize=auto;html=1;entryX=0;entryY=0.5;entryDx=0;entryDy=0;" edge="1" parent="1" source="eKRL8oK7qd-l2Jsr5qjg-332" target="eKRL8oK7qd-l2Jsr5qjg-344">
          <mxGeometry relative="1" as="geometry" />
        </mxCell>
        <mxCell id="eKRL8oK7qd-l2Jsr5qjg-331" style="edgeStyle=orthogonalEdgeStyle;rounded=0;orthogonalLoop=1;jettySize=auto;html=1;entryX=0;entryY=0.5;entryDx=0;entryDy=0;" edge="1" parent="1" source="eKRL8oK7qd-l2Jsr5qjg-332" target="eKRL8oK7qd-l2Jsr5qjg-346">
          <mxGeometry relative="1" as="geometry" />
        </mxCell>
        <mxCell id="eKRL8oK7qd-l2Jsr5qjg-332" value="TON" style="rounded=0;whiteSpace=wrap;html=1;fillColor=#dae8fc;strokeColor=#6c8ebf;" vertex="1" parent="1">
          <mxGeometry x="-1480" y="5030" width="110" height="110" as="geometry" />
        </mxCell>
        <mxCell id="eKRL8oK7qd-l2Jsr5qjg-333" value="PT" style="edgeStyle=orthogonalEdgeStyle;rounded=0;orthogonalLoop=1;jettySize=auto;html=1;entryX=0.007;entryY=0.864;entryDx=0;entryDy=0;entryPerimeter=0;" edge="1" parent="1" source="eKRL8oK7qd-l2Jsr5qjg-334" target="eKRL8oK7qd-l2Jsr5qjg-332">
          <mxGeometry relative="1" as="geometry" />
        </mxCell>
        <mxCell id="eKRL8oK7qd-l2Jsr5qjg-334" value="15S" style="text;html=1;strokeColor=none;fillColor=none;align=center;verticalAlign=middle;whiteSpace=wrap;rounded=0;" vertex="1" parent="1">
          <mxGeometry x="-1550" y="5115" width="40" height="20" as="geometry" />
        </mxCell>
        <mxCell id="eKRL8oK7qd-l2Jsr5qjg-335" value="IN" style="edgeStyle=orthogonalEdgeStyle;rounded=0;orthogonalLoop=1;jettySize=auto;html=1;entryX=0.006;entryY=0.318;entryDx=0;entryDy=0;entryPerimeter=0;" edge="1" parent="1" source="eKRL8oK7qd-l2Jsr5qjg-336" target="eKRL8oK7qd-l2Jsr5qjg-332">
          <mxGeometry relative="1" as="geometry" />
        </mxCell>
        <mxCell id="eKRL8oK7qd-l2Jsr5qjg-336" value="VCOp32020104&lt;br&gt;000057&lt;br&gt;Egg syr supply valve" style="rounded=0;whiteSpace=wrap;html=1;fillColor=#d5e8d4;strokeColor=#82b366;" vertex="1" parent="1">
          <mxGeometry x="-1650" y="5035" width="120" height="60" as="geometry" />
        </mxCell>
        <mxCell id="eKRL8oK7qd-l2Jsr5qjg-337" style="edgeStyle=orthogonalEdgeStyle;rounded=0;orthogonalLoop=1;jettySize=auto;html=1;entryX=0;entryY=0.5;entryDx=0;entryDy=0;" edge="1" parent="1" source="eKRL8oK7qd-l2Jsr5qjg-338" target="eKRL8oK7qd-l2Jsr5qjg-336">
          <mxGeometry relative="1" as="geometry" />
        </mxCell>
        <mxCell id="eKRL8oK7qd-l2Jsr5qjg-338" value="S6CP32020001&lt;br&gt;CIP egg syr Mix T Step 6" style="rounded=0;whiteSpace=wrap;html=1;fillColor=#d5e8d4;strokeColor=#82b366;" vertex="1" parent="1">
          <mxGeometry x="-1820" y="5035" width="120" height="60" as="geometry" />
        </mxCell>
        <mxCell id="eKRL8oK7qd-l2Jsr5qjg-339" value="SET" style="edgeStyle=orthogonalEdgeStyle;rounded=0;orthogonalLoop=1;jettySize=auto;html=1;entryX=0;entryY=0.25;entryDx=0;entryDy=0;" edge="1" parent="1" source="eKRL8oK7qd-l2Jsr5qjg-340" target="eKRL8oK7qd-l2Jsr5qjg-326">
          <mxGeometry x="0.6812" relative="1" as="geometry">
            <mxPoint as="offset" />
          </mxGeometry>
        </mxCell>
        <mxCell id="eKRL8oK7qd-l2Jsr5qjg-340" value="S1CP32020000&lt;br&gt;005503&lt;br&gt;CIP EGG STEP1" style="rounded=0;whiteSpace=wrap;html=1;fillColor=#d5e8d4;strokeColor=#82b366;" vertex="1" parent="1">
          <mxGeometry x="-1260" y="5055" width="120" height="60" as="geometry" />
        </mxCell>
        <mxCell id="eKRL8oK7qd-l2Jsr5qjg-341" value="SET" style="edgeStyle=orthogonalEdgeStyle;rounded=0;orthogonalLoop=1;jettySize=auto;html=1;entryX=0;entryY=0.25;entryDx=0;entryDy=0;" edge="1" parent="1" source="eKRL8oK7qd-l2Jsr5qjg-342" target="eKRL8oK7qd-l2Jsr5qjg-348">
          <mxGeometry x="0.8509" relative="1" as="geometry">
            <Array as="points">
              <mxPoint x="-620" y="5170" />
              <mxPoint x="-620" y="5005" />
            </Array>
            <mxPoint x="1" as="offset" />
          </mxGeometry>
        </mxCell>
        <mxCell id="eKRL8oK7qd-l2Jsr5qjg-342" value="S2CP32020000 005504&lt;br&gt;CIP EGG STEP2" style="rounded=0;whiteSpace=wrap;html=1;fillColor=#d5e8d4;strokeColor=#82b366;" vertex="1" parent="1">
          <mxGeometry x="-1260" y="5140" width="120" height="60" as="geometry" />
        </mxCell>
        <mxCell id="eKRL8oK7qd-l2Jsr5qjg-343" value="SET" style="edgeStyle=orthogonalEdgeStyle;rounded=0;orthogonalLoop=1;jettySize=auto;html=1;entryX=0;entryY=0.25;entryDx=0;entryDy=0;" edge="1" parent="1" source="eKRL8oK7qd-l2Jsr5qjg-344" target="eKRL8oK7qd-l2Jsr5qjg-351">
          <mxGeometry x="0.9036" relative="1" as="geometry">
            <Array as="points">
              <mxPoint x="-260" y="5260" />
              <mxPoint x="-260" y="5005" />
            </Array>
            <mxPoint x="1" as="offset" />
          </mxGeometry>
        </mxCell>
        <mxCell id="eKRL8oK7qd-l2Jsr5qjg-344" value="S3CP32020000 005505&lt;br&gt;CIP EGG STEP3" style="rounded=0;whiteSpace=wrap;html=1;fillColor=#d5e8d4;strokeColor=#82b366;" vertex="1" parent="1">
          <mxGeometry x="-1260" y="5230" width="120" height="60" as="geometry" />
        </mxCell>
        <mxCell id="eKRL8oK7qd-l2Jsr5qjg-345" value="SET" style="edgeStyle=orthogonalEdgeStyle;rounded=0;orthogonalLoop=1;jettySize=auto;html=1;entryX=0;entryY=0.25;entryDx=0;entryDy=0;" edge="1" parent="1" source="eKRL8oK7qd-l2Jsr5qjg-346" target="eKRL8oK7qd-l2Jsr5qjg-354">
          <mxGeometry x="0.9399" relative="1" as="geometry">
            <Array as="points">
              <mxPoint x="90" y="5350" />
              <mxPoint x="90" y="5005" />
            </Array>
            <mxPoint x="1" as="offset" />
          </mxGeometry>
        </mxCell>
        <mxCell id="eKRL8oK7qd-l2Jsr5qjg-346" value="S4CP32020000 005506&lt;br&gt;CIP EGG STEP4" style="rounded=0;whiteSpace=wrap;html=1;fillColor=#d5e8d4;strokeColor=#82b366;" vertex="1" parent="1">
          <mxGeometry x="-1260" y="5320" width="120" height="60" as="geometry" />
        </mxCell>
        <mxCell id="eKRL8oK7qd-l2Jsr5qjg-347" style="edgeStyle=orthogonalEdgeStyle;rounded=0;orthogonalLoop=1;jettySize=auto;html=1;entryX=0;entryY=0.5;entryDx=0;entryDy=0;" edge="1" parent="1" source="eKRL8oK7qd-l2Jsr5qjg-348" target="eKRL8oK7qd-l2Jsr5qjg-349">
          <mxGeometry relative="1" as="geometry" />
        </mxCell>
        <mxCell id="eKRL8oK7qd-l2Jsr5qjg-348" value="RS" style="rounded=0;whiteSpace=wrap;html=1;fillColor=#dae8fc;strokeColor=#6c8ebf;" vertex="1" parent="1">
          <mxGeometry x="-500" y="4960" width="50" height="180" as="geometry" />
        </mxCell>
        <mxCell id="eKRL8oK7qd-l2Jsr5qjg-349" value="S2CP32020002&lt;br&gt;CIP egg syr hold T Step 2" style="rounded=1;whiteSpace=wrap;html=1;fillColor=#d5e8d4;strokeColor=#82b366;" vertex="1" parent="1">
          <mxGeometry x="-410" y="5020" width="120" height="60" as="geometry" />
        </mxCell>
        <mxCell id="eKRL8oK7qd-l2Jsr5qjg-350" style="edgeStyle=orthogonalEdgeStyle;rounded=0;orthogonalLoop=1;jettySize=auto;html=1;entryX=0;entryY=0.5;entryDx=0;entryDy=0;" edge="1" parent="1" source="eKRL8oK7qd-l2Jsr5qjg-351" target="eKRL8oK7qd-l2Jsr5qjg-352">
          <mxGeometry relative="1" as="geometry" />
        </mxCell>
        <mxCell id="eKRL8oK7qd-l2Jsr5qjg-351" value="RS" style="rounded=0;whiteSpace=wrap;html=1;fillColor=#dae8fc;strokeColor=#6c8ebf;" vertex="1" parent="1">
          <mxGeometry x="-150" y="4960" width="50" height="180" as="geometry" />
        </mxCell>
        <mxCell id="eKRL8oK7qd-l2Jsr5qjg-352" value="S3CP32020002&lt;br&gt;CIP egg syr hold T Step 3" style="rounded=1;whiteSpace=wrap;html=1;fillColor=#d5e8d4;strokeColor=#82b366;" vertex="1" parent="1">
          <mxGeometry x="-60" y="5020" width="120" height="60" as="geometry" />
        </mxCell>
        <mxCell id="eKRL8oK7qd-l2Jsr5qjg-353" style="edgeStyle=orthogonalEdgeStyle;rounded=0;orthogonalLoop=1;jettySize=auto;html=1;entryX=0;entryY=0.5;entryDx=0;entryDy=0;" edge="1" parent="1" source="eKRL8oK7qd-l2Jsr5qjg-354" target="eKRL8oK7qd-l2Jsr5qjg-355">
          <mxGeometry relative="1" as="geometry" />
        </mxCell>
        <mxCell id="eKRL8oK7qd-l2Jsr5qjg-354" value="RS" style="rounded=0;whiteSpace=wrap;html=1;fillColor=#dae8fc;strokeColor=#6c8ebf;" vertex="1" parent="1">
          <mxGeometry x="180" y="4960" width="50" height="180" as="geometry" />
        </mxCell>
        <mxCell id="eKRL8oK7qd-l2Jsr5qjg-355" value="S4CP32020002&lt;br&gt;CIP egg syr hold T Step 4" style="rounded=1;whiteSpace=wrap;html=1;fillColor=#d5e8d4;strokeColor=#82b366;" vertex="1" parent="1">
          <mxGeometry x="270" y="5020" width="120" height="60" as="geometry" />
        </mxCell>
        <mxCell id="eKRL8oK7qd-l2Jsr5qjg-356" value="RES" style="edgeStyle=orthogonalEdgeStyle;rounded=0;orthogonalLoop=1;jettySize=auto;html=1;entryX=0;entryY=0.75;entryDx=0;entryDy=0;fillColor=#f8cecc;strokeColor=#b85450;" edge="1" parent="1" source="eKRL8oK7qd-l2Jsr5qjg-360" target="eKRL8oK7qd-l2Jsr5qjg-326">
          <mxGeometry x="0.8923" relative="1" as="geometry">
            <Array as="points">
              <mxPoint x="-940" y="5480" />
              <mxPoint x="-940" y="5095" />
            </Array>
            <mxPoint x="1" as="offset" />
          </mxGeometry>
        </mxCell>
        <mxCell id="eKRL8oK7qd-l2Jsr5qjg-357" value="RES" style="edgeStyle=orthogonalEdgeStyle;rounded=0;orthogonalLoop=1;jettySize=auto;html=1;entryX=0;entryY=0.75;entryDx=0;entryDy=0;fillColor=#f8cecc;strokeColor=#b85450;" edge="1" parent="1" source="eKRL8oK7qd-l2Jsr5qjg-360" target="eKRL8oK7qd-l2Jsr5qjg-348">
          <mxGeometry x="0.922" relative="1" as="geometry">
            <Array as="points">
              <mxPoint x="-570" y="5480" />
              <mxPoint x="-570" y="5095" />
            </Array>
            <mxPoint x="-1" as="offset" />
          </mxGeometry>
        </mxCell>
        <mxCell id="eKRL8oK7qd-l2Jsr5qjg-358" value="RES" style="edgeStyle=orthogonalEdgeStyle;rounded=0;orthogonalLoop=1;jettySize=auto;html=1;entryX=0;entryY=0.75;entryDx=0;entryDy=0;fillColor=#f8cecc;strokeColor=#b85450;" edge="1" parent="1" source="eKRL8oK7qd-l2Jsr5qjg-360" target="eKRL8oK7qd-l2Jsr5qjg-351">
          <mxGeometry x="0.9418" relative="1" as="geometry">
            <Array as="points">
              <mxPoint x="-220" y="5480" />
              <mxPoint x="-220" y="5095" />
            </Array>
            <mxPoint x="1" as="offset" />
          </mxGeometry>
        </mxCell>
        <mxCell id="eKRL8oK7qd-l2Jsr5qjg-359" value="RES" style="edgeStyle=orthogonalEdgeStyle;rounded=0;orthogonalLoop=1;jettySize=auto;html=1;entryX=0;entryY=0.75;entryDx=0;entryDy=0;fillColor=#f8cecc;strokeColor=#b85450;" edge="1" parent="1" source="eKRL8oK7qd-l2Jsr5qjg-360" target="eKRL8oK7qd-l2Jsr5qjg-354">
          <mxGeometry x="0.9648" relative="1" as="geometry">
            <Array as="points">
              <mxPoint x="130" y="5480" />
              <mxPoint x="130" y="5095" />
            </Array>
            <mxPoint x="1" as="offset" />
          </mxGeometry>
        </mxCell>
        <mxCell id="eKRL8oK7qd-l2Jsr5qjg-360" value="S5CP32020002&lt;br&gt;CIP egg syr Hold tank Step 5" style="rounded=0;whiteSpace=wrap;html=1;fillColor=#d5e8d4;strokeColor=#82b366;" vertex="1" parent="1">
          <mxGeometry x="-1260" y="5450" width="120" height="60" as="geometry" />
        </mxCell>
        <mxCell id="eKRL8oK7qd-l2Jsr5qjg-361" style="edgeStyle=orthogonalEdgeStyle;rounded=0;orthogonalLoop=1;jettySize=auto;html=1;fillColor=#f8cecc;strokeColor=#b85450;" edge="1" parent="1" source="eKRL8oK7qd-l2Jsr5qjg-362">
          <mxGeometry relative="1" as="geometry">
            <mxPoint x="-1060" y="5480" as="targetPoint" />
          </mxGeometry>
        </mxCell>
        <mxCell id="eKRL8oK7qd-l2Jsr5qjg-362" value="S4CP32020000 005506&lt;br&gt;CIP EGG STEP4" style="rounded=0;whiteSpace=wrap;html=1;fillColor=#f8cecc;strokeColor=#b85450;" vertex="1" parent="1">
          <mxGeometry x="-1260" y="5560" width="120" height="60" as="geometry" />
        </mxCell>
        <mxCell id="eKRL8oK7qd-l2Jsr5qjg-363" style="edgeStyle=orthogonalEdgeStyle;rounded=0;orthogonalLoop=1;jettySize=auto;html=1;entryX=0;entryY=0.5;entryDx=0;entryDy=0;" edge="1" parent="1" source="eKRL8oK7qd-l2Jsr5qjg-364" target="eKRL8oK7qd-l2Jsr5qjg-366">
          <mxGeometry relative="1" as="geometry" />
        </mxCell>
        <mxCell id="eKRL8oK7qd-l2Jsr5qjg-364" value="S1CP32020000&lt;br&gt;005503&lt;br&gt;CIP EGG STEP1" style="rounded=0;whiteSpace=wrap;html=1;fillColor=#f8cecc;strokeColor=#b85450;" vertex="1" parent="1">
          <mxGeometry x="-1735" y="5560" width="120" height="60" as="geometry" />
        </mxCell>
        <mxCell id="eKRL8oK7qd-l2Jsr5qjg-365" style="edgeStyle=orthogonalEdgeStyle;rounded=0;orthogonalLoop=1;jettySize=auto;html=1;entryX=0;entryY=0.5;entryDx=0;entryDy=0;" edge="1" parent="1" source="eKRL8oK7qd-l2Jsr5qjg-366" target="eKRL8oK7qd-l2Jsr5qjg-368">
          <mxGeometry relative="1" as="geometry" />
        </mxCell>
        <mxCell id="eKRL8oK7qd-l2Jsr5qjg-366" value="S2CP32020000 005504&lt;br&gt;CIP EGG STEP2" style="rounded=0;whiteSpace=wrap;html=1;fillColor=#f8cecc;strokeColor=#b85450;" vertex="1" parent="1">
          <mxGeometry x="-1575" y="5560" width="120" height="60" as="geometry" />
        </mxCell>
        <mxCell id="eKRL8oK7qd-l2Jsr5qjg-367" style="edgeStyle=orthogonalEdgeStyle;rounded=0;orthogonalLoop=1;jettySize=auto;html=1;" edge="1" parent="1" source="eKRL8oK7qd-l2Jsr5qjg-368" target="eKRL8oK7qd-l2Jsr5qjg-362">
          <mxGeometry relative="1" as="geometry" />
        </mxCell>
        <mxCell id="eKRL8oK7qd-l2Jsr5qjg-368" value="S3CP32020000 005505&lt;br&gt;CIP EGG STEP3" style="rounded=0;whiteSpace=wrap;html=1;fillColor=#f8cecc;strokeColor=#b85450;" vertex="1" parent="1">
          <mxGeometry x="-1415" y="5560" width="120" height="60" as="geometry" />
        </mxCell>
        <mxCell id="eKRL8oK7qd-l2Jsr5qjg-369" style="edgeStyle=orthogonalEdgeStyle;rounded=0;orthogonalLoop=1;jettySize=auto;html=1;entryX=0;entryY=0.5;entryDx=0;entryDy=0;" edge="1" parent="1" source="eKRL8oK7qd-l2Jsr5qjg-370" target="eKRL8oK7qd-l2Jsr5qjg-372">
          <mxGeometry relative="1" as="geometry" />
        </mxCell>
        <mxCell id="eKRL8oK7qd-l2Jsr5qjg-370" value="RS" style="rounded=0;whiteSpace=wrap;html=1;fillColor=#dae8fc;strokeColor=#6c8ebf;" vertex="1" parent="1">
          <mxGeometry x="-1820" y="5300" width="50" height="180" as="geometry" />
        </mxCell>
        <mxCell id="eKRL8oK7qd-l2Jsr5qjg-371" style="edgeStyle=orthogonalEdgeStyle;rounded=0;orthogonalLoop=1;jettySize=auto;html=1;entryX=0;entryY=0.5;entryDx=0;entryDy=0;fillColor=#fff2cc;strokeColor=#d6b656;" edge="1" parent="1" source="eKRL8oK7qd-l2Jsr5qjg-372" target="eKRL8oK7qd-l2Jsr5qjg-360">
          <mxGeometry relative="1" as="geometry" />
        </mxCell>
        <mxCell id="eKRL8oK7qd-l2Jsr5qjg-372" value="S5CP32020002&lt;br&gt;CIP egg syr Hold tank Step 5" style="rounded=1;whiteSpace=wrap;html=1;fillColor=#d5e8d4;strokeColor=#82b366;" vertex="1" parent="1">
          <mxGeometry x="-1730" y="5360" width="120" height="60" as="geometry" />
        </mxCell>
        <mxCell id="eKRL8oK7qd-l2Jsr5qjg-373" value="ET" style="edgeStyle=orthogonalEdgeStyle;rounded=0;orthogonalLoop=1;jettySize=auto;html=1;exitX=1;exitY=0.75;exitDx=0;exitDy=0;" edge="1" parent="1" source="eKRL8oK7qd-l2Jsr5qjg-375" target="eKRL8oK7qd-l2Jsr5qjg-376">
          <mxGeometry relative="1" as="geometry" />
        </mxCell>
        <mxCell id="eKRL8oK7qd-l2Jsr5qjg-374" value="SET" style="edgeStyle=orthogonalEdgeStyle;rounded=0;orthogonalLoop=1;jettySize=auto;html=1;entryX=0;entryY=0.25;entryDx=0;entryDy=0;" edge="1" parent="1" source="eKRL8oK7qd-l2Jsr5qjg-375" target="eKRL8oK7qd-l2Jsr5qjg-370">
          <mxGeometry x="0.7778" relative="1" as="geometry">
            <mxPoint as="offset" />
          </mxGeometry>
        </mxCell>
        <mxCell id="eKRL8oK7qd-l2Jsr5qjg-375" value="TON" style="rounded=0;whiteSpace=wrap;html=1;fillColor=#dae8fc;strokeColor=#6c8ebf;" vertex="1" parent="1">
          <mxGeometry x="-2290" y="5290" width="110" height="110" as="geometry" />
        </mxCell>
        <mxCell id="eKRL8oK7qd-l2Jsr5qjg-376" value="S5TSP32020015" style="rounded=1;whiteSpace=wrap;html=1;fillColor=#d5e8d4;strokeColor=#82b366;" vertex="1" parent="1">
          <mxGeometry x="-2130" y="5375" width="120" height="60" as="geometry" />
        </mxCell>
        <mxCell id="eKRL8oK7qd-l2Jsr5qjg-377" value="PT" style="edgeStyle=orthogonalEdgeStyle;rounded=0;orthogonalLoop=1;jettySize=auto;html=1;entryX=0.012;entryY=0.913;entryDx=0;entryDy=0;entryPerimeter=0;exitX=1;exitY=0.5;exitDx=0;exitDy=0;" edge="1" parent="1" source="eKRL8oK7qd-l2Jsr5qjg-382" target="eKRL8oK7qd-l2Jsr5qjg-375">
          <mxGeometry relative="1" as="geometry">
            <mxPoint x="-2320" y="5385" as="sourcePoint" />
          </mxGeometry>
        </mxCell>
        <mxCell id="eKRL8oK7qd-l2Jsr5qjg-378" value="IN" style="edgeStyle=orthogonalEdgeStyle;rounded=0;orthogonalLoop=1;jettySize=auto;html=1;entryX=0.012;entryY=0.099;entryDx=0;entryDy=0;entryPerimeter=0;" edge="1" parent="1" source="eKRL8oK7qd-l2Jsr5qjg-379" target="eKRL8oK7qd-l2Jsr5qjg-375">
          <mxGeometry relative="1" as="geometry">
            <mxPoint x="-2292" y="5296" as="targetPoint" />
          </mxGeometry>
        </mxCell>
        <mxCell id="eKRL8oK7qd-l2Jsr5qjg-379" value="MCSt32020212&lt;br&gt;000031&lt;br&gt;Holding tank unloading pump" style="rounded=0;whiteSpace=wrap;html=1;fillColor=#d5e8d4;strokeColor=#82b366;" vertex="1" parent="1">
          <mxGeometry x="-2460" y="5270" width="120" height="60" as="geometry" />
        </mxCell>
        <mxCell id="eKRL8oK7qd-l2Jsr5qjg-380" style="edgeStyle=orthogonalEdgeStyle;rounded=0;orthogonalLoop=1;jettySize=auto;html=1;entryX=0;entryY=0.5;entryDx=0;entryDy=0;" edge="1" parent="1" source="eKRL8oK7qd-l2Jsr5qjg-381" target="eKRL8oK7qd-l2Jsr5qjg-379">
          <mxGeometry relative="1" as="geometry" />
        </mxCell>
        <mxCell id="eKRL8oK7qd-l2Jsr5qjg-381" value="S1CP32020002&lt;br&gt;CIP egg syr hold T Step 1" style="rounded=0;whiteSpace=wrap;html=1;fillColor=#d5e8d4;strokeColor=#82b366;" vertex="1" parent="1">
          <mxGeometry x="-2630" y="5270" width="120" height="60" as="geometry" />
        </mxCell>
        <mxCell id="eKRL8oK7qd-l2Jsr5qjg-382" value="S5TSP32020001 X 1m&lt;br&gt;404518&lt;br&gt;CIP egg syr Mix T Step 5: Time SP" style="rounded=0;whiteSpace=wrap;html=1;fillColor=#dae8fc;strokeColor=#6c8ebf;" vertex="1" parent="1">
          <mxGeometry x="-2580" y="5360" width="204" height="60" as="geometry" />
        </mxCell>
        <mxCell id="eKRL8oK7qd-l2Jsr5qjg-383" value="ET" style="edgeStyle=orthogonalEdgeStyle;rounded=0;orthogonalLoop=1;jettySize=auto;html=1;exitX=1;exitY=0.75;exitDx=0;exitDy=0;" edge="1" parent="1" source="eKRL8oK7qd-l2Jsr5qjg-385" target="eKRL8oK7qd-l2Jsr5qjg-386">
          <mxGeometry relative="1" as="geometry" />
        </mxCell>
        <mxCell id="eKRL8oK7qd-l2Jsr5qjg-384" style="edgeStyle=orthogonalEdgeStyle;rounded=0;orthogonalLoop=1;jettySize=auto;html=1;" edge="1" parent="1" source="eKRL8oK7qd-l2Jsr5qjg-385">
          <mxGeometry relative="1" as="geometry">
            <mxPoint x="-1960" y="5350" as="targetPoint" />
          </mxGeometry>
        </mxCell>
        <mxCell id="eKRL8oK7qd-l2Jsr5qjg-385" value="TON" style="rounded=0;whiteSpace=wrap;html=1;fillColor=#dae8fc;strokeColor=#6c8ebf;" vertex="1" parent="1">
          <mxGeometry x="-2290" y="5475" width="110" height="110" as="geometry" />
        </mxCell>
        <mxCell id="eKRL8oK7qd-l2Jsr5qjg-386" value="S5TSP32020016" style="rounded=1;whiteSpace=wrap;html=1;fillColor=#d5e8d4;strokeColor=#82b366;" vertex="1" parent="1">
          <mxGeometry x="-2130" y="5560" width="120" height="60" as="geometry" />
        </mxCell>
        <mxCell id="eKRL8oK7qd-l2Jsr5qjg-387" value="PT" style="edgeStyle=orthogonalEdgeStyle;rounded=0;orthogonalLoop=1;jettySize=auto;html=1;entryX=0.012;entryY=0.913;entryDx=0;entryDy=0;entryPerimeter=0;exitX=1;exitY=0.5;exitDx=0;exitDy=0;" edge="1" parent="1" source="eKRL8oK7qd-l2Jsr5qjg-392" target="eKRL8oK7qd-l2Jsr5qjg-385">
          <mxGeometry relative="1" as="geometry">
            <mxPoint x="-2320" y="5570" as="sourcePoint" />
          </mxGeometry>
        </mxCell>
        <mxCell id="eKRL8oK7qd-l2Jsr5qjg-388" value="IN" style="edgeStyle=orthogonalEdgeStyle;rounded=0;orthogonalLoop=1;jettySize=auto;html=1;entryX=0.012;entryY=0.099;entryDx=0;entryDy=0;entryPerimeter=0;" edge="1" parent="1" source="eKRL8oK7qd-l2Jsr5qjg-389" target="eKRL8oK7qd-l2Jsr5qjg-385">
          <mxGeometry relative="1" as="geometry">
            <mxPoint x="-2292" y="5481" as="targetPoint" />
          </mxGeometry>
        </mxCell>
        <mxCell id="eKRL8oK7qd-l2Jsr5qjg-389" value="MCSt32020212&lt;br&gt;000031&lt;br&gt;Holding tank unloading pump" style="rounded=0;whiteSpace=wrap;html=1;fillColor=#d5e8d4;strokeColor=#82b366;" vertex="1" parent="1">
          <mxGeometry x="-2460" y="5455" width="120" height="60" as="geometry" />
        </mxCell>
        <mxCell id="eKRL8oK7qd-l2Jsr5qjg-390" style="edgeStyle=orthogonalEdgeStyle;rounded=0;orthogonalLoop=1;jettySize=auto;html=1;entryX=0;entryY=0.5;entryDx=0;entryDy=0;" edge="1" parent="1" source="eKRL8oK7qd-l2Jsr5qjg-391" target="eKRL8oK7qd-l2Jsr5qjg-389">
          <mxGeometry relative="1" as="geometry" />
        </mxCell>
        <mxCell id="eKRL8oK7qd-l2Jsr5qjg-391" value="S2CP32020002&lt;br&gt;CIP egg syr hold T Step 2" style="rounded=0;whiteSpace=wrap;html=1;fillColor=#d5e8d4;strokeColor=#82b366;" vertex="1" parent="1">
          <mxGeometry x="-2630" y="5455" width="120" height="60" as="geometry" />
        </mxCell>
        <mxCell id="eKRL8oK7qd-l2Jsr5qjg-392" value="S5TSP32020002 X 1m&lt;br&gt;404519&lt;br&gt;CIP egg syr Mix T Step 5: Time SP" style="rounded=0;whiteSpace=wrap;html=1;fillColor=#dae8fc;strokeColor=#6c8ebf;" vertex="1" parent="1">
          <mxGeometry x="-2580" y="5545" width="204" height="60" as="geometry" />
        </mxCell>
        <mxCell id="eKRL8oK7qd-l2Jsr5qjg-393" value="ET" style="edgeStyle=orthogonalEdgeStyle;rounded=0;orthogonalLoop=1;jettySize=auto;html=1;exitX=1;exitY=0.75;exitDx=0;exitDy=0;" edge="1" parent="1" source="eKRL8oK7qd-l2Jsr5qjg-395" target="eKRL8oK7qd-l2Jsr5qjg-396">
          <mxGeometry relative="1" as="geometry" />
        </mxCell>
        <mxCell id="eKRL8oK7qd-l2Jsr5qjg-394" style="edgeStyle=orthogonalEdgeStyle;rounded=0;orthogonalLoop=1;jettySize=auto;html=1;" edge="1" parent="1" source="eKRL8oK7qd-l2Jsr5qjg-395">
          <mxGeometry relative="1" as="geometry">
            <mxPoint x="-1960" y="5350" as="targetPoint" />
          </mxGeometry>
        </mxCell>
        <mxCell id="eKRL8oK7qd-l2Jsr5qjg-395" value="TON" style="rounded=0;whiteSpace=wrap;html=1;fillColor=#dae8fc;strokeColor=#6c8ebf;" vertex="1" parent="1">
          <mxGeometry x="-2290" y="5670" width="110" height="110" as="geometry" />
        </mxCell>
        <mxCell id="eKRL8oK7qd-l2Jsr5qjg-396" value="S5TSP32020017" style="rounded=1;whiteSpace=wrap;html=1;fillColor=#d5e8d4;strokeColor=#82b366;" vertex="1" parent="1">
          <mxGeometry x="-2130" y="5755" width="120" height="60" as="geometry" />
        </mxCell>
        <mxCell id="eKRL8oK7qd-l2Jsr5qjg-397" value="PT" style="edgeStyle=orthogonalEdgeStyle;rounded=0;orthogonalLoop=1;jettySize=auto;html=1;entryX=0.012;entryY=0.913;entryDx=0;entryDy=0;entryPerimeter=0;exitX=1;exitY=0.5;exitDx=0;exitDy=0;" edge="1" parent="1" source="eKRL8oK7qd-l2Jsr5qjg-402" target="eKRL8oK7qd-l2Jsr5qjg-395">
          <mxGeometry relative="1" as="geometry">
            <mxPoint x="-2320" y="5765" as="sourcePoint" />
          </mxGeometry>
        </mxCell>
        <mxCell id="eKRL8oK7qd-l2Jsr5qjg-398" value="IN" style="edgeStyle=orthogonalEdgeStyle;rounded=0;orthogonalLoop=1;jettySize=auto;html=1;entryX=0.012;entryY=0.099;entryDx=0;entryDy=0;entryPerimeter=0;" edge="1" parent="1" source="eKRL8oK7qd-l2Jsr5qjg-399" target="eKRL8oK7qd-l2Jsr5qjg-395">
          <mxGeometry relative="1" as="geometry">
            <mxPoint x="-2292" y="5676" as="targetPoint" />
          </mxGeometry>
        </mxCell>
        <mxCell id="eKRL8oK7qd-l2Jsr5qjg-399" value="MCSt32020212&lt;br&gt;000031&lt;br&gt;Holding tank unloading pump" style="rounded=0;whiteSpace=wrap;html=1;fillColor=#d5e8d4;strokeColor=#82b366;" vertex="1" parent="1">
          <mxGeometry x="-2460" y="5650" width="120" height="60" as="geometry" />
        </mxCell>
        <mxCell id="eKRL8oK7qd-l2Jsr5qjg-400" style="edgeStyle=orthogonalEdgeStyle;rounded=0;orthogonalLoop=1;jettySize=auto;html=1;entryX=0;entryY=0.5;entryDx=0;entryDy=0;" edge="1" parent="1" source="eKRL8oK7qd-l2Jsr5qjg-401" target="eKRL8oK7qd-l2Jsr5qjg-399">
          <mxGeometry relative="1" as="geometry" />
        </mxCell>
        <mxCell id="eKRL8oK7qd-l2Jsr5qjg-401" value="S3CP32020002&lt;br&gt;CIP egg syr hold T Step 3" style="rounded=0;whiteSpace=wrap;html=1;fillColor=#d5e8d4;strokeColor=#82b366;" vertex="1" parent="1">
          <mxGeometry x="-2630" y="5650" width="120" height="60" as="geometry" />
        </mxCell>
        <mxCell id="eKRL8oK7qd-l2Jsr5qjg-402" value="S5TSP32020003 X 1m&lt;br&gt;404520&lt;br&gt;CIP egg syr Mix T Step 5: Time SP" style="rounded=0;whiteSpace=wrap;html=1;fillColor=#dae8fc;strokeColor=#6c8ebf;" vertex="1" parent="1">
          <mxGeometry x="-2580" y="5740" width="204" height="60" as="geometry" />
        </mxCell>
        <mxCell id="eKRL8oK7qd-l2Jsr5qjg-403" value="ET" style="edgeStyle=orthogonalEdgeStyle;rounded=0;orthogonalLoop=1;jettySize=auto;html=1;exitX=1;exitY=0.75;exitDx=0;exitDy=0;" edge="1" parent="1" source="eKRL8oK7qd-l2Jsr5qjg-405" target="eKRL8oK7qd-l2Jsr5qjg-406">
          <mxGeometry relative="1" as="geometry" />
        </mxCell>
        <mxCell id="eKRL8oK7qd-l2Jsr5qjg-404" style="edgeStyle=orthogonalEdgeStyle;rounded=0;orthogonalLoop=1;jettySize=auto;html=1;" edge="1" parent="1" source="eKRL8oK7qd-l2Jsr5qjg-405">
          <mxGeometry relative="1" as="geometry">
            <mxPoint x="-1960" y="5340" as="targetPoint" />
          </mxGeometry>
        </mxCell>
        <mxCell id="eKRL8oK7qd-l2Jsr5qjg-405" value="TON" style="rounded=0;whiteSpace=wrap;html=1;fillColor=#dae8fc;strokeColor=#6c8ebf;" vertex="1" parent="1">
          <mxGeometry x="-2290" y="5880" width="110" height="110" as="geometry" />
        </mxCell>
        <mxCell id="eKRL8oK7qd-l2Jsr5qjg-406" value="S5TSP32020018" style="rounded=1;whiteSpace=wrap;html=1;fillColor=#d5e8d4;strokeColor=#82b366;" vertex="1" parent="1">
          <mxGeometry x="-2130" y="5965" width="120" height="60" as="geometry" />
        </mxCell>
        <mxCell id="eKRL8oK7qd-l2Jsr5qjg-407" value="PT" style="edgeStyle=orthogonalEdgeStyle;rounded=0;orthogonalLoop=1;jettySize=auto;html=1;entryX=0.012;entryY=0.913;entryDx=0;entryDy=0;entryPerimeter=0;exitX=1;exitY=0.5;exitDx=0;exitDy=0;" edge="1" parent="1" source="eKRL8oK7qd-l2Jsr5qjg-412" target="eKRL8oK7qd-l2Jsr5qjg-405">
          <mxGeometry relative="1" as="geometry">
            <mxPoint x="-2320" y="5975" as="sourcePoint" />
          </mxGeometry>
        </mxCell>
        <mxCell id="eKRL8oK7qd-l2Jsr5qjg-408" value="IN" style="edgeStyle=orthogonalEdgeStyle;rounded=0;orthogonalLoop=1;jettySize=auto;html=1;entryX=0.012;entryY=0.099;entryDx=0;entryDy=0;entryPerimeter=0;" edge="1" parent="1" source="eKRL8oK7qd-l2Jsr5qjg-409" target="eKRL8oK7qd-l2Jsr5qjg-405">
          <mxGeometry relative="1" as="geometry">
            <mxPoint x="-2292" y="5886" as="targetPoint" />
          </mxGeometry>
        </mxCell>
        <mxCell id="eKRL8oK7qd-l2Jsr5qjg-409" value="MCSt32020212&lt;br&gt;000031&lt;br&gt;Holding tank unloading pump" style="rounded=0;whiteSpace=wrap;html=1;fillColor=#d5e8d4;strokeColor=#82b366;" vertex="1" parent="1">
          <mxGeometry x="-2460" y="5860" width="120" height="60" as="geometry" />
        </mxCell>
        <mxCell id="eKRL8oK7qd-l2Jsr5qjg-410" style="edgeStyle=orthogonalEdgeStyle;rounded=0;orthogonalLoop=1;jettySize=auto;html=1;entryX=0;entryY=0.5;entryDx=0;entryDy=0;" edge="1" parent="1" source="eKRL8oK7qd-l2Jsr5qjg-411" target="eKRL8oK7qd-l2Jsr5qjg-409">
          <mxGeometry relative="1" as="geometry" />
        </mxCell>
        <mxCell id="eKRL8oK7qd-l2Jsr5qjg-411" value="S4CP32020002&lt;br&gt;CIP egg syr hold T Step 4" style="rounded=0;whiteSpace=wrap;html=1;fillColor=#d5e8d4;strokeColor=#82b366;" vertex="1" parent="1">
          <mxGeometry x="-2630" y="5860" width="120" height="60" as="geometry" />
        </mxCell>
        <mxCell id="eKRL8oK7qd-l2Jsr5qjg-412" value="S5TSP32020004 X 1m&lt;br&gt;404521&lt;br&gt;CIP egg syr Mix T Step 5: Time SP" style="rounded=0;whiteSpace=wrap;html=1;fillColor=#dae8fc;strokeColor=#6c8ebf;" vertex="1" parent="1">
          <mxGeometry x="-2580" y="5950" width="204" height="60" as="geometry" />
        </mxCell>
        <mxCell id="eKRL8oK7qd-l2Jsr5qjg-413" value="RES" style="edgeStyle=orthogonalEdgeStyle;rounded=0;orthogonalLoop=1;jettySize=auto;html=1;entryX=0;entryY=0.75;entryDx=0;entryDy=0;" edge="1" parent="1" source="eKRL8oK7qd-l2Jsr5qjg-414" target="eKRL8oK7qd-l2Jsr5qjg-370">
          <mxGeometry x="0.9053" relative="1" as="geometry">
            <mxPoint as="offset" />
          </mxGeometry>
        </mxCell>
        <mxCell id="eKRL8oK7qd-l2Jsr5qjg-414" value="S4CP32020000 005506&lt;br&gt;CIP EGG STEP4" style="rounded=0;whiteSpace=wrap;html=1;fillColor=#f8cecc;strokeColor=#b85450;" vertex="1" parent="1">
          <mxGeometry x="-2089.5" y="6100" width="120" height="60" as="geometry" />
        </mxCell>
        <mxCell id="eKRL8oK7qd-l2Jsr5qjg-415" style="edgeStyle=orthogonalEdgeStyle;rounded=0;orthogonalLoop=1;jettySize=auto;html=1;entryX=0;entryY=0.5;entryDx=0;entryDy=0;" edge="1" parent="1" source="eKRL8oK7qd-l2Jsr5qjg-416" target="eKRL8oK7qd-l2Jsr5qjg-418">
          <mxGeometry relative="1" as="geometry" />
        </mxCell>
        <mxCell id="eKRL8oK7qd-l2Jsr5qjg-416" value="S1CP32020000&lt;br&gt;005503&lt;br&gt;CIP EGG STEP1" style="rounded=0;whiteSpace=wrap;html=1;fillColor=#f8cecc;strokeColor=#b85450;" vertex="1" parent="1">
          <mxGeometry x="-2564.5" y="6100" width="120" height="60" as="geometry" />
        </mxCell>
        <mxCell id="eKRL8oK7qd-l2Jsr5qjg-417" style="edgeStyle=orthogonalEdgeStyle;rounded=0;orthogonalLoop=1;jettySize=auto;html=1;entryX=0;entryY=0.5;entryDx=0;entryDy=0;" edge="1" parent="1" source="eKRL8oK7qd-l2Jsr5qjg-418" target="eKRL8oK7qd-l2Jsr5qjg-420">
          <mxGeometry relative="1" as="geometry" />
        </mxCell>
        <mxCell id="eKRL8oK7qd-l2Jsr5qjg-418" value="S2CP32020000 005504&lt;br&gt;CIP EGG STEP2" style="rounded=0;whiteSpace=wrap;html=1;fillColor=#f8cecc;strokeColor=#b85450;" vertex="1" parent="1">
          <mxGeometry x="-2404.5" y="6100" width="120" height="60" as="geometry" />
        </mxCell>
        <mxCell id="eKRL8oK7qd-l2Jsr5qjg-419" style="edgeStyle=orthogonalEdgeStyle;rounded=0;orthogonalLoop=1;jettySize=auto;html=1;" edge="1" parent="1" source="eKRL8oK7qd-l2Jsr5qjg-420" target="eKRL8oK7qd-l2Jsr5qjg-414">
          <mxGeometry relative="1" as="geometry" />
        </mxCell>
        <mxCell id="eKRL8oK7qd-l2Jsr5qjg-420" value="S3CP32020000 005505&lt;br&gt;CIP EGG STEP3" style="rounded=0;whiteSpace=wrap;html=1;fillColor=#f8cecc;strokeColor=#b85450;" vertex="1" parent="1">
          <mxGeometry x="-2244.5" y="6100" width="120" height="60" as="geometry" />
        </mxCell>
        <mxCell id="eKRL8oK7qd-l2Jsr5qjg-421" style="edgeStyle=orthogonalEdgeStyle;rounded=0;orthogonalLoop=1;jettySize=auto;html=1;entryX=0;entryY=0.5;entryDx=0;entryDy=0;" edge="1" parent="1" source="eKRL8oK7qd-l2Jsr5qjg-422" target="eKRL8oK7qd-l2Jsr5qjg-424">
          <mxGeometry relative="1" as="geometry" />
        </mxCell>
        <mxCell id="eKRL8oK7qd-l2Jsr5qjg-422" value="RS" style="rounded=0;whiteSpace=wrap;html=1;fillColor=#dae8fc;strokeColor=#6c8ebf;" vertex="1" parent="1">
          <mxGeometry x="-2208.5" y="6210" width="50" height="180" as="geometry" />
        </mxCell>
        <mxCell id="eKRL8oK7qd-l2Jsr5qjg-423" style="edgeStyle=orthogonalEdgeStyle;rounded=0;orthogonalLoop=1;jettySize=auto;html=1;" edge="1" parent="1" source="eKRL8oK7qd-l2Jsr5qjg-424">
          <mxGeometry relative="1" as="geometry">
            <mxPoint x="-1900" y="6130" as="targetPoint" />
          </mxGeometry>
        </mxCell>
        <mxCell id="eKRL8oK7qd-l2Jsr5qjg-424" value="S6CP32020002&lt;br&gt;CIP egg syr Hold tank Step 6" style="rounded=1;whiteSpace=wrap;html=1;fillColor=#d5e8d4;strokeColor=#82b366;" vertex="1" parent="1">
          <mxGeometry x="-2118.5" y="6270" width="120" height="60" as="geometry" />
        </mxCell>
        <mxCell id="eKRL8oK7qd-l2Jsr5qjg-425" value="ET" style="edgeStyle=orthogonalEdgeStyle;rounded=0;orthogonalLoop=1;jettySize=auto;html=1;exitX=1;exitY=0.75;exitDx=0;exitDy=0;" edge="1" parent="1" source="eKRL8oK7qd-l2Jsr5qjg-427" target="eKRL8oK7qd-l2Jsr5qjg-428">
          <mxGeometry relative="1" as="geometry" />
        </mxCell>
        <mxCell id="eKRL8oK7qd-l2Jsr5qjg-426" value="SET" style="edgeStyle=orthogonalEdgeStyle;rounded=0;orthogonalLoop=1;jettySize=auto;html=1;entryX=0;entryY=0.25;entryDx=0;entryDy=0;" edge="1" parent="1" source="eKRL8oK7qd-l2Jsr5qjg-427" target="eKRL8oK7qd-l2Jsr5qjg-422">
          <mxGeometry x="0.7014" relative="1" as="geometry">
            <mxPoint x="1" as="offset" />
          </mxGeometry>
        </mxCell>
        <mxCell id="eKRL8oK7qd-l2Jsr5qjg-427" value="TON" style="rounded=0;whiteSpace=wrap;html=1;fillColor=#dae8fc;strokeColor=#6c8ebf;" vertex="1" parent="1">
          <mxGeometry x="-2596.5" y="6200" width="110" height="110" as="geometry" />
        </mxCell>
        <mxCell id="eKRL8oK7qd-l2Jsr5qjg-428" value="S5TSP32020020" style="rounded=1;whiteSpace=wrap;html=1;fillColor=#d5e8d4;strokeColor=#82b366;" vertex="1" parent="1">
          <mxGeometry x="-2436.5" y="6285" width="120" height="60" as="geometry" />
        </mxCell>
        <mxCell id="eKRL8oK7qd-l2Jsr5qjg-429" value="PT" style="edgeStyle=orthogonalEdgeStyle;rounded=0;orthogonalLoop=1;jettySize=auto;html=1;exitX=1;exitY=0.5;exitDx=0;exitDy=0;" edge="1" parent="1" source="eKRL8oK7qd-l2Jsr5qjg-434">
          <mxGeometry relative="1" as="geometry">
            <mxPoint x="-2626.5" y="6295" as="sourcePoint" />
            <mxPoint x="-2595" y="6300" as="targetPoint" />
          </mxGeometry>
        </mxCell>
        <mxCell id="eKRL8oK7qd-l2Jsr5qjg-430" value="IN" style="edgeStyle=orthogonalEdgeStyle;rounded=0;orthogonalLoop=1;jettySize=auto;html=1;entryX=0.012;entryY=0.099;entryDx=0;entryDy=0;entryPerimeter=0;" edge="1" parent="1" source="eKRL8oK7qd-l2Jsr5qjg-431" target="eKRL8oK7qd-l2Jsr5qjg-427">
          <mxGeometry relative="1" as="geometry">
            <mxPoint x="-2598.5" y="6206" as="targetPoint" />
          </mxGeometry>
        </mxCell>
        <mxCell id="eKRL8oK7qd-l2Jsr5qjg-431" value="VCOp32020215&lt;br&gt;000048&lt;br&gt;Drain valve" style="rounded=0;whiteSpace=wrap;html=1;fillColor=#d5e8d4;strokeColor=#82b366;" vertex="1" parent="1">
          <mxGeometry x="-2766.5" y="6180" width="120" height="60" as="geometry" />
        </mxCell>
        <mxCell id="eKRL8oK7qd-l2Jsr5qjg-432" style="edgeStyle=orthogonalEdgeStyle;rounded=0;orthogonalLoop=1;jettySize=auto;html=1;entryX=0;entryY=0.5;entryDx=0;entryDy=0;" edge="1" parent="1" target="eKRL8oK7qd-l2Jsr5qjg-431">
          <mxGeometry relative="1" as="geometry">
            <mxPoint x="-2820" y="6209.999999999998" as="sourcePoint" />
          </mxGeometry>
        </mxCell>
        <mxCell id="eKRL8oK7qd-l2Jsr5qjg-433" value="VHOp32020211&lt;br&gt;000258&lt;br&gt;Helpbit Hold T unloading valve&lt;br&gt;(пишется если есть команда на открытие)" style="rounded=0;whiteSpace=wrap;html=1;fillColor=#d5e8d4;strokeColor=#82b366;" vertex="1" parent="1">
          <mxGeometry x="-2940" y="6160" width="120" height="100" as="geometry" />
        </mxCell>
        <mxCell id="eKRL8oK7qd-l2Jsr5qjg-434" value="S5TSP32020026" style="rounded=0;whiteSpace=wrap;html=1;fillColor=#d5e8d4;strokeColor=#82b366;" vertex="1" parent="1">
          <mxGeometry x="-2766.5" y="6280" width="117.5" height="40" as="geometry" />
        </mxCell>
        <mxCell id="eKRL8oK7qd-l2Jsr5qjg-435" style="edgeStyle=orthogonalEdgeStyle;rounded=0;orthogonalLoop=1;jettySize=auto;html=1;entryX=0;entryY=0.5;entryDx=0;entryDy=0;" edge="1" parent="1" source="eKRL8oK7qd-l2Jsr5qjg-436" target="eKRL8oK7qd-l2Jsr5qjg-433">
          <mxGeometry relative="1" as="geometry" />
        </mxCell>
        <mxCell id="eKRL8oK7qd-l2Jsr5qjg-436" value="S5CP32020002&lt;br&gt;CIP egg syr Hold tank Step 5" style="rounded=0;whiteSpace=wrap;html=1;fillColor=#d5e8d4;strokeColor=#82b366;" vertex="1" parent="1">
          <mxGeometry x="-3110" y="6180" width="120" height="60" as="geometry" />
        </mxCell>
        <mxCell id="eKRL8oK7qd-l2Jsr5qjg-437" value="RES" style="edgeStyle=orthogonalEdgeStyle;rounded=0;orthogonalLoop=1;jettySize=auto;html=1;entryX=0;entryY=0.75;entryDx=0;entryDy=0;" edge="1" parent="1" source="eKRL8oK7qd-l2Jsr5qjg-438" target="eKRL8oK7qd-l2Jsr5qjg-422">
          <mxGeometry x="0.6529" relative="1" as="geometry">
            <mxPoint as="offset" />
          </mxGeometry>
        </mxCell>
        <mxCell id="eKRL8oK7qd-l2Jsr5qjg-438" value="S4CP32020000 005506&lt;br&gt;CIP EGG STEP4" style="rounded=0;whiteSpace=wrap;html=1;fillColor=#f8cecc;strokeColor=#b85450;" vertex="1" parent="1">
          <mxGeometry x="-2440" y="6380" width="120" height="60" as="geometry" />
        </mxCell>
        <mxCell id="eKRL8oK7qd-l2Jsr5qjg-439" style="edgeStyle=orthogonalEdgeStyle;rounded=0;orthogonalLoop=1;jettySize=auto;html=1;entryX=0;entryY=0.5;entryDx=0;entryDy=0;" edge="1" parent="1" source="eKRL8oK7qd-l2Jsr5qjg-440" target="eKRL8oK7qd-l2Jsr5qjg-442">
          <mxGeometry relative="1" as="geometry" />
        </mxCell>
        <mxCell id="eKRL8oK7qd-l2Jsr5qjg-440" value="S1CP32020000&lt;br&gt;005503&lt;br&gt;CIP EGG STEP1" style="rounded=0;whiteSpace=wrap;html=1;fillColor=#f8cecc;strokeColor=#b85450;" vertex="1" parent="1">
          <mxGeometry x="-2920" y="6380" width="120" height="60" as="geometry" />
        </mxCell>
        <mxCell id="eKRL8oK7qd-l2Jsr5qjg-441" style="edgeStyle=orthogonalEdgeStyle;rounded=0;orthogonalLoop=1;jettySize=auto;html=1;entryX=0;entryY=0.5;entryDx=0;entryDy=0;" edge="1" parent="1" source="eKRL8oK7qd-l2Jsr5qjg-442" target="eKRL8oK7qd-l2Jsr5qjg-444">
          <mxGeometry relative="1" as="geometry" />
        </mxCell>
        <mxCell id="eKRL8oK7qd-l2Jsr5qjg-442" value="S2CP32020000 005504&lt;br&gt;CIP EGG STEP2" style="rounded=0;whiteSpace=wrap;html=1;fillColor=#f8cecc;strokeColor=#b85450;" vertex="1" parent="1">
          <mxGeometry x="-2760" y="6380" width="120" height="60" as="geometry" />
        </mxCell>
        <mxCell id="eKRL8oK7qd-l2Jsr5qjg-443" style="edgeStyle=orthogonalEdgeStyle;rounded=0;orthogonalLoop=1;jettySize=auto;html=1;" edge="1" parent="1" source="eKRL8oK7qd-l2Jsr5qjg-444" target="eKRL8oK7qd-l2Jsr5qjg-438">
          <mxGeometry relative="1" as="geometry" />
        </mxCell>
        <mxCell id="eKRL8oK7qd-l2Jsr5qjg-444" value="S3CP32020000 005505&lt;br&gt;CIP EGG STEP3" style="rounded=0;whiteSpace=wrap;html=1;fillColor=#f8cecc;strokeColor=#b85450;" vertex="1" parent="1">
          <mxGeometry x="-2600" y="6380" width="120" height="60" as="geometry" />
        </mxCell>
        <mxCell id="eKRL8oK7qd-l2Jsr5qjg-445" style="edgeStyle=orthogonalEdgeStyle;rounded=0;orthogonalLoop=1;jettySize=auto;html=1;entryX=0;entryY=0.5;entryDx=0;entryDy=0;" edge="1" parent="1" source="eKRL8oK7qd-l2Jsr5qjg-446" target="eKRL8oK7qd-l2Jsr5qjg-448">
          <mxGeometry relative="1" as="geometry" />
        </mxCell>
        <mxCell id="eKRL8oK7qd-l2Jsr5qjg-446" value="S6CP32020002&lt;br&gt;CIP egg syr Hold tank Step 6" style="rounded=0;whiteSpace=wrap;html=1;fillColor=#d5e8d4;strokeColor=#82b366;" vertex="1" parent="1">
          <mxGeometry x="-2601.5" y="6480" width="120" height="60" as="geometry" />
        </mxCell>
        <mxCell id="eKRL8oK7qd-l2Jsr5qjg-447" style="edgeStyle=orthogonalEdgeStyle;rounded=0;orthogonalLoop=1;jettySize=auto;html=1;" edge="1" parent="1" source="eKRL8oK7qd-l2Jsr5qjg-448">
          <mxGeometry relative="1" as="geometry">
            <mxPoint x="-2270" y="6409.999999999998" as="targetPoint" />
          </mxGeometry>
        </mxCell>
        <mxCell id="eKRL8oK7qd-l2Jsr5qjg-448" value="HBCP32020002" style="rounded=0;whiteSpace=wrap;html=1;fillColor=#d5e8d4;strokeColor=#82b366;" vertex="1" parent="1">
          <mxGeometry x="-2440" y="6480" width="120" height="60" as="geometry" />
        </mxCell>
        <mxCell id="eKRL8oK7qd-l2Jsr5qjg-449" style="edgeStyle=orthogonalEdgeStyle;rounded=0;orthogonalLoop=1;jettySize=auto;html=1;entryX=0;entryY=0.5;entryDx=0;entryDy=0;" edge="1" parent="1" source="eKRL8oK7qd-l2Jsr5qjg-450" target="eKRL8oK7qd-l2Jsr5qjg-457">
          <mxGeometry relative="1" as="geometry" />
        </mxCell>
        <mxCell id="eKRL8oK7qd-l2Jsr5qjg-450" value="S1CP32020002&lt;br&gt;CIP egg syr hold T Step 1" style="rounded=0;whiteSpace=wrap;html=1;fillColor=#d5e8d4;strokeColor=#82b366;" vertex="1" parent="1">
          <mxGeometry x="-3120" y="6620" width="120" height="60" as="geometry" />
        </mxCell>
        <mxCell id="eKRL8oK7qd-l2Jsr5qjg-451" style="edgeStyle=orthogonalEdgeStyle;rounded=0;orthogonalLoop=1;jettySize=auto;html=1;entryX=0;entryY=0.5;entryDx=0;entryDy=0;" edge="1" parent="1" source="eKRL8oK7qd-l2Jsr5qjg-452" target="eKRL8oK7qd-l2Jsr5qjg-457">
          <mxGeometry relative="1" as="geometry" />
        </mxCell>
        <mxCell id="eKRL8oK7qd-l2Jsr5qjg-452" value="S2CP32020002&lt;br&gt;CIP egg syr hold T Step 2" style="rounded=0;whiteSpace=wrap;html=1;fillColor=#d5e8d4;strokeColor=#82b366;" vertex="1" parent="1">
          <mxGeometry x="-3120" y="6720" width="120" height="60" as="geometry" />
        </mxCell>
        <mxCell id="eKRL8oK7qd-l2Jsr5qjg-453" style="edgeStyle=orthogonalEdgeStyle;rounded=0;orthogonalLoop=1;jettySize=auto;html=1;entryX=0;entryY=0.5;entryDx=0;entryDy=0;" edge="1" parent="1" source="eKRL8oK7qd-l2Jsr5qjg-454" target="eKRL8oK7qd-l2Jsr5qjg-457">
          <mxGeometry relative="1" as="geometry" />
        </mxCell>
        <mxCell id="eKRL8oK7qd-l2Jsr5qjg-454" value="S3CP32020002&lt;br&gt;CIP egg syr hold T Step 3" style="rounded=0;whiteSpace=wrap;html=1;fillColor=#d5e8d4;strokeColor=#82b366;" vertex="1" parent="1">
          <mxGeometry x="-3120" y="6820" width="120" height="60" as="geometry" />
        </mxCell>
        <mxCell id="eKRL8oK7qd-l2Jsr5qjg-455" style="edgeStyle=orthogonalEdgeStyle;rounded=0;orthogonalLoop=1;jettySize=auto;html=1;entryX=0;entryY=0.5;entryDx=0;entryDy=0;" edge="1" parent="1" source="eKRL8oK7qd-l2Jsr5qjg-456" target="eKRL8oK7qd-l2Jsr5qjg-457">
          <mxGeometry relative="1" as="geometry" />
        </mxCell>
        <mxCell id="eKRL8oK7qd-l2Jsr5qjg-456" value="S4CP32020002&lt;br&gt;CIP egg syr hold T Step 4" style="rounded=0;whiteSpace=wrap;html=1;fillColor=#d5e8d4;strokeColor=#82b366;" vertex="1" parent="1">
          <mxGeometry x="-3120" y="6920" width="120" height="60" as="geometry" />
        </mxCell>
        <mxCell id="eKRL8oK7qd-l2Jsr5qjg-457" value="HBCP32020003" style="rounded=1;whiteSpace=wrap;html=1;fillColor=#d5e8d4;strokeColor=#82b366;" vertex="1" parent="1">
          <mxGeometry x="-2900" y="6620" width="120" height="60" as="geometry" />
        </mxCell>
        <mxCell id="eKRL8oK7qd-l2Jsr5qjg-458" style="edgeStyle=orthogonalEdgeStyle;rounded=0;orthogonalLoop=1;jettySize=auto;html=1;entryX=0;entryY=0.5;entryDx=0;entryDy=0;" edge="1" parent="1" source="eKRL8oK7qd-l2Jsr5qjg-459" target="eKRL8oK7qd-l2Jsr5qjg-462">
          <mxGeometry relative="1" as="geometry" />
        </mxCell>
        <mxCell id="eKRL8oK7qd-l2Jsr5qjg-459" value="S2CP32020001&lt;br&gt;CIP egg syr Mix T Step 2" style="rounded=0;whiteSpace=wrap;html=1;fillColor=#d5e8d4;strokeColor=#82b366;" vertex="1" parent="1">
          <mxGeometry x="-2690" y="6620" width="120" height="60" as="geometry" />
        </mxCell>
        <mxCell id="eKRL8oK7qd-l2Jsr5qjg-460" style="edgeStyle=orthogonalEdgeStyle;rounded=0;orthogonalLoop=1;jettySize=auto;html=1;entryX=0;entryY=0.5;entryDx=0;entryDy=0;" edge="1" parent="1" source="eKRL8oK7qd-l2Jsr5qjg-461" target="eKRL8oK7qd-l2Jsr5qjg-462">
          <mxGeometry relative="1" as="geometry" />
        </mxCell>
        <mxCell id="eKRL8oK7qd-l2Jsr5qjg-461" value="S4CP32020001&lt;br&gt;CIP egg syr Mix T Step 4" style="rounded=0;whiteSpace=wrap;html=1;fillColor=#d5e8d4;strokeColor=#82b366;" vertex="1" parent="1">
          <mxGeometry x="-2690" y="6720" width="120" height="60" as="geometry" />
        </mxCell>
        <mxCell id="eKRL8oK7qd-l2Jsr5qjg-462" value="HBCP32020003" style="rounded=1;whiteSpace=wrap;html=1;fillColor=#d5e8d4;strokeColor=#82b366;" vertex="1" parent="1">
          <mxGeometry x="-2470" y="6620" width="120" height="60" as="geometry" />
        </mxCell>
        <mxCell id="eKRL8oK7qd-l2Jsr5qjg-463" style="edgeStyle=orthogonalEdgeStyle;rounded=0;orthogonalLoop=1;jettySize=auto;html=1;entryX=0.5;entryY=0;entryDx=0;entryDy=0;fillColor=#fff2cc;strokeColor=#d6b656;" edge="1" parent="1" source="eKRL8oK7qd-l2Jsr5qjg-464" target="eKRL8oK7qd-l2Jsr5qjg-473">
          <mxGeometry relative="1" as="geometry">
            <Array as="points">
              <mxPoint x="410" y="290" />
              <mxPoint x="-180" y="290" />
            </Array>
          </mxGeometry>
        </mxCell>
        <mxCell id="eKRL8oK7qd-l2Jsr5qjg-464" value="S1CP32020000 005503&lt;br&gt;CIP EGG STEP1" style="rounded=1;whiteSpace=wrap;html=1;fillColor=#d5e8d4;strokeColor=#82b366;" vertex="1" parent="1">
          <mxGeometry x="350" y="380" width="120" height="60" as="geometry" />
        </mxCell>
        <mxCell id="eKRL8oK7qd-l2Jsr5qjg-465" style="edgeStyle=orthogonalEdgeStyle;rounded=0;orthogonalLoop=1;jettySize=auto;html=1;entryX=0;entryY=0.5;entryDx=0;entryDy=0;" edge="1" parent="1" source="eKRL8oK7qd-l2Jsr5qjg-466" target="eKRL8oK7qd-l2Jsr5qjg-464">
          <mxGeometry relative="1" as="geometry" />
        </mxCell>
        <mxCell id="eKRL8oK7qd-l2Jsr5qjg-466" value="RS" style="rounded=0;whiteSpace=wrap;html=1;fillColor=#dae8fc;strokeColor=#6c8ebf;" vertex="1" parent="1">
          <mxGeometry x="260" y="320" width="50" height="180" as="geometry" />
        </mxCell>
        <mxCell id="eKRL8oK7qd-l2Jsr5qjg-467" value="SET" style="edgeStyle=orthogonalEdgeStyle;rounded=0;orthogonalLoop=1;jettySize=auto;html=1;entryX=0.02;entryY=0.207;entryDx=0;entryDy=0;entryPerimeter=0;" edge="1" parent="1" source="eKRL8oK7qd-l2Jsr5qjg-468" target="eKRL8oK7qd-l2Jsr5qjg-466">
          <mxGeometry relative="1" as="geometry" />
        </mxCell>
        <mxCell id="eKRL8oK7qd-l2Jsr5qjg-468" value="S6CP32020002" style="rounded=0;whiteSpace=wrap;html=1;fillColor=#f8cecc;strokeColor=#b85450;" vertex="1" parent="1">
          <mxGeometry x="80" y="320" width="120" height="60" as="geometry" />
        </mxCell>
        <mxCell id="eKRL8oK7qd-l2Jsr5qjg-469" style="edgeStyle=orthogonalEdgeStyle;rounded=0;orthogonalLoop=1;jettySize=auto;html=1;entryX=0;entryY=0.5;entryDx=0;entryDy=0;" edge="1" parent="1" source="eKRL8oK7qd-l2Jsr5qjg-470" target="eKRL8oK7qd-l2Jsr5qjg-468">
          <mxGeometry relative="1" as="geometry" />
        </mxCell>
        <mxCell id="eKRL8oK7qd-l2Jsr5qjg-470" value="S8CP32020001" style="rounded=0;whiteSpace=wrap;html=1;fillColor=#f8cecc;strokeColor=#b85450;" vertex="1" parent="1">
          <mxGeometry x="-80" y="320" width="120" height="60" as="geometry" />
        </mxCell>
        <mxCell id="eKRL8oK7qd-l2Jsr5qjg-471" style="edgeStyle=orthogonalEdgeStyle;rounded=0;orthogonalLoop=1;jettySize=auto;html=1;" edge="1" parent="1" source="eKRL8oK7qd-l2Jsr5qjg-473" target="eKRL8oK7qd-l2Jsr5qjg-470">
          <mxGeometry relative="1" as="geometry" />
        </mxCell>
        <mxCell id="eKRL8oK7qd-l2Jsr5qjg-472" style="edgeStyle=orthogonalEdgeStyle;rounded=0;orthogonalLoop=1;jettySize=auto;html=1;entryX=0.5;entryY=0;entryDx=0;entryDy=0;fillColor=#fff2cc;strokeColor=#d6b656;" edge="1" parent="1" source="eKRL8oK7qd-l2Jsr5qjg-473" target="eKRL8oK7qd-l2Jsr5qjg-491">
          <mxGeometry relative="1" as="geometry">
            <Array as="points">
              <mxPoint x="-180" y="390" />
              <mxPoint x="-340" y="390" />
            </Array>
          </mxGeometry>
        </mxCell>
        <mxCell id="eKRL8oK7qd-l2Jsr5qjg-473" value="S1CP32020000&lt;br&gt;005503&lt;br&gt;CIP EGG STEP1" style="rounded=0;whiteSpace=wrap;html=1;fillColor=#f8cecc;strokeColor=#b85450;" vertex="1" parent="1">
          <mxGeometry x="-240" y="320" width="120" height="60" as="geometry" />
        </mxCell>
        <mxCell id="eKRL8oK7qd-l2Jsr5qjg-474" style="edgeStyle=orthogonalEdgeStyle;rounded=0;orthogonalLoop=1;jettySize=auto;html=1;entryX=0;entryY=0.5;entryDx=0;entryDy=0;" edge="1" parent="1" source="eKRL8oK7qd-l2Jsr5qjg-475" target="eKRL8oK7qd-l2Jsr5qjg-473">
          <mxGeometry relative="1" as="geometry" />
        </mxCell>
        <mxCell id="eKRL8oK7qd-l2Jsr5qjg-475" value="S2CP32020000&lt;br&gt;005504&lt;br&gt;CIP EGG STEP2" style="rounded=0;whiteSpace=wrap;html=1;fillColor=#f8cecc;strokeColor=#b85450;" vertex="1" parent="1">
          <mxGeometry x="-400" y="320" width="120" height="60" as="geometry" />
        </mxCell>
        <mxCell id="eKRL8oK7qd-l2Jsr5qjg-476" style="edgeStyle=orthogonalEdgeStyle;rounded=0;orthogonalLoop=1;jettySize=auto;html=1;entryX=0;entryY=0.5;entryDx=0;entryDy=0;" edge="1" parent="1" source="eKRL8oK7qd-l2Jsr5qjg-477" target="eKRL8oK7qd-l2Jsr5qjg-475">
          <mxGeometry relative="1" as="geometry" />
        </mxCell>
        <mxCell id="eKRL8oK7qd-l2Jsr5qjg-477" value="S3CP32020000&lt;br&gt;005505&lt;br&gt;CIP EGG STEP3" style="rounded=0;whiteSpace=wrap;html=1;fillColor=#f8cecc;strokeColor=#b85450;" vertex="1" parent="1">
          <mxGeometry x="-560" y="320" width="120" height="60" as="geometry" />
        </mxCell>
        <mxCell id="eKRL8oK7qd-l2Jsr5qjg-478" style="edgeStyle=orthogonalEdgeStyle;rounded=0;orthogonalLoop=1;jettySize=auto;html=1;entryX=0;entryY=0.5;entryDx=0;entryDy=0;" edge="1" parent="1" source="eKRL8oK7qd-l2Jsr5qjg-479" target="eKRL8oK7qd-l2Jsr5qjg-477">
          <mxGeometry relative="1" as="geometry" />
        </mxCell>
        <mxCell id="eKRL8oK7qd-l2Jsr5qjg-479" value="S4CP32020000&lt;br&gt;005506&lt;br&gt;CIP EGG STEP4" style="rounded=0;whiteSpace=wrap;html=1;fillColor=#f8cecc;strokeColor=#b85450;" vertex="1" parent="1">
          <mxGeometry x="-720" y="320" width="120" height="60" as="geometry" />
        </mxCell>
        <mxCell id="eKRL8oK7qd-l2Jsr5qjg-480" style="edgeStyle=orthogonalEdgeStyle;rounded=0;orthogonalLoop=1;jettySize=auto;html=1;entryX=0;entryY=0.5;entryDx=0;entryDy=0;" edge="1" parent="1" source="eKRL8oK7qd-l2Jsr5qjg-481" target="eKRL8oK7qd-l2Jsr5qjg-479">
          <mxGeometry relative="1" as="geometry" />
        </mxCell>
        <mxCell id="eKRL8oK7qd-l2Jsr5qjg-481" value="AcFCP32020000&lt;br&gt;002292&lt;br&gt;Button Egg Full CIP" style="rounded=0;whiteSpace=wrap;html=1;fillColor=#d5e8d4;strokeColor=#82b366;" vertex="1" parent="1">
          <mxGeometry x="-900" y="320" width="120" height="60" as="geometry" />
        </mxCell>
        <mxCell id="eKRL8oK7qd-l2Jsr5qjg-482" style="edgeStyle=orthogonalEdgeStyle;rounded=0;orthogonalLoop=1;jettySize=auto;html=1;" edge="1" parent="1" source="eKRL8oK7qd-l2Jsr5qjg-483">
          <mxGeometry relative="1" as="geometry">
            <mxPoint x="-750" y="349.9999999999991" as="targetPoint" />
          </mxGeometry>
        </mxCell>
        <mxCell id="eKRL8oK7qd-l2Jsr5qjg-483" value="AcWCP32020000&lt;br&gt;002300&lt;br&gt;Button Egg water CIP" style="rounded=0;whiteSpace=wrap;html=1;fillColor=#d5e8d4;strokeColor=#82b366;" vertex="1" parent="1">
          <mxGeometry x="-900" y="240" width="120" height="60" as="geometry" />
        </mxCell>
        <mxCell id="eKRL8oK7qd-l2Jsr5qjg-484" style="edgeStyle=orthogonalEdgeStyle;rounded=0;orthogonalLoop=1;jettySize=auto;html=1;entryX=0;entryY=0.5;entryDx=0;entryDy=0;" edge="1" parent="1" source="eKRL8oK7qd-l2Jsr5qjg-485" target="eKRL8oK7qd-l2Jsr5qjg-487">
          <mxGeometry relative="1" as="geometry" />
        </mxCell>
        <mxCell id="eKRL8oK7qd-l2Jsr5qjg-485" value="AcWCP32020000&lt;br&gt;002300&lt;br&gt;Button Egg water CIP" style="rounded=0;whiteSpace=wrap;html=1;fillColor=#d5e8d4;strokeColor=#82b366;" vertex="1" parent="1">
          <mxGeometry x="-900" y="450" width="120" height="60" as="geometry" />
        </mxCell>
        <mxCell id="eKRL8oK7qd-l2Jsr5qjg-486" style="edgeStyle=orthogonalEdgeStyle;rounded=0;orthogonalLoop=1;jettySize=auto;html=1;entryX=0;entryY=0.5;entryDx=0;entryDy=0;" edge="1" parent="1" source="eKRL8oK7qd-l2Jsr5qjg-487" target="eKRL8oK7qd-l2Jsr5qjg-489">
          <mxGeometry relative="1" as="geometry" />
        </mxCell>
        <mxCell id="eKRL8oK7qd-l2Jsr5qjg-487" value="S8CP32020001" style="rounded=0;whiteSpace=wrap;html=1;fillColor=#d5e8d4;strokeColor=#82b366;" vertex="1" parent="1">
          <mxGeometry x="-720" y="450" width="120" height="60" as="geometry" />
        </mxCell>
        <mxCell id="eKRL8oK7qd-l2Jsr5qjg-488" style="edgeStyle=orthogonalEdgeStyle;rounded=0;orthogonalLoop=1;jettySize=auto;html=1;" edge="1" parent="1" source="eKRL8oK7qd-l2Jsr5qjg-489" target="eKRL8oK7qd-l2Jsr5qjg-491">
          <mxGeometry relative="1" as="geometry" />
        </mxCell>
        <mxCell id="eKRL8oK7qd-l2Jsr5qjg-489" value="S6CP32020002" style="rounded=0;whiteSpace=wrap;html=1;fillColor=#d5e8d4;strokeColor=#82b366;" vertex="1" parent="1">
          <mxGeometry x="-560" y="450" width="120" height="60" as="geometry" />
        </mxCell>
        <mxCell id="eKRL8oK7qd-l2Jsr5qjg-490" value="RES" style="edgeStyle=orthogonalEdgeStyle;rounded=0;orthogonalLoop=1;jettySize=auto;html=1;entryX=0;entryY=0.875;entryDx=0;entryDy=0;entryPerimeter=0;" edge="1" parent="1" source="eKRL8oK7qd-l2Jsr5qjg-491" target="eKRL8oK7qd-l2Jsr5qjg-466">
          <mxGeometry x="0.8894" relative="1" as="geometry">
            <mxPoint as="offset" />
          </mxGeometry>
        </mxCell>
        <mxCell id="eKRL8oK7qd-l2Jsr5qjg-491" value="S1CP32020000&lt;br&gt;005503&lt;br&gt;CIP EGG STEP1" style="rounded=0;whiteSpace=wrap;html=1;fillColor=#d5e8d4;strokeColor=#82b366;" vertex="1" parent="1">
          <mxGeometry x="-400" y="450" width="120" height="60" as="geometry" />
        </mxCell>
        <mxCell id="eKRL8oK7qd-l2Jsr5qjg-492" style="edgeStyle=orthogonalEdgeStyle;rounded=0;orthogonalLoop=1;jettySize=auto;html=1;entryX=0;entryY=0.5;entryDx=0;entryDy=0;" edge="1" parent="1" source="eKRL8oK7qd-l2Jsr5qjg-493" target="eKRL8oK7qd-l2Jsr5qjg-495">
          <mxGeometry relative="1" as="geometry" />
        </mxCell>
        <mxCell id="eKRL8oK7qd-l2Jsr5qjg-493" value="AcFCP32020000&lt;br&gt;002292&lt;br&gt;Button Egg Full CIP" style="rounded=0;whiteSpace=wrap;html=1;fillColor=#f8cecc;strokeColor=#b85450;" vertex="1" parent="1">
          <mxGeometry x="-900" y="550" width="120" height="60" as="geometry" />
        </mxCell>
        <mxCell id="eKRL8oK7qd-l2Jsr5qjg-494" style="edgeStyle=orthogonalEdgeStyle;rounded=0;orthogonalLoop=1;jettySize=auto;html=1;" edge="1" parent="1" source="eKRL8oK7qd-l2Jsr5qjg-495">
          <mxGeometry relative="1" as="geometry">
            <mxPoint x="-200" y="480" as="targetPoint" />
          </mxGeometry>
        </mxCell>
        <mxCell id="eKRL8oK7qd-l2Jsr5qjg-495" value="AcWCP32020000&lt;br&gt;002300&lt;br&gt;Button Egg water CIP" style="rounded=0;whiteSpace=wrap;html=1;fillColor=#f8cecc;strokeColor=#b85450;" vertex="1" parent="1">
          <mxGeometry x="-720" y="550" width="120" height="60" as="geometry" />
        </mxCell>
        <mxCell id="eKRL8oK7qd-l2Jsr5qjg-496" style="edgeStyle=orthogonalEdgeStyle;rounded=0;orthogonalLoop=1;jettySize=auto;html=1;entryX=0;entryY=0.5;entryDx=0;entryDy=0;" edge="1" parent="1" source="eKRL8oK7qd-l2Jsr5qjg-497" target="eKRL8oK7qd-l2Jsr5qjg-499">
          <mxGeometry relative="1" as="geometry" />
        </mxCell>
        <mxCell id="eKRL8oK7qd-l2Jsr5qjg-497" value="RS" style="rounded=0;whiteSpace=wrap;html=1;fillColor=#dae8fc;strokeColor=#6c8ebf;" vertex="1" parent="1">
          <mxGeometry x="-170" y="680" width="50" height="180" as="geometry" />
        </mxCell>
        <mxCell id="eKRL8oK7qd-l2Jsr5qjg-498" style="edgeStyle=orthogonalEdgeStyle;rounded=0;orthogonalLoop=1;jettySize=auto;html=1;" edge="1" parent="1" source="eKRL8oK7qd-l2Jsr5qjg-499">
          <mxGeometry relative="1" as="geometry">
            <mxPoint x="120" y="480" as="targetPoint" />
          </mxGeometry>
        </mxCell>
        <mxCell id="eKRL8oK7qd-l2Jsr5qjg-1015" style="edgeStyle=orthogonalEdgeStyle;rounded=0;orthogonalLoop=1;jettySize=auto;html=1;exitX=0.5;exitY=1;exitDx=0;exitDy=0;entryX=0.5;entryY=0;entryDx=0;entryDy=0;fillColor=#fff2cc;strokeColor=#d6b656;" edge="1" parent="1" source="eKRL8oK7qd-l2Jsr5qjg-499" target="eKRL8oK7qd-l2Jsr5qjg-7">
          <mxGeometry relative="1" as="geometry">
            <Array as="points">
              <mxPoint x="-20" y="880" />
              <mxPoint x="-680" y="880" />
            </Array>
          </mxGeometry>
        </mxCell>
        <mxCell id="eKRL8oK7qd-l2Jsr5qjg-499" value="S2CP32020000 005504&lt;br&gt;&lt;div&gt;CIP EGG STEP2&lt;/div&gt;&lt;div&gt;Alkaline flush&lt;br&gt;&lt;/div&gt;" style="rounded=1;whiteSpace=wrap;html=1;fillColor=#d5e8d4;strokeColor=#82b366;" vertex="1" parent="1">
          <mxGeometry x="-80" y="740" width="120" height="60" as="geometry" />
        </mxCell>
        <mxCell id="eKRL8oK7qd-l2Jsr5qjg-500" value="SET" style="edgeStyle=orthogonalEdgeStyle;rounded=0;orthogonalLoop=1;jettySize=auto;html=1;entryX=-0.022;entryY=0.164;entryDx=0;entryDy=0;entryPerimeter=0;" edge="1" parent="1" source="eKRL8oK7qd-l2Jsr5qjg-501" target="eKRL8oK7qd-l2Jsr5qjg-497">
          <mxGeometry relative="1" as="geometry" />
        </mxCell>
        <mxCell id="eKRL8oK7qd-l2Jsr5qjg-501" value="S1CP32020000&lt;br&gt;005503&lt;br&gt;CIP EGG STEP1" style="rounded=0;whiteSpace=wrap;html=1;fillColor=#d5e8d4;strokeColor=#82b366;" vertex="1" parent="1">
          <mxGeometry x="-380" y="680" width="120" height="60" as="geometry" />
        </mxCell>
        <mxCell id="eKRL8oK7qd-l2Jsr5qjg-502" style="edgeStyle=orthogonalEdgeStyle;rounded=0;orthogonalLoop=1;jettySize=auto;html=1;entryX=0;entryY=0.5;entryDx=0;entryDy=0;" edge="1" parent="1" source="eKRL8oK7qd-l2Jsr5qjg-503" target="eKRL8oK7qd-l2Jsr5qjg-501">
          <mxGeometry relative="1" as="geometry" />
        </mxCell>
        <mxCell id="eKRL8oK7qd-l2Jsr5qjg-503" value="S8CP32020001" style="rounded=0;whiteSpace=wrap;html=1;fillColor=#d5e8d4;strokeColor=#82b366;" vertex="1" parent="1">
          <mxGeometry x="-550" y="680" width="120" height="60" as="geometry" />
        </mxCell>
        <mxCell id="eKRL8oK7qd-l2Jsr5qjg-504" style="edgeStyle=orthogonalEdgeStyle;rounded=0;orthogonalLoop=1;jettySize=auto;html=1;entryX=0;entryY=0.5;entryDx=0;entryDy=0;" edge="1" parent="1" source="eKRL8oK7qd-l2Jsr5qjg-505" target="eKRL8oK7qd-l2Jsr5qjg-503">
          <mxGeometry relative="1" as="geometry" />
        </mxCell>
        <mxCell id="eKRL8oK7qd-l2Jsr5qjg-505" value="AcFCP32020000&lt;br&gt;002292&lt;br&gt;Button Egg Full CIP" style="rounded=0;whiteSpace=wrap;html=1;fillColor=#d5e8d4;strokeColor=#82b366;" vertex="1" parent="1">
          <mxGeometry x="-720" y="680" width="120" height="60" as="geometry" />
        </mxCell>
        <mxCell id="eKRL8oK7qd-l2Jsr5qjg-506" value="RES" style="edgeStyle=orthogonalEdgeStyle;rounded=0;orthogonalLoop=1;jettySize=auto;html=1;entryX=-0.081;entryY=0.798;entryDx=0;entryDy=0;entryPerimeter=0;" edge="1" parent="1" source="eKRL8oK7qd-l2Jsr5qjg-507" target="eKRL8oK7qd-l2Jsr5qjg-497">
          <mxGeometry x="0.8326" relative="1" as="geometry">
            <mxPoint as="offset" />
          </mxGeometry>
        </mxCell>
        <mxCell id="eKRL8oK7qd-l2Jsr5qjg-507" value="AcFCP32020000&lt;br&gt;002292&lt;br&gt;Button Egg Full CIP" style="rounded=0;whiteSpace=wrap;html=1;fillColor=#f8cecc;strokeColor=#b85450;" vertex="1" parent="1">
          <mxGeometry x="-720" y="790" width="120" height="60" as="geometry" />
        </mxCell>
        <mxCell id="eKRL8oK7qd-l2Jsr5qjg-1022" style="edgeStyle=orthogonalEdgeStyle;rounded=0;orthogonalLoop=1;jettySize=auto;html=1;exitX=1;exitY=0.5;exitDx=0;exitDy=0;entryX=0;entryY=0.5;entryDx=0;entryDy=0;" edge="1" parent="1" source="eKRL8oK7qd-l2Jsr5qjg-1018" target="eKRL8oK7qd-l2Jsr5qjg-1021">
          <mxGeometry relative="1" as="geometry" />
        </mxCell>
        <mxCell id="eKRL8oK7qd-l2Jsr5qjg-1018" value="Запрос за занятие станции" style="rounded=0;whiteSpace=wrap;html=1;fillColor=#d5e8d4;strokeColor=#82b366;" vertex="1" parent="1">
          <mxGeometry x="-2835" y="1530" width="120" height="70" as="geometry" />
        </mxCell>
        <mxCell id="eKRL8oK7qd-l2Jsr5qjg-1032" style="edgeStyle=orthogonalEdgeStyle;rounded=0;orthogonalLoop=1;jettySize=auto;html=1;exitX=1;exitY=0.5;exitDx=0;exitDy=0;entryX=0;entryY=0.5;entryDx=0;entryDy=0;" edge="1" parent="1" source="eKRL8oK7qd-l2Jsr5qjg-1021" target="eKRL8oK7qd-l2Jsr5qjg-1031">
          <mxGeometry relative="1" as="geometry" />
        </mxCell>
        <mxCell id="eKRL8oK7qd-l2Jsr5qjg-1021" value="Станция занята мною?" style="rounded=0;whiteSpace=wrap;html=1;fillColor=#d5e8d4;strokeColor=#82b366;" vertex="1" parent="1">
          <mxGeometry x="-2670" y="1530" width="120" height="70" as="geometry" />
        </mxCell>
        <mxCell id="eKRL8oK7qd-l2Jsr5qjg-1026" style="edgeStyle=orthogonalEdgeStyle;rounded=0;orthogonalLoop=1;jettySize=auto;html=1;exitX=1;exitY=0.5;exitDx=0;exitDy=0;entryX=0;entryY=0.5;entryDx=0;entryDy=0;" edge="1" parent="1" source="eKRL8oK7qd-l2Jsr5qjg-1023" target="eKRL8oK7qd-l2Jsr5qjg-1025">
          <mxGeometry relative="1" as="geometry" />
        </mxCell>
        <mxCell id="eKRL8oK7qd-l2Jsr5qjg-1023" value="Шаг заливка 70% воды выполнен" style="rounded=0;whiteSpace=wrap;html=1;fillColor=#d5e8d4;strokeColor=#82b366;" vertex="1" parent="1">
          <mxGeometry x="-2835" y="1400" width="120" height="60" as="geometry" />
        </mxCell>
        <mxCell id="eKRL8oK7qd-l2Jsr5qjg-1027" style="edgeStyle=orthogonalEdgeStyle;rounded=0;orthogonalLoop=1;jettySize=auto;html=1;exitX=0.5;exitY=1;exitDx=0;exitDy=0;entryX=0.5;entryY=0;entryDx=0;entryDy=0;" edge="1" parent="1" source="eKRL8oK7qd-l2Jsr5qjg-1025" target="eKRL8oK7qd-l2Jsr5qjg-1018">
          <mxGeometry relative="1" as="geometry" />
        </mxCell>
        <mxCell id="eKRL8oK7qd-l2Jsr5qjg-1029" style="edgeStyle=orthogonalEdgeStyle;rounded=0;orthogonalLoop=1;jettySize=auto;html=1;exitX=1;exitY=0.5;exitDx=0;exitDy=0;entryX=0;entryY=0.5;entryDx=0;entryDy=0;" edge="1" parent="1" source="eKRL8oK7qd-l2Jsr5qjg-1025" target="eKRL8oK7qd-l2Jsr5qjg-1028">
          <mxGeometry relative="1" as="geometry" />
        </mxCell>
        <mxCell id="eKRL8oK7qd-l2Jsr5qjg-1025" value="Запрос за занятие станции" style="rounded=1;whiteSpace=wrap;html=1;fillColor=#d5e8d4;strokeColor=#82b366;" vertex="1" parent="1">
          <mxGeometry x="-2670" y="1400" width="120" height="60" as="geometry" />
        </mxCell>
        <mxCell id="eKRL8oK7qd-l2Jsr5qjg-1030" style="edgeStyle=orthogonalEdgeStyle;rounded=0;orthogonalLoop=1;jettySize=auto;html=1;exitX=1;exitY=0.75;exitDx=0;exitDy=0;entryX=0.5;entryY=0;entryDx=0;entryDy=0;" edge="1" parent="1" source="eKRL8oK7qd-l2Jsr5qjg-1028" target="eKRL8oK7qd-l2Jsr5qjg-1021">
          <mxGeometry relative="1" as="geometry">
            <Array as="points">
              <mxPoint x="-2320" y="1305" />
              <mxPoint x="-2320" y="1510" />
              <mxPoint x="-2610" y="1510" />
            </Array>
          </mxGeometry>
        </mxCell>
        <mxCell id="eKRL8oK7qd-l2Jsr5qjg-1038" style="edgeStyle=orthogonalEdgeStyle;rounded=0;orthogonalLoop=1;jettySize=auto;html=1;exitX=1;exitY=0.5;exitDx=0;exitDy=0;" edge="1" parent="1" source="eKRL8oK7qd-l2Jsr5qjg-1028" target="eKRL8oK7qd-l2Jsr5qjg-1035">
          <mxGeometry relative="1" as="geometry">
            <Array as="points">
              <mxPoint x="-2140" y="1290" />
              <mxPoint x="-2140" y="1630" />
              <mxPoint x="-2600" y="1630" />
            </Array>
          </mxGeometry>
        </mxCell>
        <mxCell id="eKRL8oK7qd-l2Jsr5qjg-1028" value="Alkali station" style="rounded=0;whiteSpace=wrap;html=1;" vertex="1" parent="1">
          <mxGeometry x="-2460" y="1260" width="120" height="60" as="geometry" />
        </mxCell>
        <mxCell id="eKRL8oK7qd-l2Jsr5qjg-1033" style="edgeStyle=orthogonalEdgeStyle;rounded=0;orthogonalLoop=1;jettySize=auto;html=1;exitX=1;exitY=0.5;exitDx=0;exitDy=0;entryX=0;entryY=0.75;entryDx=0;entryDy=0;" edge="1" parent="1" source="eKRL8oK7qd-l2Jsr5qjg-1031" target="eKRL8oK7qd-l2Jsr5qjg-1028">
          <mxGeometry relative="1" as="geometry" />
        </mxCell>
        <mxCell id="eKRL8oK7qd-l2Jsr5qjg-1037" style="edgeStyle=orthogonalEdgeStyle;rounded=0;orthogonalLoop=1;jettySize=auto;html=1;exitX=0.5;exitY=1;exitDx=0;exitDy=0;entryX=0.5;entryY=0;entryDx=0;entryDy=0;" edge="1" parent="1" source="eKRL8oK7qd-l2Jsr5qjg-1031" target="eKRL8oK7qd-l2Jsr5qjg-1034">
          <mxGeometry relative="1" as="geometry" />
        </mxCell>
        <mxCell id="eKRL8oK7qd-l2Jsr5qjg-1031" value="3way valve shut off" style="rounded=1;whiteSpace=wrap;html=1;fillColor=#d5e8d4;strokeColor=#82b366;" vertex="1" parent="1">
          <mxGeometry x="-2520" y="1535" width="120" height="60" as="geometry" />
        </mxCell>
        <mxCell id="eKRL8oK7qd-l2Jsr5qjg-1036" style="edgeStyle=orthogonalEdgeStyle;rounded=0;orthogonalLoop=1;jettySize=auto;html=1;exitX=1;exitY=0.5;exitDx=0;exitDy=0;entryX=0;entryY=0.5;entryDx=0;entryDy=0;" edge="1" parent="1" source="eKRL8oK7qd-l2Jsr5qjg-1034" target="eKRL8oK7qd-l2Jsr5qjg-1035">
          <mxGeometry relative="1" as="geometry" />
        </mxCell>
        <mxCell id="eKRL8oK7qd-l2Jsr5qjg-1034" value="3way valve shut off" style="rounded=0;whiteSpace=wrap;html=1;fillColor=#d5e8d4;strokeColor=#82b366;" vertex="1" parent="1">
          <mxGeometry x="-2841" y="1640" width="120" height="70" as="geometry" />
        </mxCell>
        <mxCell id="eKRL8oK7qd-l2Jsr5qjg-1040" style="edgeStyle=orthogonalEdgeStyle;rounded=0;orthogonalLoop=1;jettySize=auto;html=1;exitX=1;exitY=0.5;exitDx=0;exitDy=0;entryX=0;entryY=0.5;entryDx=0;entryDy=0;" edge="1" parent="1" source="eKRL8oK7qd-l2Jsr5qjg-1035" target="eKRL8oK7qd-l2Jsr5qjg-1039">
          <mxGeometry relative="1" as="geometry" />
        </mxCell>
        <mxCell id="eKRL8oK7qd-l2Jsr5qjg-1035" value="&lt;div&gt;3way valve shut off&lt;/div&gt;&lt;div&gt;Confurm&lt;br&gt;&lt;/div&gt;" style="rounded=0;whiteSpace=wrap;html=1;fillColor=#d5e8d4;strokeColor=#82b366;" vertex="1" parent="1">
          <mxGeometry x="-2660" y="1640" width="120" height="70" as="geometry" />
        </mxCell>
        <mxCell id="eKRL8oK7qd-l2Jsr5qjg-1045" style="edgeStyle=orthogonalEdgeStyle;rounded=0;orthogonalLoop=1;jettySize=auto;html=1;exitX=0.5;exitY=1;exitDx=0;exitDy=0;entryX=0.5;entryY=0;entryDx=0;entryDy=0;" edge="1" parent="1" source="eKRL8oK7qd-l2Jsr5qjg-1039" target="eKRL8oK7qd-l2Jsr5qjg-1041">
          <mxGeometry relative="1" as="geometry" />
        </mxCell>
        <mxCell id="eKRL8oK7qd-l2Jsr5qjg-1039" value="&lt;div&gt;Промывка трусип трубы водой&lt;br&gt;&lt;/div&gt;&lt;div&gt;Request CIP pipe water flush&lt;/div&gt;" style="rounded=1;whiteSpace=wrap;html=1;fillColor=#d5e8d4;strokeColor=#82b366;" vertex="1" parent="1">
          <mxGeometry x="-2460" y="1645" width="120" height="60" as="geometry" />
        </mxCell>
        <mxCell id="eKRL8oK7qd-l2Jsr5qjg-1043" style="edgeStyle=orthogonalEdgeStyle;rounded=0;orthogonalLoop=1;jettySize=auto;html=1;exitX=1;exitY=0.5;exitDx=0;exitDy=0;entryX=0;entryY=0.5;entryDx=0;entryDy=0;" edge="1" parent="1" source="eKRL8oK7qd-l2Jsr5qjg-1041" target="eKRL8oK7qd-l2Jsr5qjg-1042">
          <mxGeometry relative="1" as="geometry" />
        </mxCell>
        <mxCell id="eKRL8oK7qd-l2Jsr5qjg-1041" value="&lt;div&gt;Промывка трусип трубы водой&lt;br&gt;&lt;/div&gt;&lt;div&gt;Request CIP pipe water flush&lt;/div&gt;" style="rounded=0;whiteSpace=wrap;html=1;fillColor=#d5e8d4;strokeColor=#82b366;" vertex="1" parent="1">
          <mxGeometry x="-2841" y="1760" width="120" height="70" as="geometry" />
        </mxCell>
        <mxCell id="eKRL8oK7qd-l2Jsr5qjg-1046" style="edgeStyle=orthogonalEdgeStyle;rounded=0;orthogonalLoop=1;jettySize=auto;html=1;exitX=1;exitY=0.5;exitDx=0;exitDy=0;entryX=0;entryY=0.5;entryDx=0;entryDy=0;" edge="1" parent="1" source="eKRL8oK7qd-l2Jsr5qjg-1042" target="eKRL8oK7qd-l2Jsr5qjg-1044">
          <mxGeometry relative="1" as="geometry" />
        </mxCell>
        <mxCell id="eKRL8oK7qd-l2Jsr5qjg-1042" value="&lt;div&gt;Клапан воды открыт&lt;/div&gt;&lt;div&gt;(вода льется через CIP трубу)&lt;br&gt;&lt;/div&gt;" style="rounded=0;whiteSpace=wrap;html=1;fillColor=#d5e8d4;strokeColor=#82b366;" vertex="1" parent="1">
          <mxGeometry x="-2680" y="1765" width="120" height="60" as="geometry" />
        </mxCell>
        <mxCell id="eKRL8oK7qd-l2Jsr5qjg-1048" style="edgeStyle=orthogonalEdgeStyle;rounded=0;orthogonalLoop=1;jettySize=auto;html=1;entryX=0.5;entryY=0;entryDx=0;entryDy=0;" edge="1" parent="1" source="eKRL8oK7qd-l2Jsr5qjg-1044" target="eKRL8oK7qd-l2Jsr5qjg-1049">
          <mxGeometry relative="1" as="geometry">
            <mxPoint x="-2799.9999999999995" y="1870" as="targetPoint" />
            <Array as="points">
              <mxPoint x="-2436" y="1850" />
              <mxPoint x="-2781" y="1850" />
            </Array>
          </mxGeometry>
        </mxCell>
        <mxCell id="eKRL8oK7qd-l2Jsr5qjg-1044" value="&lt;div&gt;Timer 5sec&lt;/div&gt;&lt;div&gt; CIP pipe water flush timer&lt;br&gt;&lt;/div&gt;" style="rounded=0;whiteSpace=wrap;html=1;fillColor=#dae8fc;strokeColor=#6c8ebf;" vertex="1" parent="1">
          <mxGeometry x="-2496" y="1765" width="120" height="60" as="geometry" />
        </mxCell>
        <mxCell id="eKRL8oK7qd-l2Jsr5qjg-1049" value="&lt;div&gt;Timer 5sec&lt;/div&gt;&lt;div&gt; CIP pipe water flush timer DN?&lt;br&gt;&lt;/div&gt;" style="rounded=0;whiteSpace=wrap;html=1;fillColor=#d5e8d4;strokeColor=#82b366;" vertex="1" parent="1">
          <mxGeometry x="-2841" y="1870" width="120" height="60" as="geometry" />
        </mxCell>
        <mxCell id="eKRL8oK7qd-l2Jsr5qjg-1051" value="Станция занята мною?" style="rhombus;whiteSpace=wrap;html=1;" vertex="1" parent="1">
          <mxGeometry x="-4590" y="1205" width="150" height="140" as="geometry" />
        </mxCell>
        <mxCell id="eKRL8oK7qd-l2Jsr5qjg-1053" style="edgeStyle=orthogonalEdgeStyle;rounded=0;orthogonalLoop=1;jettySize=auto;html=1;exitX=0.5;exitY=1;exitDx=0;exitDy=0;entryX=0.5;entryY=0;entryDx=0;entryDy=0;" edge="1" parent="1" source="eKRL8oK7qd-l2Jsr5qjg-1052" target="eKRL8oK7qd-l2Jsr5qjg-1051">
          <mxGeometry relative="1" as="geometry" />
        </mxCell>
        <mxCell id="eKRL8oK7qd-l2Jsr5qjg-1052" value="Шаг 1 запрос на занятие станции CIP alkali" style="rounded=0;whiteSpace=wrap;html=1;" vertex="1" parent="1">
          <mxGeometry x="-4575" y="1095" width="120" height="60" as="geometry" />
        </mxCell>
        <mxCell id="eKRL8oK7qd-l2Jsr5qjg-1054" value="да" style="text;html=1;align=center;verticalAlign=middle;resizable=0;points=[];autosize=1;" vertex="1" parent="1">
          <mxGeometry x="-4455" y="1245" width="30" height="20" as="geometry" />
        </mxCell>
        <mxCell id="eKRL8oK7qd-l2Jsr5qjg-1058" style="edgeStyle=orthogonalEdgeStyle;rounded=0;orthogonalLoop=1;jettySize=auto;html=1;exitX=0.5;exitY=1;exitDx=0;exitDy=0;entryX=0.5;entryY=0;entryDx=0;entryDy=0;" edge="1" parent="1" source="eKRL8oK7qd-l2Jsr5qjg-1055" target="eKRL8oK7qd-l2Jsr5qjg-1057">
          <mxGeometry relative="1" as="geometry" />
        </mxCell>
        <mxCell id="eKRL8oK7qd-l2Jsr5qjg-1079" style="edgeStyle=orthogonalEdgeStyle;rounded=0;orthogonalLoop=1;jettySize=auto;html=1;exitX=1;exitY=0.5;exitDx=0;exitDy=0;entryX=0;entryY=0.5;entryDx=0;entryDy=0;" edge="1" parent="1" source="eKRL8oK7qd-l2Jsr5qjg-1055" target="eKRL8oK7qd-l2Jsr5qjg-1078">
          <mxGeometry relative="1" as="geometry" />
        </mxCell>
        <mxCell id="eKRL8oK7qd-l2Jsr5qjg-1055" value="&lt;div&gt;Шаг 2&lt;/div&gt;&lt;div&gt;Запрос на переключение 3way клапанов в положение закрыто&lt;br&gt;&lt;/div&gt;" style="rounded=0;whiteSpace=wrap;html=1;" vertex="1" parent="1">
          <mxGeometry x="-4030" y="1420" width="120" height="80" as="geometry" />
        </mxCell>
        <mxCell id="eKRL8oK7qd-l2Jsr5qjg-1061" style="edgeStyle=orthogonalEdgeStyle;rounded=0;orthogonalLoop=1;jettySize=auto;html=1;exitX=1;exitY=0.5;exitDx=0;exitDy=0;entryX=0.5;entryY=0;entryDx=0;entryDy=0;" edge="1" parent="1" source="eKRL8oK7qd-l2Jsr5qjg-1057" target="eKRL8oK7qd-l2Jsr5qjg-1060">
          <mxGeometry relative="1" as="geometry" />
        </mxCell>
        <mxCell id="eKRL8oK7qd-l2Jsr5qjg-1057" value="&lt;div&gt;Клапана CIP станции&amp;nbsp; переведены в положение&lt;/div&gt;&lt;div&gt; закрыто? &lt;/div&gt;" style="rhombus;whiteSpace=wrap;html=1;" vertex="1" parent="1">
          <mxGeometry x="-4045" y="1550" width="150" height="140" as="geometry" />
        </mxCell>
        <mxCell id="eKRL8oK7qd-l2Jsr5qjg-1059" value="да" style="text;html=1;align=center;verticalAlign=middle;resizable=0;points=[];autosize=1;" vertex="1" parent="1">
          <mxGeometry x="-3915" y="1580" width="30" height="20" as="geometry" />
        </mxCell>
        <mxCell id="eKRL8oK7qd-l2Jsr5qjg-1064" style="edgeStyle=orthogonalEdgeStyle;rounded=0;orthogonalLoop=1;jettySize=auto;html=1;exitX=1;exitY=0.5;exitDx=0;exitDy=0;entryX=0;entryY=0.5;entryDx=0;entryDy=0;" edge="1" parent="1" source="eKRL8oK7qd-l2Jsr5qjg-1060" target="eKRL8oK7qd-l2Jsr5qjg-1063">
          <mxGeometry relative="1" as="geometry" />
        </mxCell>
        <mxCell id="eKRL8oK7qd-l2Jsr5qjg-1065" style="edgeStyle=orthogonalEdgeStyle;rounded=0;orthogonalLoop=1;jettySize=auto;html=1;exitX=0.5;exitY=1;exitDx=0;exitDy=0;entryX=0.5;entryY=0;entryDx=0;entryDy=0;" edge="1" parent="1" source="eKRL8oK7qd-l2Jsr5qjg-1060" target="eKRL8oK7qd-l2Jsr5qjg-1062">
          <mxGeometry relative="1" as="geometry" />
        </mxCell>
        <mxCell id="eKRL8oK7qd-l2Jsr5qjg-1060" value="&lt;div&gt;Шаг 3&lt;/div&gt;&lt;div&gt;Запрос на промывку трубы CIP&lt;br&gt;&lt;/div&gt;" style="rounded=0;whiteSpace=wrap;html=1;" vertex="1" parent="1">
          <mxGeometry x="-3910" y="1690" width="120" height="60" as="geometry" />
        </mxCell>
        <mxCell id="eKRL8oK7qd-l2Jsr5qjg-1068" style="edgeStyle=orthogonalEdgeStyle;rounded=0;orthogonalLoop=1;jettySize=auto;html=1;exitX=1;exitY=0.5;exitDx=0;exitDy=0;entryX=0.5;entryY=0;entryDx=0;entryDy=0;" edge="1" parent="1" source="eKRL8oK7qd-l2Jsr5qjg-1062" target="eKRL8oK7qd-l2Jsr5qjg-1067">
          <mxGeometry relative="1" as="geometry" />
        </mxCell>
        <mxCell id="eKRL8oK7qd-l2Jsr5qjg-1062" value="Клапан воды открыт?" style="rhombus;whiteSpace=wrap;html=1;" vertex="1" parent="1">
          <mxGeometry x="-3925" y="1780" width="150" height="140" as="geometry" />
        </mxCell>
        <mxCell id="eKRL8oK7qd-l2Jsr5qjg-1063" value="Открыть клапан воды" style="rounded=1;whiteSpace=wrap;html=1;" vertex="1" parent="1">
          <mxGeometry x="-3730" y="1690" width="120" height="60" as="geometry" />
        </mxCell>
        <mxCell id="eKRL8oK7qd-l2Jsr5qjg-1066" value="да" style="text;html=1;align=center;verticalAlign=middle;resizable=0;points=[];autosize=1;" vertex="1" parent="1">
          <mxGeometry x="-3795" y="1800" width="30" height="20" as="geometry" />
        </mxCell>
        <mxCell id="eKRL8oK7qd-l2Jsr5qjg-1070" style="edgeStyle=orthogonalEdgeStyle;rounded=0;orthogonalLoop=1;jettySize=auto;html=1;exitX=0.5;exitY=1;exitDx=0;exitDy=0;entryX=0.5;entryY=0;entryDx=0;entryDy=0;" edge="1" parent="1" source="eKRL8oK7qd-l2Jsr5qjg-1067" target="eKRL8oK7qd-l2Jsr5qjg-1069">
          <mxGeometry relative="1" as="geometry" />
        </mxCell>
        <mxCell id="eKRL8oK7qd-l2Jsr5qjg-1072" style="edgeStyle=orthogonalEdgeStyle;rounded=0;orthogonalLoop=1;jettySize=auto;html=1;exitX=1;exitY=0.5;exitDx=0;exitDy=0;entryX=0;entryY=0.5;entryDx=0;entryDy=0;" edge="1" parent="1" source="eKRL8oK7qd-l2Jsr5qjg-1067" target="eKRL8oK7qd-l2Jsr5qjg-1071">
          <mxGeometry relative="1" as="geometry" />
        </mxCell>
        <mxCell id="eKRL8oK7qd-l2Jsr5qjg-1067" value="&lt;div&gt;Шаг 4&lt;/div&gt;&lt;div&gt;Промывка трубы&lt;br&gt;&lt;/div&gt;" style="rounded=0;whiteSpace=wrap;html=1;" vertex="1" parent="1">
          <mxGeometry x="-3775" y="1910" width="120" height="60" as="geometry" />
        </mxCell>
        <mxCell id="eKRL8oK7qd-l2Jsr5qjg-1081" style="edgeStyle=orthogonalEdgeStyle;rounded=0;orthogonalLoop=1;jettySize=auto;html=1;exitX=1;exitY=0.5;exitDx=0;exitDy=0;entryX=0.5;entryY=0;entryDx=0;entryDy=0;" edge="1" parent="1" source="eKRL8oK7qd-l2Jsr5qjg-1069" target="eKRL8oK7qd-l2Jsr5qjg-1080">
          <mxGeometry relative="1" as="geometry" />
        </mxCell>
        <mxCell id="eKRL8oK7qd-l2Jsr5qjg-1069" value="таймер достчитал?" style="rhombus;whiteSpace=wrap;html=1;" vertex="1" parent="1">
          <mxGeometry x="-3790" y="1990" width="150" height="140" as="geometry" />
        </mxCell>
        <mxCell id="eKRL8oK7qd-l2Jsr5qjg-1071" value="Старт таймера промывки трубы" style="rounded=1;whiteSpace=wrap;html=1;" vertex="1" parent="1">
          <mxGeometry x="-3620" y="1910" width="120" height="60" as="geometry" />
        </mxCell>
        <mxCell id="eKRL8oK7qd-l2Jsr5qjg-1073" value="да" style="text;html=1;align=center;verticalAlign=middle;resizable=0;points=[];autosize=1;" vertex="1" parent="1">
          <mxGeometry x="-3650" y="2020" width="30" height="20" as="geometry" />
        </mxCell>
        <mxCell id="eKRL8oK7qd-l2Jsr5qjg-1074" value="Процедура мойки трубы CIP" style="rounded=1;whiteSpace=wrap;html=1;" vertex="1" parent="1">
          <mxGeometry x="-3590" y="1380" width="120" height="60" as="geometry" />
        </mxCell>
        <mxCell id="eKRL8oK7qd-l2Jsr5qjg-1075" value="&lt;div&gt;Режим промывки CIP трубы&lt;/div&gt;" style="whiteSpace=wrap;html=1;" vertex="1" parent="1">
          <mxGeometry x="-3841" y="1025" width="120" height="60" as="geometry" />
        </mxCell>
        <mxCell id="eKRL8oK7qd-l2Jsr5qjg-1078" value="&lt;div&gt;Отправка запроса на CIP станцию &lt;br&gt;&lt;/div&gt;&lt;div&gt;BIT 2&lt;br&gt;&lt;/div&gt;" style="rounded=1;whiteSpace=wrap;html=1;" vertex="1" parent="1">
          <mxGeometry x="-3850" y="1430" width="120" height="60" as="geometry" />
        </mxCell>
        <mxCell id="eKRL8oK7qd-l2Jsr5qjg-1080" value="&lt;div&gt;Шаг 2&lt;/div&gt;&lt;div&gt;Запрос на переключение 3way клапанов в положение закрыто&lt;br&gt;&lt;/div&gt;" style="rounded=1;whiteSpace=wrap;html=1;" vertex="1" parent="1">
          <mxGeometry x="-3610" y="2100" width="120" height="90" as="geometry" />
        </mxCell>
        <mxCell id="eKRL8oK7qd-l2Jsr5qjg-1082" value="Режим дозации кислоты" style="whiteSpace=wrap;html=1;" vertex="1" parent="1">
          <mxGeometry x="-3841" y="1095" width="120" height="60" as="geometry" />
        </mxCell>
        <mxCell id="eKRL8oK7qd-l2Jsr5qjg-1083" value="Режим промывки CIP трубы" style="whiteSpace=wrap;html=1;" vertex="1" parent="1">
          <mxGeometry x="-3841" y="1169" width="120" height="60" as="geometry" />
        </mxCell>
        <mxCell id="eKRL8oK7qd-l2Jsr5qjg-1084" value="да" style="text;html=1;align=center;verticalAlign=middle;resizable=0;points=[];autosize=1;" vertex="1" parent="1">
          <mxGeometry x="-4010" y="1290" width="30" height="20" as="geometry" />
        </mxCell>
        <mxCell id="eKRL8oK7qd-l2Jsr5qjg-1086" style="edgeStyle=orthogonalEdgeStyle;rounded=0;orthogonalLoop=1;jettySize=auto;html=1;exitX=1;exitY=0.5;exitDx=0;exitDy=0;entryX=0.5;entryY=0;entryDx=0;entryDy=0;" edge="1" parent="1" source="eKRL8oK7qd-l2Jsr5qjg-1085" target="eKRL8oK7qd-l2Jsr5qjg-1055">
          <mxGeometry relative="1" as="geometry" />
        </mxCell>
        <mxCell id="eKRL8oK7qd-l2Jsr5qjg-1085" value="&lt;div&gt;Активен режим &lt;br&gt;&lt;/div&gt;&lt;div&gt;промывки CIP трубы? &lt;/div&gt;" style="rhombus;whiteSpace=wrap;html=1;" vertex="1" parent="1">
          <mxGeometry x="-4140" y="1260" width="150" height="140" as="geometry" />
        </mxCell>
      </root>
    </mxGraphModel>
  </diagram>
</mxfile>
